{
.appVersion = "939";
classes = (
{
code = "uni1780 uni1781 uni1782 uni1783 uni1784 uni1785 uni1786 uni1787 uni1788 uni1789 uni178A uni178B uni178C uni178D uni178E uni178F uni1790 uni1791 uni1792 uni1793 uni1794 uni1795 uni1796 uni1797 uni1798 uni1799 uni179A uni179B uni179C uni179D uni179E uni179F uni17A0 uni17A1 uni17A2 uni17A3 uni17A4 ";
name = khmbase01;
},
{
code = "uni17D21780 uni17D21781 uni17D21782 uni17D21783 uni17D21783.low uni17D21784 uni17D21785 uni17D21786 uni17D21787 uni17D21788 uni17D21788.low uni17D21789 uni17D21789.a uni17D2178A uni17D2178A.r uni17D2178B uni17D2178C uni17D2178D uni17D2178D.low uni17D2178E uni17D2178E.alt uni17D2178F uni17D2178F.r uni17D21790 uni17D21791 uni17D21792 uni17D21793 uni17D21794 uni17D21794.low uni17D21795 uni17D21796 uni17D21797 uni17D21797.r uni17D21798 uni17D21798.r uni17D21799 uni17D21799.low uni17D2179A uni17D2179A.low uni17D2179B uni17D2179C uni17D2179D uni17D2179E uni17D2179E.low uni17D2179F uni17D2179F.low uni17D217A0 uni17D217A1 uni17D217A2 uni17D217A7 uni17D217AB uni17D217AC uni17D217AF";
name = khm_all_subs;
},
{
code = "uni17D21780 uni17D21781 uni17D21782 uni17D21784 uni17D21785 uni17D21786 uni17D21787 uni17D21789 uni17D21789.a uni17D2178A uni17D2178B uni17D2178C uni17D2178E uni17D2178F uni17D21790 uni17D21791 uni17D21792 uni17D21793 uni17D21795 uni17D21796 uni17D21797 uni17D21798 uni17D2179B uni17D2179C uni17D217A0 uni17D217A2";
name = khmsubs01;
},
{

glyphs = (
{
glyphname = .notdef;
lastChange = "2016-11-17 19:08:58 +0000";
layers = (
{
layerId = "88BEB7F0-7448-46FF-842C-45A92B9492CE";
paths = (
{
closed = 1;
nodes = (
"538 0 LINE",
"538 714 LINE",
"96 714 LINE",
"96 0 LINE"
);
},
{
closed = 1;
nodes = (
"188 647 LINE",
"446 647 LINE",
"446 67 LINE",
"188 67 LINE"
);
}
);
width = 634;
},
{
layerId = "37E1EBAF-DBB8-42B6-8B14-41DF5B276D12";
paths = (
{
closed = 1;
nodes = (
"484 0 LINE",
"484 714 LINE",
"104 714 LINE",
"104 0 LINE"
);
},
{
closed = 1;
nodes = (
"130 681 LINE",
"458 681 LINE",
"458 33 LINE",
"130 33 LINE"
);
}
);
width = 588;
},
{
layerId = "33F44B55-ADBD-4698-98EB-0F29A0B3A069";
paths = (
{
closed = 1;
nodes = (
"610 0 LINE",
"610 714 LINE",
"85 714 LINE",
"85 0 LINE"
);
},
{
closed = 1;
nodes = (
"265 602 LINE",
"430 602 LINE",
"430 112 LINE",
"265 112 LINE"
);
}
);
width = 695;
},
{
layerId = "2845A654-27C0-4D24-8E0C-7DAF9BC7668A";
paths = (
{
closed = 1;
nodes = (
"610 0 LINE",
"610 714 LINE",
"85 714 LINE",
"85 0 LINE"
);
},
{
closed = 1;
nodes = (
"265 602 LINE",
"430 602 LINE",
"430 112 LINE",
"265 112 LINE"
);
}
);
width = 695;
},
{
layerId = "BB318BD9-DEF5-4D27-998D-30B020A0DD4F";
paths = (
{
closed = 1;
nodes = (
"538 0 LINE",
"538 714 LINE",
"96 714 LINE",
"96 0 LINE"
);
},
{
closed = 1;
nodes = (
"188 647 LINE",
"446 647 LINE",
"446 67 LINE",
"188 67 LINE"
);
}
);
width = 634;
},
{
layerId = "1DC75306-0750-4696-AEC7-032F44743549";
paths = (
{
closed = 1;
nodes = (
"484 0 LINE",
"484 714 LINE",
"104 714 LINE",
"104 0 LINE"
);
},
{
closed = 1;
nodes = (
"130 681 LINE",
"458 681 LINE",
"458 33 LINE",
"130 33 LINE"
);
}
);
width = 588;
}
);
note = .notdef;
},
{
glyphname = exclam;
lastChange = "2016-11-17 19:08:58 +0000";
layers = (
{
layerId = "33F44B55-ADBD-4698-98EB-0F29A0B3A069";
paths = (
{
closed = 1;
nodes = (
"241 248 LINE",
"318 714 LINE",
"101 714 LINE",
"178 248 LINE"
);
},
{
closed = 1;
nodes = (
"262 -9 OFFCURVE",
"307 13 OFFCURVE",
"307 80 CURVE SMOOTH",
"307 148 OFFCURVE",
"262 169 OFFCURVE",
"211 169 CURVE SMOOTH",
"157 169 OFFCURVE",
"115 148 OFFCURVE",
"115 80 CURVE SMOOTH",
"115 13 OFFCURVE",
"157 -9 OFFCURVE",
"211 -9 CURVE SMOOTH"
);
}
);
width = 418;
},
{
layerId = "88BEB7F0-7448-46FF-842C-45A92B9492CE";
paths = (
{
closed = 1;
nodes = (
"189 201 LINE",
"224 714 LINE",
"108 714 LINE",
"143 201 LINE"
);
},
{
closed = 1;
nodes = (
"200 -7 OFFCURVE",
"229 10 OFFCURVE",
"229 61 CURVE SMOOTH",
"229 113 OFFCURVE",
"200 129 OFFCURVE",
"166 129 CURVE SMOOTH",
"131 129 OFFCURVE",
"103 113 OFFCURVE",
"103 61 CURVE SMOOTH",
"103 10 OFFCURVE",
"131 -7 OFFCURVE",
"166 -7 CURVE SMOOTH"
);
}
);
width = 333;
},
{
layerId = "2845A654-27C0-4D24-8E0C-7DAF9BC7668A";
paths = (
{
closed = 1;
nodes = (
"201 235 LINE",
"265 714 LINE",
"84 714 LINE",
"148 235 LINE"
);
},
{
closed = 1;
nodes = (
"219 -8 OFFCURVE",
"256 12 OFFCURVE",
"256 74 CURVE SMOOTH",
"256 136 OFFCURVE",
"219 156 OFFCURVE",
"176 156 CURVE SMOOTH",
"131 156 OFFCURVE",
"96 136 OFFCURVE",
"96 74 CURVE SMOOTH",
"96 12 OFFCURVE",
"131 -8 OFFCURVE",
"176 -8 CURVE SMOOTH"
);
}
);
width = 349;
},
{
layerId = "1DC75306-0750-4696-AEC7-032F44743549";
paths = (
{
closed = 1;
nodes = (
"119 167 LINE",
"122 714 LINE",
"94 714 LINE",
"99 167 LINE"
);
},
{
closed = 1;
nodes = (
"122 -5 OFFCURVE",
"136 5 OFFCURVE",
"136 34 CURVE SMOOTH",
"136 64 OFFCURVE",
"122 74 OFFCURVE",
"108 74 CURVE SMOOTH",
"91 74 OFFCURVE",
"78 64 OFFCURVE",
"78 34 CURVE SMOOTH",
"78 5 OFFCURVE",
"91 -5 OFFCURVE",
"108 -5 CURVE SMOOTH"
);
}
);
width = 216;
},
{
layerId = "37E1EBAF-DBB8-42B6-8B14-41DF5B276D12";
paths = (
{
closed = 1;
nodes = (
"146 167 LINE",
"149 714 LINE",
"121 714 LINE",
"126 167 LINE"
);
},
{
closed = 1;
nodes = (
"150 -5 OFFCURVE",
"163 4 OFFCURVE",
"163 35 CURVE SMOOTH",
"163 65 OFFCURVE",
"150 73 OFFCURVE",
"134 73 CURVE SMOOTH",
"119 73 OFFCURVE",
"105 65 OFFCURVE",
"105 35 CURVE SMOOTH",
"105 4 OFFCURVE",
"119 -5 OFFCURVE",
"134 -5 CURVE SMOOTH"
);
}
);
width = 271;
},
{
layerId = "BB318BD9-DEF5-4D27-998D-30B020A0DD4F";
paths = (
{
closed = 1;
nodes = (
"156 198 LINE",
"188 714 LINE",
"85 714 LINE",
"117 198 LINE"
);
},
{
closed = 1;
nodes = (
"164 -7 OFFCURVE",
"188 8 OFFCURVE",
"188 55 CURVE SMOOTH",
"188 102 OFFCURVE",
"164 117 OFFCURVE",
"137 117 CURVE SMOOTH",
"108 117 OFFCURVE",
"86 102 OFFCURVE",
"86 55 CURVE SMOOTH",
"86 8 OFFCURVE",
"108 -7 OFFCURVE",
"137 -7 CURVE SMOOTH"
);
}
);
width = 274;
}
);
unicode = 0021;
subCategory = Other;
},
{
glyphname = quotedbl;
lastChange = "2016-11-17 19:08:58 +0000";
layers = (
{
layerId = "33F44B55-ADBD-4698-98EB-0F29A0B3A069";
paths = (
{
closed = 1;
nodes = (
"468 410 LINE",
"507 714 LINE",
"314 714 LINE",
"387 410 LINE"
);
},
{
closed = 1;
nodes = (
"211 410 LINE",
"267 714 LINE",
"74 714 LINE",
"130 410 LINE"
);
}
);
width = 582;
},
{
layerId = "88BEB7F0-7448-46FF-842C-45A92B9492CE";
paths = (
{
closed = 1;
nodes = (
"321 479 LINE",
"351 714 LINE",
"245 714 LINE",
"275 479 LINE"
);
},
{
closed = 1;
nodes = (
"133 479 LINE",
"163 714 LINE",
"57 714 LINE",
"87 479 LINE"
);
}
);
width = 408;
},
{
layerId = "2845A654-27C0-4D24-8E0C-7DAF9BC7668A";
paths = (
{
closed = 1;
nodes = (
"391 429 LINE",
"424 714 LINE",
"262 714 LINE",
"324 429 LINE"
);
},
{
closed = 1;
nodes = (
"176 429 LINE",
"223 714 LINE",
"62 714 LINE",
"109 429 LINE"
);
}
);
width = 486;
},
{
layerId = "1DC75306-0750-4696-AEC7-032F44743549";
paths = (
{
closed = 1;
nodes = (
"186 525 LINE",
"198 714 LINE",
"155 714 LINE",
"167 525 LINE"
);
},
{
closed = 1;
nodes = (
"67 525 LINE",
"79 714 LINE",
"36 714 LINE",
"48 525 LINE"
);
}
);
width = 235;
},
{
layerId = "37E1EBAF-DBB8-42B6-8B14-41DF5B276D12";
paths = (
{
closed = 1;
nodes = (
"225 529 LINE",
"235 714 LINE",
"193 714 LINE",
"205 529 LINE"
);
},
{
closed = 1;
nodes = (
"77 529 LINE",
"87 714 LINE",
"45 714 LINE",
"57 529 LINE"
);
}
);
width = 282;
},
{
layerId = "BB318BD9-DEF5-4D27-998D-30B020A0DD4F";
paths = (
{
closed = 1;
nodes = (
"272 483 LINE",
"296 714 LINE",
"202 714 LINE",
"231 483 LINE"
);
},
{
closed = 1;
nodes = (
"115 483 LINE",
"142 714 LINE",
"47 714 LINE",
"75 483 LINE"
);
}
);
width = 344;
}
);
leftKerningGroup = quotesingle;
rightKerningGroup = quotesingle;
unicode = 0022;
subCategory = Other;
},
{
glyphname = quotesingle;
lastChange = "2016-11-17 19:08:58 +0000";
layers = (
{
layerId = "33F44B55-ADBD-4698-98EB-0F29A0B3A069";
paths = (
{
closed = 1;
nodes = (
"211 410 LINE",
"267 714 LINE",
"74 714 LINE",
"130 410 LINE"
);
}
);
width = 342;
},
{
layerId = "88BEB7F0-7448-46FF-842C-45A92B9492CE";
paths = (
{
closed = 1;
nodes = (
"133 479 LINE",
"163 714 LINE",
"57 714 LINE",
"87 479 LINE"
);
}
);
width = 220;
},
{
layerId = "2845A654-27C0-4D24-8E0C-7DAF9BC7668A";
paths = (
{
closed = 1;
nodes = (
"176 429 LINE",
"223 714 LINE",
"62 714 LINE",
"109 429 LINE"
);
}
);
width = 286;
},
{
layerId = "1DC75306-0750-4696-AEC7-032F44743549";
paths = (
{
closed = 1;
nodes = (
"67 525 LINE",
"79 714 LINE",
"36 714 LINE",
"48 525 LINE"
);
}
);
width = 115;
},
{
layerId = "37E1EBAF-DBB8-42B6-8B14-41DF5B276D12";
paths = (
{
closed = 1;
nodes = (
"77 529 LINE",
"87 714 LINE",
"45 714 LINE",
"57 529 LINE"
);
}
);
width = 132;
},
{
layerId = "BB318BD9-DEF5-4D27-998D-30B020A0DD4F";
paths = (
{
closed = 1;
nodes = (
"115 483 LINE",
"142 714 LINE",
"47 714 LINE",
"75 483 LINE"
);
}
);
width = 190;
}
);
leftKerningGroup = quotesingle;
rightKerningGroup = quotesingle;
unicode = 0027;
subCategory = Other;
},
{
glyphname = parenleft;
lastChange = "2016-11-17 19:08:58 +0000";
layers = (
{
layerId = "33F44B55-ADBD-4698-98EB-0F29A0B3A069";
paths = (
{
closed = 1;
nodes = (
"408 -70 LINE",
"293 11 OFFCURVE",
"260 160 OFFCURVE",
"260 319 CURVE SMOOTH",
"260 476 OFFCURVE",
"293 623 OFFCURVE",
"408 705 CURVE",
"408 781 LINE",
"156 680 OFFCURVE",
"57 515 OFFCURVE",
"57 319 CURVE SMOOTH",
"57 121 OFFCURVE",
"156 -46 OFFCURVE",
"408 -147 CURVE"
);
}
);
width = 440;
},
{
layerId = "88BEB7F0-7448-46FF-842C-45A92B9492CE";
paths = (
{
closed = 1;
nodes = (
"314 -82 LINE",
"177 1 OFFCURVE",
"161 158 OFFCURVE",
"161 317 CURVE SMOOTH",
"161 476 OFFCURVE",
"177 632 OFFCURVE",
"314 715 CURVE",
"314 760 LINE",
"130 687 OFFCURVE",
"57 557 OFFCURVE",
"57 317 CURVE SMOOTH",
"57 76 OFFCURVE",
"130 -55 OFFCURVE",
"314 -128 CURVE"
);
}
);
width = 346;
},
{
layerId = "2845A654-27C0-4D24-8E0C-7DAF9BC7668A";
paths = (
{
closed = 1;
nodes = (
"341 -73 LINE",
"245 8 OFFCURVE",
"217 159 OFFCURVE",
"217 318 CURVE SMOOTH",
"217 476 OFFCURVE",
"245 625 OFFCURVE",
"341 708 CURVE",
"341 775 LINE",
"130 682 OFFCURVE",
"47 526 OFFCURVE",
"47 318 CURVE SMOOTH",
"47 109 OFFCURVE",
"130 -48 OFFCURVE",
"341 -142 CURVE"
);
}
);
width = 367;
},
{
layerId = "1DC75306-0750-4696-AEC7-032F44743549";
paths = (
{
closed = 1;
nodes = (
"197 -87 LINE",
"128 -53 OFFCURVE",
"71 96 OFFCURVE",
"71 315 CURVE SMOOTH",
"71 534 OFFCURVE",
"128 683 OFFCURVE",
"197 717 CURVE",
"197 745 LINE",
"107 702 OFFCURVE",
"43 565 OFFCURVE",
"43 315 CURVE SMOOTH",
"43 62 OFFCURVE",
"107 -72 OFFCURVE",
"197 -115 CURVE"
);
}
);
width = 221;
},
{
layerId = "37E1EBAF-DBB8-42B6-8B14-41DF5B276D12";
paths = (
{
closed = 1;
nodes = (
"246 -90 LINE",
"96 -21 OFFCURVE",
"85 156 OFFCURVE",
"85 315 CURVE SMOOTH",
"85 474 OFFCURVE",
"93 659 OFFCURVE",
"246 719 CURVE",
"246 744 LINE",
"112 693 OFFCURVE",
"57 587 OFFCURVE",
"57 315 CURVE SMOOTH",
"57 44 OFFCURVE",
"112 -61 OFFCURVE",
"246 -114 CURVE"
);
}
);
width = 278;
},
{
layerId = "BB318BD9-DEF5-4D27-998D-30B020A0DD4F";
paths = (
{
closed = 1;
nodes = (
"260 -83 LINE",
"154 0 OFFCURVE",
"140 158 OFFCURVE",
"140 317 CURVE SMOOTH",
"140 476 OFFCURVE",
"154 632 OFFCURVE",
"260 716 CURVE",
"260 758 LINE",
"106 688 OFFCURVE",
"45 560 OFFCURVE",
"45 317 CURVE SMOOTH",
"45 73 OFFCURVE",
"106 -55 OFFCURVE",
"260 -127 CURVE"
);
}
);
width = 284;
}
);
rightKerningGroup = parenleft;
unicode = 0028;
subCategory = Parenthesis;
},
{
glyphname = parenright;
lastChange = "2016-11-17 19:08:58 +0000";
layers = (
{
layerId = "33F44B55-ADBD-4698-98EB-0F29A0B3A069";
paths = (
{
closed = 1;
nodes = (
"284 -46 OFFCURVE",
"383 121 OFFCURVE",
"383 319 CURVE SMOOTH",
"383 515 OFFCURVE",
"284 680 OFFCURVE",
"32 781 CURVE",
"32 705 LINE",
"146 623 OFFCURVE",
"180 476 OFFCURVE",
"180 319 CURVE SMOOTH",
"180 160 OFFCURVE",
"146 11 OFFCURVE",
"32 -70 CURVE",
"32 -147 LINE"
);
}
);
width = 440;
},
{
layerId = "88BEB7F0-7448-46FF-842C-45A92B9492CE";
paths = (
{
closed = 1;
nodes = (
"216 -55 OFFCURVE",
"289 76 OFFCURVE",
"289 317 CURVE SMOOTH",
"289 557 OFFCURVE",
"216 687 OFFCURVE",
"32 760 CURVE",
"32 715 LINE",
"169 632 OFFCURVE",
"185 476 OFFCURVE",
"185 317 CURVE SMOOTH",
"185 158 OFFCURVE",
"169 1 OFFCURVE",
"32 -82 CURVE",
"32 -128 LINE"
);
}
);
width = 346;
},
{
layerId = "2845A654-27C0-4D24-8E0C-7DAF9BC7668A";
paths = (
{
closed = 1;
nodes = (
"237 -48 OFFCURVE",
"320 109 OFFCURVE",
"320 318 CURVE SMOOTH",
"320 526 OFFCURVE",
"237 682 OFFCURVE",
"26 775 CURVE",
"26 708 LINE",
"121 625 OFFCURVE",
"150 476 OFFCURVE",
"150 318 CURVE SMOOTH",
"150 159 OFFCURVE",
"121 8 OFFCURVE",
"26 -73 CURVE",
"26 -142 LINE"
);
}
);
width = 367;
},
{
layerId = "1DC75306-0750-4696-AEC7-032F44743549";
paths = (
{
closed = 1;
nodes = (
"113 -72 OFFCURVE",
"177 62 OFFCURVE",
"177 315 CURVE SMOOTH",
"177 565 OFFCURVE",
"113 702 OFFCURVE",
"23 745 CURVE",
"23 717 LINE",
"92 683 OFFCURVE",
"149 534 OFFCURVE",
"149 315 CURVE SMOOTH",
"149 96 OFFCURVE",
"92 -53 OFFCURVE",
"23 -87 CURVE",
"23 -115 LINE"
);
}
);
width = 221;
},
{
layerId = "37E1EBAF-DBB8-42B6-8B14-41DF5B276D12";
paths = (
{
closed = 1;
nodes = (
"191 -61 OFFCURVE",
"246 44 OFFCURVE",
"246 315 CURVE SMOOTH",
"246 587 OFFCURVE",
"191 693 OFFCURVE",
"57 744 CURVE",
"57 719 LINE",
"210 659 OFFCURVE",
"218 474 OFFCURVE",
"218 315 CURVE SMOOTH",
"218 156 OFFCURVE",
"207 -21 OFFCURVE",
"57 -90 CURVE",
"57 -114 LINE"
);
}
);
width = 278;
},
{
layerId = "BB318BD9-DEF5-4D27-998D-30B020A0DD4F";
paths = (
{
closed = 1;
nodes = (
"179 -55 OFFCURVE",
"240 73 OFFCURVE",
"240 317 CURVE SMOOTH",
"240 560 OFFCURVE",
"179 688 OFFCURVE",
"25 758 CURVE",
"25 716 LINE",
"131 632 OFFCURVE",
"146 476 OFFCURVE",
"146 317 CURVE SMOOTH",
"146 158 OFFCURVE",
"131 0 OFFCURVE",
"25 -83 CURVE",
"25 -127 LINE"
);
}
);
width = 284;
}
);
leftKerningGroup = parenright;
unicode = 0029;
subCategory = Parenthesis;
},
{
glyphname = comma;
lastChange = "2016-11-17 19:08:58 +0000";
layers = (
{
layerId = "33F44B55-ADBD-4698-98EB-0F29A0B3A069";
paths = (
{
closed = 1;
nodes = (
"194 -119 OFFCURVE",
"246 -43 OFFCURVE",
"246 42 CURVE SMOOTH",
"246 119 OFFCURVE",
"216 169 OFFCURVE",
"149 169 CURVE SMOOTH",
"105 169 OFFCURVE",
"66 143 OFFCURVE",
"66 93 CURVE SMOOTH",
"66 -1 OFFCURVE",
"139 11 OFFCURVE",
"139 -25 CURVE SMOOTH",
"139 -61 OFFCURVE",
"109 -74 OFFCURVE",
"56 -95 CURVE",
"56 -154 LINE"
);
}
);
width = 326;
},
{
layerId = "88BEB7F0-7448-46FF-842C-45A92B9492CE";
paths = (
{
closed = 1;
nodes = (
"149 -119 OFFCURVE",
"194 -43 OFFCURVE",
"194 42 CURVE SMOOTH",
"194 98 OFFCURVE",
"158 129 OFFCURVE",
"117 129 CURVE SMOOTH",
"80 129 OFFCURVE",
"52 108 OFFCURVE",
"52 70 CURVE SMOOTH",
"52 9 OFFCURVE",
"125 18 OFFCURVE",
"125 -22 CURVE",
"125 -61 OFFCURVE",
"95 -91 OFFCURVE",
"30 -112 CURVE",
"30 -154 LINE"
);
}
);
width = 250;
},
{
layerId = "2845A654-27C0-4D24-8E0C-7DAF9BC7668A";
paths = (
{
closed = 1;
nodes = (
"162 -120 OFFCURVE",
"205 -45 OFFCURVE",
"205 38 CURVE SMOOTH",
"205 110 OFFCURVE",
"180 156 OFFCURVE",
"125 156 CURVE SMOOTH",
"87 156 OFFCURVE",
"55 131 OFFCURVE",
"55 86 CURVE SMOOTH",
"55 2 OFFCURVE",
"116 11 OFFCURVE",
"116 -25 CURVE SMOOTH",
"116 -61 OFFCURVE",
"91 -80 OFFCURVE",
"47 -100 CURVE",
"47 -154 LINE"
);
}
);
width = 273;
},
{
layerId = "1DC75306-0750-4696-AEC7-032F44743549";
paths = (
{
closed = 1;
nodes = (
"91 -124 OFFCURVE",
"118 -58 OFFCURVE",
"118 0 CURVE SMOOTH",
"118 56 OFFCURVE",
"94 73 OFFCURVE",
"72 73 CURVE SMOOTH",
"55 73 OFFCURVE",
"42 62 OFFCURVE",
"42 47 CURVE SMOOTH",
"42 16 OFFCURVE",
"86 11 OFFCURVE",
"86 -26 CURVE SMOOTH",
"86 -61 OFFCURVE",
"67 -110 OFFCURVE",
"20 -128 CURVE",
"20 -154 LINE"
);
}
);
width = 157;
},
{
layerId = "37E1EBAF-DBB8-42B6-8B14-41DF5B276D12";
paths = (
{
closed = 1;
nodes = (
"111 -127 OFFCURVE",
"142 -67 OFFCURVE",
"142 0 CURVE SMOOTH",
"142 52 OFFCURVE",
"118 73 OFFCURVE",
"91 73 CURVE SMOOTH",
"72 73 OFFCURVE",
"64 60 OFFCURVE",
"64 42 CURVE SMOOTH",
"64 17 OFFCURVE",
"111 4 OFFCURVE",
"111 -30 CURVE SMOOTH",
"111 -61 OFFCURVE",
"89 -115 OFFCURVE",
"30 -132 CURVE",
"30 -154 LINE"
);
}
);
width = 194;
},
{
layerId = "BB318BD9-DEF5-4D27-998D-30B020A0DD4F";
paths = (
{
closed = 1;
nodes = (
"122 -122 OFFCURVE",
"156 -52 OFFCURVE",
"156 26 CURVE SMOOTH",
"156 84 OFFCURVE",
"132 117 OFFCURVE",
"96 117 CURVE SMOOTH",
"69 117 OFFCURVE",
"48 97 OFFCURVE",
"48 64 CURVE SMOOTH",
"48 10 OFFCURVE",
"99 11 OFFCURVE",
"99 -26 CURVE SMOOTH",
"99 -61 OFFCURVE",
"77 -97 OFFCURVE",
"32 -116 CURVE",
"32 -154 LINE"
);
}
);
width = 207;
}
);
leftKerningGroup = period;
rightKerningGroup = comma;
unicode = 002C;
subCategory = Other;
},
{
glyphname = hyphen;
lastChange = "2016-11-17 19:08:58 +0000";
layers = (
{
layerId = "33F44B55-ADBD-4698-98EB-0F29A0B3A069";
paths = (
{
closed = 1;
nodes = (
"285 209 LINE",
"285 336 LINE",
"25 336 LINE",
"25 209 LINE"
);
}
);
width = 310;
},
{
layerId = "88BEB7F0-7448-46FF-842C-45A92B9492CE";
paths = (
{
closed = 1;
nodes = (
"285 235 LINE",
"285 310 LINE",
"25 310 LINE",
"25 235 LINE"
);
}
);
width = 310;
},
{
associatedMasterId = "37E1EBAF-DBB8-42B6-8B14-41DF5B276D12";
layerId = "75A83886-EED5-4C31-9670-660514D8A4F6";
paths = (
{
closed = 1;
nodes = (
"238 216 LINE",
"238 329 LINE",
"21 329 LINE",
"21 216 LINE"
);
}
);
width = 259;
},
{
associatedMasterId = "37E1EBAF-DBB8-42B6-8B14-41DF5B276D12";
background = {
paths = (
{
closed = 1;
nodes = (
"221 244 LINE",
"221 301 LINE",
"20 301 LINE",
"20 244 LINE"
);
}
);
};
layerId = "C91144B6-58F5-45F2-9CE4-7ED6CE127FD4";
paths = (
{
closed = 1;
nodes = (
"216 259 LINE",
"216 287 LINE",
"20 287 LINE",
"20 259 LINE"
);
}
);
width = 236;
},
{
layerId = "37E1EBAF-DBB8-42B6-8B14-41DF5B276D12";
paths = (
{
closed = 1;
nodes = (
"285 259 LINE",
"285 287 LINE",
"25 287 LINE",
"25 259 LINE"
);
}
);
width = 310;
},
{
associatedMasterId = "37E1EBAF-DBB8-42B6-8B14-41DF5B276D12";
layerId = "A0CCC833-A561-4F2A-AF73-A35187C9FE5B";
paths = (
{
closed = 1;
nodes = (
"226 236 LINE",
"226 309 LINE",
"20 309 LINE",
"20 236 LINE"
);
}
);
width = 246;
},
{
associatedMasterId = "37E1EBAF-DBB8-42B6-8B14-41DF5B276D12";
layerId = "BD18C76C-096B-4C52-83B4-518A374966BE";
paths = (
{
closed = 1;
nodes = (
"233 225 LINE",
"233 320 LINE",
"21 320 LINE",
"21 225 LINE"
);
}
);
width = 253;
},
{
layerId = "2845A654-27C0-4D24-8E0C-7DAF9BC7668A";
paths = (
{
closed = 1;
nodes = (
"238 216 LINE",
"238 329 LINE",
"21 329 LINE",
"21 216 LINE"
);
}
);
width = 259;
},
{
layerId = "BB318BD9-DEF5-4D27-998D-30B020A0DD4F";
paths = (
{
closed = 1;
nodes = (
"226 236 LINE",
"226 309 LINE",
"20 309 LINE",
"20 236 LINE"
);
}
);
width = 246;
},
{
associatedMasterId = "1DC75306-0750-4696-AEC7-032F44743549";
layerId = "DB8BFDEC-719D-4159-AAFA-E3C152925F97";
paths = (
{
closed = 1;
nodes = (
"238 216 LINE",
"238 329 LINE",
"21 329 LINE",
"21 216 LINE"
);
}
);
width = 259;
},
{
associatedMasterId = "1DC75306-0750-4696-AEC7-032F44743549";
background = {
paths = (
{
closed = 1;
nodes = (
"221 244 LINE",
"221 301 LINE",
"20 301 LINE",
"20 244 LINE"
);
}
);
};
layerId = "9C4AB9E3-D569-4344-96C6-A88ED15393BF";
paths = (
{
closed = 1;
nodes = (
"216 259 LINE",
"216 287 LINE",
"20 287 LINE",
"20 259 LINE"
);
}
);
width = 236;
},
{
layerId = "1DC75306-0750-4696-AEC7-032F44743549";
paths = (
{
closed = 1;
nodes = (
"216 259 LINE",
"216 287 LINE",
"20 287 LINE",
"20 259 LINE"
);
}
);
width = 236;
},
{
associatedMasterId = "1DC75306-0750-4696-AEC7-032F44743549";
layerId = "CC7AFB23-DF27-41B3-B253-ABFEFBA2F7A5";
paths = (
{
closed = 1;
nodes = (
"226 236 LINE",
"226 309 LINE",
"20 309 LINE",
"20 236 LINE"
);
}
);
width = 246;
},
{
associatedMasterId = "1DC75306-0750-4696-AEC7-032F44743549";
layerId = "E0BF969A-536E-419C-BC0B-8F7F2935C5D9";
paths = (
{
closed = 1;
nodes = (
"233 225 LINE",
"233 320 LINE",
"21 320 LINE",
"21 225 LINE"
);
}
);
width = 253;
}
);
leftKerningGroup = hyphen;
rightKerningGroup = hyphen;
unicode = 002D;
subCategory = Dash;
},
{
glyphname = period;
lastChange = "2016-11-17 19:08:58 +0000";
layers = (
{
layerId = "33F44B55-ADBD-4698-98EB-0F29A0B3A069";
paths = (
{
closed = 1;
nodes = (
"214 -9 OFFCURVE",
"259 13 OFFCURVE",
"259 80 CURVE SMOOTH",
"259 148 OFFCURVE",
"214 169 OFFCURVE",
"163 169 CURVE SMOOTH",
"109 169 OFFCURVE",
"67 148 OFFCURVE",
"67 80 CURVE SMOOTH",
"67 13 OFFCURVE",
"109 -9 OFFCURVE",
"163 -9 CURVE SMOOTH"
);
}
);
width = 326;
},
{
layerId = "88BEB7F0-7448-46FF-842C-45A92B9492CE";
paths = (
{
closed = 1;
nodes = (
"159 -7 OFFCURVE",
"188 10 OFFCURVE",
"188 61 CURVE SMOOTH",
"188 113 OFFCURVE",
"159 129 OFFCURVE",
"125 129 CURVE SMOOTH",
"90 129 OFFCURVE",
"62 113 OFFCURVE",
"62 61 CURVE SMOOTH",
"62 10 OFFCURVE",
"90 -7 OFFCURVE",
"125 -7 CURVE SMOOTH"
);
}
);
width = 250;
},
{
layerId = "2845A654-27C0-4D24-8E0C-7DAF9BC7668A";
paths = (
{
closed = 1;
nodes = (
"179 -8 OFFCURVE",
"217 12 OFFCURVE",
"217 74 CURVE SMOOTH",
"217 136 OFFCURVE",
"179 156 OFFCURVE",
"136 156 CURVE SMOOTH",
"91 156 OFFCURVE",
"56 136 OFFCURVE",
"56 74 CURVE SMOOTH",
"56 12 OFFCURVE",
"91 -8 OFFCURVE",
"136 -8 CURVE SMOOTH"
);
}
);
width = 273;
},
{
layerId = "1DC75306-0750-4696-AEC7-032F44743549";
paths = (
{
closed = 1;
nodes = (
"94 -6 OFFCURVE",
"107 4 OFFCURVE",
"107 33 CURVE SMOOTH",
"107 63 OFFCURVE",
"94 73 OFFCURVE",
"80 73 CURVE SMOOTH",
"63 73 OFFCURVE",
"50 63 OFFCURVE",
"50 33 CURVE SMOOTH",
"50 4 OFFCURVE",
"63 -6 OFFCURVE",
"80 -6 CURVE SMOOTH"
);
}
);
width = 157;
},
{
layerId = "37E1EBAF-DBB8-42B6-8B14-41DF5B276D12";
paths = (
{
closed = 1;
nodes = (
"113 -5 OFFCURVE",
"126 4 OFFCURVE",
"126 35 CURVE SMOOTH",
"126 65 OFFCURVE",
"113 73 OFFCURVE",
"97 73 CURVE SMOOTH",
"82 73 OFFCURVE",
"68 65 OFFCURVE",
"68 35 CURVE SMOOTH",
"68 4 OFFCURVE",
"82 -5 OFFCURVE",
"97 -5 CURVE SMOOTH"
);
}
);
width = 194;
},
{
layerId = "BB318BD9-DEF5-4D27-998D-30B020A0DD4F";
paths = (
{
closed = 1;
nodes = (
"131 -7 OFFCURVE",
"155 8 OFFCURVE",
"155 55 CURVE SMOOTH",
"155 102 OFFCURVE",
"131 117 OFFCURVE",
"104 117 CURVE SMOOTH",
"75 117 OFFCURVE",
"52 102 OFFCURVE",
"52 55 CURVE SMOOTH",
"52 8 OFFCURVE",
"75 -7 OFFCURVE",
"104 -7 CURVE SMOOTH"
);
}
);
width = 207;
}
);
leftKerningGroup = period;
rightKerningGroup = comma;
unicode = 002E;
subCategory = Other;
},
{
glyphname = slash;
lastChange = "2016-11-17 19:08:58 +0000";
layers = (
{
layerId = "33F44B55-ADBD-4698-98EB-0F29A0B3A069";
paths = (
{
closed = 1;
nodes = (
"82 -121 LINE",
"288 760 LINE",
"209 760 LINE",
"0 -121 LINE"
);
}
);
width = 288;
},
{
layerId = "88BEB7F0-7448-46FF-842C-45A92B9492CE";
paths = (
{
closed = 1;
nodes = (
"59 -121 LINE",
"288 760 LINE",
"230 760 LINE",
"0 -121 LINE"
);
}
);
width = 288;
},
{
layerId = "2845A654-27C0-4D24-8E0C-7DAF9BC7668A";
paths = (
{
closed = 1;
nodes = (
"69 -121 LINE",
"240 760 LINE",
"174 760 LINE",
"0 -121 LINE"
);
}
);
width = 240;
},
{
layerId = "1DC75306-0750-4696-AEC7-032F44743549";
paths = (
{
closed = 1;
nodes = (
"29 -121 LINE",
"219 760 LINE",
"190 760 LINE",
"0 -121 LINE"
);
}
);
width = 219;
},
{
layerId = "37E1EBAF-DBB8-42B6-8B14-41DF5B276D12";
paths = (
{
closed = 1;
nodes = (
"29 -121 LINE",
"288 760 LINE",
"259 760 LINE",
"0 -121 LINE"
);
}
);
width = 288;
},
{
layerId = "BB318BD9-DEF5-4D27-998D-30B020A0DD4F";
paths = (
{
closed = 1;
nodes = (
"50 -120 LINE",
"228 760 LINE",
"180 760 LINE",
"0 -121 LINE"
);
}
);
width = 228;
}
);
unicode = 002F;
subCategory = Other;
},
{
glyphname = colon;
lastChange = "2016-11-17 19:08:58 +0000";
layers = (
{
layerId = "33F44B55-ADBD-4698-98EB-0F29A0B3A069";
paths = (
{
closed = 1;
nodes = (
"209 370 OFFCURVE",
"254 392 OFFCURVE",
"254 459 CURVE SMOOTH",
"254 527 OFFCURVE",
"209 548 OFFCURVE",
"158 548 CURVE SMOOTH",
"104 548 OFFCURVE",
"62 527 OFFCURVE",
"62 459 CURVE SMOOTH",
"62 392 OFFCURVE",
"104 370 OFFCURVE",
"158 370 CURVE SMOOTH"
);
},
{
closed = 1;
nodes = (
"209 -9 OFFCURVE",
"254 13 OFFCURVE",
"254 80 CURVE SMOOTH",
"254 148 OFFCURVE",
"209 169 OFFCURVE",
"158 169 CURVE SMOOTH",
"104 169 OFFCURVE",
"62 148 OFFCURVE",
"62 80 CURVE SMOOTH",
"62 13 OFFCURVE",
"104 -9 OFFCURVE",
"158 -9 CURVE SMOOTH"
);
}
);
width = 317;
},
{
layerId = "88BEB7F0-7448-46FF-842C-45A92B9492CE";
paths = (
{
closed = 1;
nodes = (
"178 405 OFFCURVE",
"207 422 OFFCURVE",
"207 473 CURVE SMOOTH",
"207 525 OFFCURVE",
"178 541 OFFCURVE",
"144 541 CURVE SMOOTH",
"109 541 OFFCURVE",
"81 525 OFFCURVE",
"81 473 CURVE SMOOTH",
"81 422 OFFCURVE",
"109 405 OFFCURVE",
"144 405 CURVE SMOOTH"
);
},
{
closed = 1;
nodes = (
"178 -7 OFFCURVE",
"207 10 OFFCURVE",
"207 61 CURVE SMOOTH",
"207 113 OFFCURVE",
"178 129 OFFCURVE",
"144 129 CURVE SMOOTH",
"109 129 OFFCURVE",
"81 113 OFFCURVE",
"81 61 CURVE SMOOTH",
"81 10 OFFCURVE",
"109 -7 OFFCURVE",
"144 -7 CURVE SMOOTH"
);
}
);
width = 286;
},
{
layerId = "2845A654-27C0-4D24-8E0C-7DAF9BC7668A";
paths = (
{
closed = 1;
nodes = (
"174 380 OFFCURVE",
"212 400 OFFCURVE",
"212 462 CURVE SMOOTH",
"212 524 OFFCURVE",
"174 544 OFFCURVE",
"132 544 CURVE SMOOTH",
"87 544 OFFCURVE",
"52 524 OFFCURVE",
"52 462 CURVE SMOOTH",
"52 400 OFFCURVE",
"87 380 OFFCURVE",
"132 380 CURVE SMOOTH"
);
},
{
closed = 1;
nodes = (
"174 -8 OFFCURVE",
"212 12 OFFCURVE",
"212 74 CURVE SMOOTH",
"212 136 OFFCURVE",
"174 156 OFFCURVE",
"132 156 CURVE SMOOTH",
"87 156 OFFCURVE",
"52 136 OFFCURVE",
"52 74 CURVE SMOOTH",
"52 12 OFFCURVE",
"87 -8 OFFCURVE",
"132 -8 CURVE SMOOTH"
);
}
);
width = 265;
},
{
layerId = "1DC75306-0750-4696-AEC7-032F44743549";
paths = (
{
closed = 1;
nodes = (
"108 430 OFFCURVE",
"122 439 OFFCURVE",
"122 469 CURVE SMOOTH",
"122 499 OFFCURVE",
"108 508 OFFCURVE",
"94 508 CURVE SMOOTH",
"77 508 OFFCURVE",
"64 499 OFFCURVE",
"64 469 CURVE SMOOTH",
"64 439 OFFCURVE",
"77 430 OFFCURVE",
"94 430 CURVE SMOOTH"
);
},
{
closed = 1;
nodes = (
"108 -5 OFFCURVE",
"122 4 OFFCURVE",
"122 34 CURVE SMOOTH",
"122 64 OFFCURVE",
"108 73 OFFCURVE",
"94 73 CURVE SMOOTH",
"77 73 OFFCURVE",
"64 64 OFFCURVE",
"64 34 CURVE SMOOTH",
"64 4 OFFCURVE",
"77 -5 OFFCURVE",
"94 -5 CURVE SMOOTH"
);
}
);
width = 186;
},
{
layerId = "37E1EBAF-DBB8-42B6-8B14-41DF5B276D12";
paths = (
{
closed = 1;
nodes = (
"126 433 OFFCURVE",
"139 442 OFFCURVE",
"139 473 CURVE SMOOTH",
"139 503 OFFCURVE",
"126 511 OFFCURVE",
"110 511 CURVE SMOOTH",
"95 511 OFFCURVE",
"81 503 OFFCURVE",
"81 473 CURVE SMOOTH",
"81 442 OFFCURVE",
"95 433 OFFCURVE",
"110 433 CURVE SMOOTH"
);
},
{
closed = 1;
nodes = (
"126 -5 OFFCURVE",
"139 4 OFFCURVE",
"139 35 CURVE SMOOTH",
"139 65 OFFCURVE",
"126 73 OFFCURVE",
"110 73 CURVE SMOOTH",
"95 73 OFFCURVE",
"81 65 OFFCURVE",
"81 35 CURVE SMOOTH",
"81 4 OFFCURVE",
"95 -5 OFFCURVE",
"110 -5 CURVE SMOOTH"
);
}
);
width = 224;
},
{
layerId = "BB318BD9-DEF5-4D27-998D-30B020A0DD4F";
paths = (
{
closed = 1;
nodes = (
"137 409 OFFCURVE",
"161 423 OFFCURVE",
"161 470 CURVE SMOOTH",
"161 517 OFFCURVE",
"137 531 OFFCURVE",
"110 531 CURVE SMOOTH",
"81 531 OFFCURVE",
"59 517 OFFCURVE",
"59 470 CURVE SMOOTH",
"59 423 OFFCURVE",
"81 409 OFFCURVE",
"110 409 CURVE SMOOTH"
);
},
{
closed = 1;
nodes = (
"137 -7 OFFCURVE",
"161 8 OFFCURVE",
"161 55 CURVE SMOOTH",
"161 102 OFFCURVE",
"137 117 OFFCURVE",
"110 117 CURVE SMOOTH",
"81 117 OFFCURVE",
"59 102 OFFCURVE",
"59 55 CURVE SMOOTH",
"59 8 OFFCURVE",
"81 -7 OFFCURVE",
"110 -7 CURVE SMOOTH"
);
}
);
width = 220;
}
);
leftKerningGroup = colon;
rightKerningGroup = colon;
unicode = 003A;
subCategory = Other;
},
{
glyphname = semicolon;
lastChange = "2016-11-17 19:08:58 +0000";
layers = (
{
layerId = "33F44B55-ADBD-4698-98EB-0F29A0B3A069";
paths = (
{
closed = 1;
nodes = (
"196 -119 OFFCURVE",
"248 -43 OFFCURVE",
"248 42 CURVE SMOOTH",
"248 119 OFFCURVE",
"218 169 OFFCURVE",
"151 169 CURVE SMOOTH",
"107 169 OFFCURVE",
"68 143 OFFCURVE",
"68 93 CURVE SMOOTH",
"68 -1 OFFCURVE",
"141 11 OFFCURVE",
"141 -25 CURVE",
"141 -63 OFFCURVE",
"111 -74 OFFCURVE",
"58 -95 CURVE",
"58 -154 LINE"
);
},
{
closed = 1;
nodes = (
"209 370 OFFCURVE",
"254 392 OFFCURVE",
"254 459 CURVE SMOOTH",
"254 527 OFFCURVE",
"209 548 OFFCURVE",
"158 548 CURVE SMOOTH",
"104 548 OFFCURVE",
"62 527 OFFCURVE",
"62 459 CURVE SMOOTH",
"62 392 OFFCURVE",
"104 370 OFFCURVE",
"158 370 CURVE SMOOTH"
);
}
);
width = 317;
},
{
layerId = "88BEB7F0-7448-46FF-842C-45A92B9492CE";
paths = (
{
closed = 1;
nodes = (
"167 -119 OFFCURVE",
"212 -43 OFFCURVE",
"212 42 CURVE SMOOTH",
"212 98 OFFCURVE",
"176 129 OFFCURVE",
"135 129 CURVE SMOOTH",
"98 129 OFFCURVE",
"70 108 OFFCURVE",
"70 70 CURVE SMOOTH",
"70 9 OFFCURVE",
"143 18 OFFCURVE",
"143 -22 CURVE",
"143 -61 OFFCURVE",
"113 -91 OFFCURVE",
"48 -112 CURVE",
"48 -154 LINE"
);
},
{
closed = 1;
nodes = (
"178 405 OFFCURVE",
"207 422 OFFCURVE",
"207 473 CURVE SMOOTH",
"207 525 OFFCURVE",
"178 541 OFFCURVE",
"144 541 CURVE SMOOTH",
"109 541 OFFCURVE",
"81 525 OFFCURVE",
"81 473 CURVE SMOOTH",
"81 422 OFFCURVE",
"109 405 OFFCURVE",
"144 405 CURVE SMOOTH"
);
}
);
width = 286;
},
{
layerId = "2845A654-27C0-4D24-8E0C-7DAF9BC7668A";
paths = (
{
closed = 1;
nodes = (
"164 -120 OFFCURVE",
"207 -45 OFFCURVE",
"207 38 CURVE SMOOTH",
"207 110 OFFCURVE",
"182 156 OFFCURVE",
"126 156 CURVE SMOOTH",
"89 156 OFFCURVE",
"57 131 OFFCURVE",
"57 86 CURVE SMOOTH",
"57 2 OFFCURVE",
"118 11 OFFCURVE",
"118 -25 CURVE SMOOTH",
"118 -63 OFFCURVE",
"93 -80 OFFCURVE",
"48 -100 CURVE",
"48 -154 LINE"
);
},
{
closed = 1;
nodes = (
"175 380 OFFCURVE",
"212 400 OFFCURVE",
"212 462 CURVE SMOOTH",
"212 524 OFFCURVE",
"175 544 OFFCURVE",
"132 544 CURVE SMOOTH",
"87 544 OFFCURVE",
"52 524 OFFCURVE",
"52 462 CURVE SMOOTH",
"52 400 OFFCURVE",
"87 380 OFFCURVE",
"132 380 CURVE SMOOTH"
);
}
);
width = 265;
},
{
layerId = "1DC75306-0750-4696-AEC7-032F44743549";
paths = (
{
closed = 1;
nodes = (
"105 -124 OFFCURVE",
"132 -58 OFFCURVE",
"132 0 CURVE SMOOTH",
"132 56 OFFCURVE",
"108 73 OFFCURVE",
"86 73 CURVE SMOOTH",
"69 73 OFFCURVE",
"56 62 OFFCURVE",
"56 47 CURVE SMOOTH",
"56 16 OFFCURVE",
"100 11 OFFCURVE",
"100 -26 CURVE SMOOTH",
"100 -61 OFFCURVE",
"81 -110 OFFCURVE",
"34 -128 CURVE",
"34 -154 LINE"
);
},
{
closed = 1;
nodes = (
"109 430 OFFCURVE",
"122 439 OFFCURVE",
"122 469 CURVE SMOOTH",
"122 499 OFFCURVE",
"109 508 OFFCURVE",
"94 508 CURVE SMOOTH",
"77 508 OFFCURVE",
"64 499 OFFCURVE",
"64 469 CURVE SMOOTH",
"64 439 OFFCURVE",
"77 430 OFFCURVE",
"94 430 CURVE SMOOTH"
);
}
);
width = 186;
},
{
layerId = "37E1EBAF-DBB8-42B6-8B14-41DF5B276D12";
paths = (
{
closed = 1;
nodes = (
"123 -127 OFFCURVE",
"154 -67 OFFCURVE",
"154 0 CURVE SMOOTH",
"154 52 OFFCURVE",
"130 73 OFFCURVE",
"103 73 CURVE SMOOTH",
"84 73 OFFCURVE",
"76 60 OFFCURVE",
"76 42 CURVE SMOOTH",
"76 17 OFFCURVE",
"123 4 OFFCURVE",
"123 -30 CURVE SMOOTH",
"123 -61 OFFCURVE",
"101 -115 OFFCURVE",
"42 -132 CURVE",
"42 -154 LINE"
);
},
{
closed = 1;
nodes = (
"126 433 OFFCURVE",
"139 442 OFFCURVE",
"139 473 CURVE SMOOTH",
"139 503 OFFCURVE",
"126 511 OFFCURVE",
"110 511 CURVE SMOOTH",
"95 511 OFFCURVE",
"81 503 OFFCURVE",
"81 473 CURVE SMOOTH",
"81 442 OFFCURVE",
"95 433 OFFCURVE",
"110 433 CURVE SMOOTH"
);
}
);
width = 224;
},
{
layerId = "BB318BD9-DEF5-4D27-998D-30B020A0DD4F";
paths = (
{
closed = 1;
nodes = (
"130 -122 OFFCURVE",
"164 -52 OFFCURVE",
"164 26 CURVE SMOOTH",
"164 84 OFFCURVE",
"140 117 OFFCURVE",
"103 117 CURVE SMOOTH",
"77 117 OFFCURVE",
"56 97 OFFCURVE",
"56 64 CURVE SMOOTH",
"56 10 OFFCURVE",
"108 11 OFFCURVE",
"108 -26 CURVE SMOOTH",
"108 -62 OFFCURVE",
"86 -97 OFFCURVE",
"39 -116 CURVE",
"39 -154 LINE"
);
},
{
closed = 1;
nodes = (
"138 409 OFFCURVE",
"161 423 OFFCURVE",
"161 470 CURVE SMOOTH",
"161 517 OFFCURVE",
"138 531 OFFCURVE",
"110 531 CURVE SMOOTH",
"81 531 OFFCURVE",
"59 517 OFFCURVE",
"59 470 CURVE SMOOTH",
"59 423 OFFCURVE",
"81 409 OFFCURVE",
"110 409 CURVE SMOOTH"
);
}
);
width = 220;
}
);
leftKerningGroup = colon;
rightKerningGroup = colon;
unicode = 003B;
subCategory = Other;
},
{
glyphname = question;
lastChange = "2016-11-17 19:08:58 +0000";
layers = (
{
layerId = "33F44B55-ADBD-4698-98EB-0F29A0B3A069";
paths = (
{
closed = 1;
nodes = (
"292 238 LINE",
"327 323 LINE",
"466 381 OFFCURVE",
"529 433 OFFCURVE",
"529 538 CURVE SMOOTH",
"529 655 OFFCURVE",
"427 724 OFFCURVE",
"265 724 CURVE SMOOTH",
"105 724 OFFCURVE",
"33 660 OFFCURVE",
"33 600 CURVE SMOOTH",
"33 534 OFFCURVE",
"93 516 OFFCURVE",
"200 516 CURVE",
"200 607 OFFCURVE",
"223 656 OFFCURVE",
"266 656 CURVE SMOOTH",
"305 656 OFFCURVE",
"328 613 OFFCURVE",
"328 553 CURVE SMOOTH",
"328 475 OFFCURVE",
"309 395 OFFCURVE",
"196 350 CURVE",
"231 238 LINE"
);
},
{
closed = 1;
nodes = (
"310 -9 OFFCURVE",
"355 13 OFFCURVE",
"355 80 CURVE SMOOTH",
"355 148 OFFCURVE",
"310 169 OFFCURVE",
"259 169 CURVE SMOOTH",
"205 169 OFFCURVE",
"163 148 OFFCURVE",
"163 80 CURVE SMOOTH",
"163 13 OFFCURVE",
"205 -9 OFFCURVE",
"259 -9 CURVE SMOOTH"
);
}
);
width = 587;
},
{
layerId = "88BEB7F0-7448-46FF-842C-45A92B9492CE";
paths = (
{
closed = 1;
nodes = (
"255 201 LINE",
"255 314 LINE",
"379 365 OFFCURVE",
"449 433 OFFCURVE",
"449 543 CURVE SMOOTH",
"449 657 OFFCURVE",
"356 724 OFFCURVE",
"230 724 CURVE SMOOTH",
"101 724 OFFCURVE",
"43 676 OFFCURVE",
"43 612 CURVE SMOOTH",
"43 569 OFFCURVE",
"78 547 OFFCURVE",
"126 547 CURVE",
"126 616 OFFCURVE",
"155 675 OFFCURVE",
"238 675 CURVE SMOOTH",
"315 675 OFFCURVE",
"347 629 OFFCURVE",
"347 560 CURVE SMOOTH",
"347 480 OFFCURVE",
"310 400 OFFCURVE",
"194 353 CURVE",
"194 201 LINE"
);
},
{
closed = 1;
nodes = (
"257 -7 OFFCURVE",
"286 10 OFFCURVE",
"286 61 CURVE SMOOTH",
"286 113 OFFCURVE",
"257 129 OFFCURVE",
"223 129 CURVE SMOOTH",
"188 129 OFFCURVE",
"160 113 OFFCURVE",
"160 61 CURVE SMOOTH",
"160 10 OFFCURVE",
"188 -7 OFFCURVE",
"223 -7 CURVE SMOOTH"
);
}
);
width = 500;
},
{
layerId = "2845A654-27C0-4D24-8E0C-7DAF9BC7668A";
paths = (
{
closed = 1;
nodes = (
"244 231 LINE",
"273 323 LINE",
"389 379 OFFCURVE",
"442 434 OFFCURVE",
"442 540 CURVE SMOOTH",
"442 656 OFFCURVE",
"356 724 OFFCURVE",
"221 724 CURVE SMOOTH",
"87 724 OFFCURVE",
"28 664 OFFCURVE",
"28 603 CURVE SMOOTH",
"28 543 OFFCURVE",
"78 525 OFFCURVE",
"167 525 CURVE",
"167 612 OFFCURVE",
"187 661 OFFCURVE",
"222 661 CURVE SMOOTH",
"254 661 OFFCURVE",
"273 615 OFFCURVE",
"273 552 CURVE SMOOTH",
"273 471 OFFCURVE",
"258 395 OFFCURVE",
"164 349 CURVE",
"193 231 LINE"
);
},
{
closed = 1;
nodes = (
"259 -8 OFFCURVE",
"296 12 OFFCURVE",
"296 74 CURVE SMOOTH",
"296 136 OFFCURVE",
"259 156 OFFCURVE",
"216 156 CURVE SMOOTH",
"171 156 OFFCURVE",
"136 136 OFFCURVE",
"136 74 CURVE SMOOTH",
"136 12 OFFCURVE",
"171 -8 OFFCURVE",
"216 -8 CURVE SMOOTH"
);
}
);
width = 490;
},
{
layerId = "1DC75306-0750-4696-AEC7-032F44743549";
paths = (
{
closed = 1;
nodes = (
"170 192 LINE",
"173 323 LINE",
"261 369 OFFCURVE",
"306 438 OFFCURVE",
"306 552 CURVE SMOOTH",
"306 664 OFFCURVE",
"250 724 OFFCURVE",
"167 724 CURVE SMOOTH",
"74 724 OFFCURVE",
"38 663 OFFCURVE",
"38 614 CURVE SMOOTH",
"38 585 OFFCURVE",
"49 574 OFFCURVE",
"59 574 CURVE",
"59 644 OFFCURVE",
"86 699 OFFCURVE",
"167 699 CURVE SMOOTH",
"240 699 OFFCURVE",
"278 642 OFFCURVE",
"278 550 CURVE SMOOTH",
"278 453 OFFCURVE",
"239 385 OFFCURVE",
"148 337 CURVE",
"150 192 LINE"
);
},
{
closed = 1;
nodes = (
"178 -5 OFFCURVE",
"192 4 OFFCURVE",
"192 34 CURVE SMOOTH",
"192 64 OFFCURVE",
"178 73 OFFCURVE",
"161 73 CURVE SMOOTH",
"146 73 OFFCURVE",
"133 64 OFFCURVE",
"133 34 CURVE SMOOTH",
"133 4 OFFCURVE",
"146 -5 OFFCURVE",
"161 -5 CURVE SMOOTH"
);
}
);
width = 352;
},
{
layerId = "37E1EBAF-DBB8-42B6-8B14-41DF5B276D12";
paths = (
{
closed = 1;
nodes = (
"228 201 LINE",
"232 324 LINE",
"344 377 OFFCURVE",
"391 441 OFFCURVE",
"391 551 CURVE SMOOTH",
"391 651 OFFCURVE",
"327 724 OFFCURVE",
"212 724 CURVE SMOOTH",
"85 724 OFFCURVE",
"48 656 OFFCURVE",
"48 618 CURVE SMOOTH",
"48 594 OFFCURVE",
"55 579 OFFCURVE",
"69 579 CURVE",
"69 639 OFFCURVE",
"95 699 OFFCURVE",
"214 699 CURVE SMOOTH",
"314 699 OFFCURVE",
"366 634 OFFCURVE",
"366 551 CURVE SMOOTH",
"366 448 OFFCURVE",
"316 389 OFFCURVE",
"204 337 CURVE",
"208 201 LINE"
);
},
{
closed = 1;
nodes = (
"233 -5 OFFCURVE",
"246 4 OFFCURVE",
"246 35 CURVE SMOOTH",
"246 65 OFFCURVE",
"233 73 OFFCURVE",
"217 73 CURVE SMOOTH",
"202 73 OFFCURVE",
"188 65 OFFCURVE",
"188 35 CURVE SMOOTH",
"188 4 OFFCURVE",
"202 -5 OFFCURVE",
"217 -5 CURVE SMOOTH"
);
}
);
width = 460;
},
{
layerId = "BB318BD9-DEF5-4D27-998D-30B020A0DD4F";
paths = (
{
closed = 1;
nodes = (
"203 209 LINE",
"217 323 LINE",
"317 373 OFFCURVE",
"365 436 OFFCURVE",
"365 547 CURVE SMOOTH",
"365 660 OFFCURVE",
"298 724 OFFCURVE",
"192 724 CURVE SMOOTH",
"90 724 OFFCURVE",
"34 674 OFFCURVE",
"34 612 CURVE SMOOTH",
"34 569 OFFCURVE",
"64 553 OFFCURVE",
"109 553 CURVE",
"109 627 OFFCURVE",
"130 676 OFFCURVE",
"191 676 CURVE SMOOTH",
"247 676 OFFCURVE",
"275 620 OFFCURVE",
"275 548 CURVE SMOOTH",
"275 461 OFFCURVE",
"246 394 OFFCURVE",
"155 346 CURVE",
"168 209 LINE"
);
},
{
closed = 1;
nodes = (
"214 -7 OFFCURVE",
"238 8 OFFCURVE",
"238 55 CURVE SMOOTH",
"238 102 OFFCURVE",
"214 117 OFFCURVE",
"185 117 CURVE SMOOTH",
"157 117 OFFCURVE",
"135 102 OFFCURVE",
"135 55 CURVE SMOOTH",
"135 8 OFFCURVE",
"157 -7 OFFCURVE",
"185 -7 CURVE SMOOTH"
);
}
);
width = 412;
}
);
leftKerningGroup = T;
unicode = 003F;
subCategory = Other;
},
{
glyphname = guillemotleft;
lastChange = "2016-11-17 19:08:58 +0000";
layers = (
{
layerId = "33F44B55-ADBD-4698-98EB-0F29A0B3A069";
paths = (
{
closed = 1;
nodes = (
"519 63 LINE",
"418 270 LINE",
"519 477 LINE",
"434 477 LINE",
"281 303 LINE",
"281 237 LINE",
"434 63 LINE"
);
},
{
closed = 1;
nodes = (
"303 63 LINE",
"202 270 LINE",
"303 477 LINE",
"218 477 LINE",
"65 303 LINE",
"65 237 LINE",
"218 63 LINE"
);
}
);
width = 583;
},
{
layerId = "88BEB7F0-7448-46FF-842C-45A92B9492CE";
paths = (
{
closed = 1;
nodes = (
"449 80 LINE",
"348 270 LINE",
"449 460 LINE",
"399 460 LINE",
"246 286 LINE",
"246 254 LINE",
"399 80 LINE"
);
},
{
closed = 1;
nodes = (
"268 80 LINE",
"167 270 LINE",
"268 460 LINE",
"218 460 LINE",
"65 286 LINE",
"65 254 LINE",
"218 80 LINE"
);
}
);
width = 514;
},
{
layerId = "2845A654-27C0-4D24-8E0C-7DAF9BC7668A";
paths = (
{
closed = 1;
nodes = (
"433 68 LINE",
"349 270 LINE",
"433 472 LINE",
"363 472 LINE",
"235 298 LINE",
"235 242 LINE",
"363 68 LINE"
);
},
{
closed = 1;
nodes = (
"252 68 LINE",
"168 270 LINE",
"252 472 LINE",
"181 472 LINE",
"53 298 LINE",
"53 242 LINE",
"181 68 LINE"
);
}
);
width = 486;
},
{
layerId = "1DC75306-0750-4696-AEC7-032F44743549";
paths = (
{
closed = 1;
nodes = (
"306 91 LINE",
"222 270 LINE",
"306 449 LINE",
"293 449 LINE",
"177 275 LINE",
"177 265 LINE",
"293 91 LINE"
);
},
{
closed = 1;
nodes = (
"192 91 LINE",
"107 270 LINE",
"192 449 LINE",
"178 449 LINE",
"63 275 LINE",
"63 265 LINE",
"178 91 LINE"
);
}
);
width = 359;
},
{
layerId = "37E1EBAF-DBB8-42B6-8B14-41DF5B276D12";
paths = (
{
closed = 1;
nodes = (
"388 92 LINE",
"265 270 LINE",
"388 448 LINE",
"364 448 LINE",
"231 274 LINE",
"231 266 LINE",
"364 92 LINE"
);
},
{
closed = 1;
nodes = (
"232 92 LINE",
"109 270 LINE",
"232 448 LINE",
"208 448 LINE",
"75 274 LINE",
"75 266 LINE",
"208 92 LINE"
);
}
);
width = 464;
},
{
layerId = "BB318BD9-DEF5-4D27-998D-30B020A0DD4F";
paths = (
{
closed = 1;
nodes = (
"345 81 LINE",
"261 270 LINE",
"345 459 LINE",
"307 459 LINE",
"185 285 LINE",
"185 255 LINE",
"307 81 LINE"
);
},
{
closed = 1;
nodes = (
"229 81 LINE",
"145 270 LINE",
"229 459 LINE",
"191 459 LINE",
"70 285 LINE",
"70 255 LINE",
"191 81 LINE"
);
}
);
width = 414;
}
);
leftKerningGroup = guilsinglleft;
rightKerningGroup = guilsinglleft;
unicode = 00AB;
subCategory = Quote;
},
{
glyphname = guillemotright;
lastChange = "2016-11-17 19:08:58 +0000";
layers = (
{
layerId = "33F44B55-ADBD-4698-98EB-0F29A0B3A069";
paths = (
{
closed = 1;
nodes = (
"366 63 LINE",
"519 237 LINE",
"519 303 LINE",
"366 477 LINE",
"281 477 LINE",
"382 270 LINE",
"281 63 LINE"
);
},
{
closed = 1;
nodes = (
"150 63 LINE",
"303 237 LINE",
"303 303 LINE",
"150 477 LINE",
"65 477 LINE",
"166 270 LINE",
"65 63 LINE"
);
}
);
width = 583;
},
{
layerId = "88BEB7F0-7448-46FF-842C-45A92B9492CE";
paths = (
{
closed = 1;
nodes = (
"296 80 LINE",
"449 254 LINE",
"449 286 LINE",
"296 460 LINE",
"246 460 LINE",
"347 270 LINE",
"246 80 LINE"
);
},
{
closed = 1;
nodes = (
"115 80 LINE",
"268 254 LINE",
"268 286 LINE",
"115 460 LINE",
"65 460 LINE",
"166 270 LINE",
"65 80 LINE"
);
}
);
width = 514;
},
{
layerId = "2845A654-27C0-4D24-8E0C-7DAF9BC7668A";
paths = (
{
closed = 1;
nodes = (
"306 68 LINE",
"433 242 LINE",
"433 298 LINE",
"306 472 LINE",
"235 472 LINE",
"319 270 LINE",
"235 68 LINE"
);
},
{
closed = 1;
nodes = (
"125 68 LINE",
"252 242 LINE",
"252 298 LINE",
"125 472 LINE",
"54 472 LINE",
"138 270 LINE",
"54 68 LINE"
);
}
);
width = 486;
},
{
layerId = "1DC75306-0750-4696-AEC7-032F44743549";
paths = (
{
closed = 1;
nodes = (
"188 91 LINE",
"304 265 LINE",
"304 275 LINE",
"188 449 LINE",
"175 449 LINE",
"259 270 LINE",
"175 91 LINE"
);
},
{
closed = 1;
nodes = (
"67 91 LINE",
"182 265 LINE",
"182 275 LINE",
"67 449 LINE",
"53 449 LINE",
"138 270 LINE",
"53 91 LINE"
);
}
);
width = 359;
},
{
layerId = "37E1EBAF-DBB8-42B6-8B14-41DF5B276D12";
paths = (
{
closed = 1;
nodes = (
"255 92 LINE",
"388 266 LINE",
"388 274 LINE",
"255 448 LINE",
"231 448 LINE",
"354 270 LINE",
"231 92 LINE"
);
},
{
closed = 1;
nodes = (
"99 92 LINE",
"232 266 LINE",
"232 274 LINE",
"99 448 LINE",
"75 448 LINE",
"198 270 LINE",
"75 92 LINE"
);
}
);
width = 464;
},
{
layerId = "BB318BD9-DEF5-4D27-998D-30B020A0DD4F";
paths = (
{
closed = 1;
nodes = (
"240 81 LINE",
"361 255 LINE",
"361 285 LINE",
"240 459 LINE",
"201 459 LINE",
"285 270 LINE",
"201 81 LINE"
);
},
{
closed = 1;
nodes = (
"92 81 LINE",
"213 255 LINE",
"213 285 LINE",
"92 459 LINE",
"53 459 LINE",
"138 270 LINE",
"53 81 LINE"
);
}
);
width = 414;
}
);
leftKerningGroup = guilsinglright;
rightKerningGroup = guilsinglright;
unicode = 00BB;
subCategory = Quote;
},
{
glyphname = quoteleft;
lastChange = "2016-11-17 19:08:58 +0000";
layers = (
{
layerId = "33F44B55-ADBD-4698-98EB-0F29A0B3A069";
paths = (
{
closed = 1;
nodes = (
"203 390 OFFCURVE",
"236 417 OFFCURVE",
"236 467 CURVE SMOOTH",
"236 561 OFFCURVE",
"163 548 OFFCURVE",
"163 585 CURVE",
"163 624 OFFCURVE",
"193 633 OFFCURVE",
"246 654 CURVE",
"246 713 LINE",
"108 678 OFFCURVE",
"56 602 OFFCURVE",
"56 517 CURVE SMOOTH",
"56 440 OFFCURVE",
"92 390 OFFCURVE",
"159 390 CURVE SMOOTH"
);
}
);
width = 302;
},
{
layerId = "88BEB7F0-7448-46FF-842C-45A92B9492CE";
paths = (
{
closed = 1;
nodes = (
"170 432 OFFCURVE",
"198 453 OFFCURVE",
"198 491 CURVE SMOOTH",
"198 552 OFFCURVE",
"125 543 OFFCURVE",
"125 583 CURVE",
"125 622 OFFCURVE",
"155 652 OFFCURVE",
"220 673 CURVE",
"220 715 LINE",
"101 680 OFFCURVE",
"56 604 OFFCURVE",
"56 519 CURVE SMOOTH",
"56 463 OFFCURVE",
"92 432 OFFCURVE",
"133 432 CURVE SMOOTH"
);
}
);
width = 250;
},
{
layerId = "2845A654-27C0-4D24-8E0C-7DAF9BC7668A";
paths = (
{
closed = 1;
nodes = (
"169 401 OFFCURVE",
"197 427 OFFCURVE",
"197 474 CURVE SMOOTH",
"197 559 OFFCURVE",
"136 547 OFFCURVE",
"136 584 CURVE",
"136 623 OFFCURVE",
"161 638 OFFCURVE",
"205 659 CURVE",
"205 714 LINE",
"90 679 OFFCURVE",
"46 603 OFFCURVE",
"46 518 CURVE SMOOTH",
"46 446 OFFCURVE",
"76 401 OFFCURVE",
"132 401 CURVE SMOOTH"
);
}
);
width = 252;
},
{
layerId = "1DC75306-0750-4696-AEC7-032F44743549";
paths = (
{
closed = 1;
nodes = (
"117 462 OFFCURVE",
"127 476 OFFCURVE",
"127 489 CURVE SMOOTH",
"127 526 OFFCURVE",
"82 524 OFFCURVE",
"82 583 CURVE SMOOTH",
"82 618 OFFCURVE",
"96 659 OFFCURVE",
"156 688 CURVE",
"156 717 LINE",
"73 675 OFFCURVE",
"50 627 OFFCURVE",
"50 550 CURVE SMOOTH",
"50 500 OFFCURVE",
"67 462 OFFCURVE",
"97 462 CURVE SMOOTH"
);
}
);
width = 168;
},
{
layerId = "37E1EBAF-DBB8-42B6-8B14-41DF5B276D12";
paths = (
{
closed = 1;
nodes = (
"123 480 OFFCURVE",
"133 495 OFFCURVE",
"133 509 CURVE SMOOTH",
"133 540 OFFCURVE",
"85 547 OFFCURVE",
"85 584 CURVE SMOOTH",
"85 612 OFFCURVE",
"113 677 OFFCURVE",
"172 694 CURVE",
"172 714 LINE",
"90 689 OFFCURVE",
"55 620 OFFCURVE",
"55 553 CURVE SMOOTH",
"55 501 OFFCURVE",
"77 480 OFFCURVE",
"104 480 CURVE SMOOTH"
);
}
);
width = 212;
},
{
layerId = "BB318BD9-DEF5-4D27-998D-30B020A0DD4F";
paths = (
{
closed = 1;
nodes = (
"138 435 OFFCURVE",
"161 455 OFFCURVE",
"161 493 CURVE SMOOTH",
"161 552 OFFCURVE",
"103 543 OFFCURVE",
"103 583 CURVE",
"103 622 OFFCURVE",
"127 653 OFFCURVE",
"177 674 CURVE",
"177 715 LINE",
"81 680 OFFCURVE",
"44 604 OFFCURVE",
"44 519 CURVE SMOOTH",
"44 464 OFFCURVE",
"72 435 OFFCURVE",
"108 435 CURVE SMOOTH"
);
}
);
width = 205;
}
);
leftKerningGroup = quoteleft;
rightKerningGroup = quoteleft;
unicode = 2018;
subCategory = Quote;
},
{
glyphname = quoteright;
lastChange = "2016-11-17 19:08:58 +0000";
layers = (
{
layerId = "33F44B55-ADBD-4698-98EB-0F29A0B3A069";
paths = (
{
closed = 1;
nodes = (
"194 426 OFFCURVE",
"246 502 OFFCURVE",
"246 587 CURVE SMOOTH",
"246 664 OFFCURVE",
"210 714 OFFCURVE",
"143 714 CURVE SMOOTH",
"99 714 OFFCURVE",
"66 688 OFFCURVE",
"66 638 CURVE SMOOTH",
"66 544 OFFCURVE",
"139 556 OFFCURVE",
"139 520 CURVE",
"139 481 OFFCURVE",
"109 471 OFFCURVE",
"56 450 CURVE",
"56 391 LINE"
);
}
);
width = 302;
},
{
layerId = "88BEB7F0-7448-46FF-842C-45A92B9492CE";
paths = (
{
closed = 1;
nodes = (
"149 466 OFFCURVE",
"194 542 OFFCURVE",
"194 627 CURVE SMOOTH",
"194 683 OFFCURVE",
"158 714 OFFCURVE",
"117 714 CURVE SMOOTH",
"80 714 OFFCURVE",
"52 693 OFFCURVE",
"52 655 CURVE SMOOTH",
"52 594 OFFCURVE",
"125 603 OFFCURVE",
"125 563 CURVE",
"125 524 OFFCURVE",
"95 494 OFFCURVE",
"30 473 CURVE",
"30 431 LINE"
);
}
);
width = 250;
},
{
layerId = "2845A654-27C0-4D24-8E0C-7DAF9BC7668A";
paths = (
{
closed = 1;
nodes = (
"162 437 OFFCURVE",
"205 513 OFFCURVE",
"205 598 CURVE SMOOTH",
"205 669 OFFCURVE",
"175 714 OFFCURVE",
"119 714 CURVE SMOOTH",
"83 714 OFFCURVE",
"55 689 OFFCURVE",
"55 643 CURVE SMOOTH",
"55 557 OFFCURVE",
"116 569 OFFCURVE",
"116 532 CURVE",
"116 493 OFFCURVE",
"91 477 OFFCURVE",
"47 456 CURVE",
"47 402 LINE"
);
}
);
width = 252;
},
{
layerId = "1DC75306-0750-4696-AEC7-032F44743549";
paths = (
{
closed = 1;
nodes = (
"95 501 OFFCURVE",
"118 549 OFFCURVE",
"118 626 CURVE SMOOTH",
"118 676 OFFCURVE",
"101 714 OFFCURVE",
"71 714 CURVE SMOOTH",
"51 714 OFFCURVE",
"41 700 OFFCURVE",
"41 687 CURVE SMOOTH",
"41 650 OFFCURVE",
"86 652 OFFCURVE",
"86 593 CURVE SMOOTH",
"86 558 OFFCURVE",
"72 517 OFFCURVE",
"12 488 CURVE",
"12 462 LINE"
);
}
);
width = 168;
},
{
layerId = "37E1EBAF-DBB8-42B6-8B14-41DF5B276D12";
paths = (
{
closed = 1;
nodes = (
"121 505 OFFCURVE",
"156 574 OFFCURVE",
"156 641 CURVE SMOOTH",
"156 693 OFFCURVE",
"134 714 OFFCURVE",
"107 714 CURVE SMOOTH",
"88 714 OFFCURVE",
"78 699 OFFCURVE",
"78 685 CURVE SMOOTH",
"78 654 OFFCURVE",
"126 647 OFFCURVE",
"126 610 CURVE SMOOTH",
"126 582 OFFCURVE",
"98 517 OFFCURVE",
"39 500 CURVE",
"39 480 LINE"
);
}
);
width = 212;
},
{
layerId = "BB318BD9-DEF5-4D27-998D-30B020A0DD4F";
paths = (
{
closed = 1;
nodes = (
"123 469 OFFCURVE",
"160 545 OFFCURVE",
"160 630 CURVE SMOOTH",
"160 684 OFFCURVE",
"132 714 OFFCURVE",
"96 714 CURVE SMOOTH",
"66 714 OFFCURVE",
"43 693 OFFCURVE",
"43 656 CURVE SMOOTH",
"43 596 OFFCURVE",
"101 606 OFFCURVE",
"101 566 CURVE",
"101 527 OFFCURVE",
"76 495 OFFCURVE",
"27 474 CURVE",
"27 434 LINE"
);
}
);
width = 205;
}
);
leftKerningGroup = quoteright;
rightKerningGroup = quoteright;
unicode = 2019;
subCategory = Quote;
},
{
glyphname = quotedblleft;
lastChange = "2016-11-17 19:08:58 +0000";
layers = (
{
layerId = "33F44B55-ADBD-4698-98EB-0F29A0B3A069";
paths = (
{
closed = 1;
nodes = (
"419 390 OFFCURVE",
"452 417 OFFCURVE",
"452 467 CURVE SMOOTH",
"452 561 OFFCURVE",
"379 548 OFFCURVE",
"379 585 CURVE",
"379 624 OFFCURVE",
"409 633 OFFCURVE",
"462 654 CURVE",
"462 713 LINE",
"324 678 OFFCURVE",
"272 602 OFFCURVE",
"272 517 CURVE SMOOTH",
"272 440 OFFCURVE",
"308 390 OFFCURVE",
"375 390 CURVE SMOOTH"
);
},
{
closed = 1;
nodes = (
"203 390 OFFCURVE",
"236 417 OFFCURVE",
"236 467 CURVE SMOOTH",
"236 561 OFFCURVE",
"163 548 OFFCURVE",
"163 585 CURVE",
"163 624 OFFCURVE",
"193 633 OFFCURVE",
"246 654 CURVE",
"246 713 LINE",
"108 678 OFFCURVE",
"56 602 OFFCURVE",
"56 517 CURVE SMOOTH",
"56 440 OFFCURVE",
"92 390 OFFCURVE",
"159 390 CURVE SMOOTH"
);
}
);
width = 518;
},
{
layerId = "88BEB7F0-7448-46FF-842C-45A92B9492CE";
paths = (
{
closed = 1;
nodes = (
"370 432 OFFCURVE",
"398 453 OFFCURVE",
"398 491 CURVE SMOOTH",
"398 552 OFFCURVE",
"325 543 OFFCURVE",
"325 583 CURVE",
"325 622 OFFCURVE",
"355 652 OFFCURVE",
"420 673 CURVE",
"420 715 LINE",
"301 680 OFFCURVE",
"256 604 OFFCURVE",
"256 519 CURVE SMOOTH",
"256 463 OFFCURVE",
"292 432 OFFCURVE",
"333 432 CURVE SMOOTH"
);
},
{
closed = 1;
nodes = (
"170 432 OFFCURVE",
"198 453 OFFCURVE",
"198 491 CURVE SMOOTH",
"198 552 OFFCURVE",
"125 543 OFFCURVE",
"125 583 CURVE",
"125 622 OFFCURVE",
"155 652 OFFCURVE",
"220 673 CURVE",
"220 715 LINE",
"101 680 OFFCURVE",
"56 604 OFFCURVE",
"56 519 CURVE SMOOTH",
"56 463 OFFCURVE",
"92 432 OFFCURVE",
"133 432 CURVE SMOOTH"
);
}
);
width = 450;
},
{
layerId = "2845A654-27C0-4D24-8E0C-7DAF9BC7668A";
paths = (
{
closed = 1;
nodes = (
"351 401 OFFCURVE",
"378 427 OFFCURVE",
"378 474 CURVE SMOOTH",
"378 559 OFFCURVE",
"317 547 OFFCURVE",
"317 584 CURVE",
"317 623 OFFCURVE",
"342 638 OFFCURVE",
"387 659 CURVE",
"387 714 LINE",
"271 679 OFFCURVE",
"228 603 OFFCURVE",
"228 518 CURVE SMOOTH",
"228 446 OFFCURVE",
"258 401 OFFCURVE",
"314 401 CURVE SMOOTH"
);
},
{
closed = 1;
nodes = (
"169 401 OFFCURVE",
"197 427 OFFCURVE",
"197 474 CURVE SMOOTH",
"197 559 OFFCURVE",
"136 547 OFFCURVE",
"136 584 CURVE",
"136 623 OFFCURVE",
"161 638 OFFCURVE",
"205 659 CURVE",
"205 714 LINE",
"90 679 OFFCURVE",
"46 603 OFFCURVE",
"46 518 CURVE SMOOTH",
"46 446 OFFCURVE",
"76 401 OFFCURVE",
"132 401 CURVE SMOOTH"
);
}
);
width = 432;
},
{
layerId = "1DC75306-0750-4696-AEC7-032F44743549";
paths = (
{
closed = 1;
nodes = (
"233 462 OFFCURVE",
"243 476 OFFCURVE",
"243 489 CURVE SMOOTH",
"243 526 OFFCURVE",
"198 524 OFFCURVE",
"198 583 CURVE SMOOTH",
"198 618 OFFCURVE",
"212 659 OFFCURVE",
"272 688 CURVE",
"272 717 LINE",
"189 675 OFFCURVE",
"166 627 OFFCURVE",
"166 550 CURVE SMOOTH",
"166 500 OFFCURVE",
"183 462 OFFCURVE",
"213 462 CURVE SMOOTH"
);
},
{
closed = 1;
nodes = (
"138 462 OFFCURVE",
"148 476 OFFCURVE",
"148 489 CURVE SMOOTH",
"148 526 OFFCURVE",
"103 524 OFFCURVE",
"103 583 CURVE SMOOTH",
"103 618 OFFCURVE",
"117 659 OFFCURVE",
"177 688 CURVE",
"177 717 LINE",
"94 675 OFFCURVE",
"71 627 OFFCURVE",
"71 550 CURVE SMOOTH",
"71 500 OFFCURVE",
"88 462 OFFCURVE",
"118 462 CURVE SMOOTH"
);
}
);
width = 312;
},
{
layerId = "37E1EBAF-DBB8-42B6-8B14-41DF5B276D12";
paths = (
{
closed = 1;
nodes = (
"277 480 OFFCURVE",
"287 495 OFFCURVE",
"287 509 CURVE SMOOTH",
"287 540 OFFCURVE",
"239 547 OFFCURVE",
"239 584 CURVE SMOOTH",
"239 612 OFFCURVE",
"267 677 OFFCURVE",
"326 694 CURVE",
"326 714 LINE",
"244 689 OFFCURVE",
"209 620 OFFCURVE",
"209 553 CURVE SMOOTH",
"209 501 OFFCURVE",
"231 480 OFFCURVE",
"258 480 CURVE SMOOTH"
);
},
{
closed = 1;
nodes = (
"122 480 OFFCURVE",
"132 495 OFFCURVE",
"132 509 CURVE SMOOTH",
"132 540 OFFCURVE",
"84 547 OFFCURVE",
"84 584 CURVE SMOOTH",
"84 612 OFFCURVE",
"112 677 OFFCURVE",
"171 694 CURVE",
"171 714 LINE",
"89 689 OFFCURVE",
"54 620 OFFCURVE",
"54 553 CURVE SMOOTH",
"54 501 OFFCURVE",
"76 480 OFFCURVE",
"103 480 CURVE SMOOTH"
);
}
);
width = 367;
},
{
layerId = "BB318BD9-DEF5-4D27-998D-30B020A0DD4F";
paths = (
{
closed = 1;
nodes = (
"283 435 OFFCURVE",
"306 455 OFFCURVE",
"306 493 CURVE SMOOTH",
"306 552 OFFCURVE",
"248 543 OFFCURVE",
"248 583 CURVE",
"248 622 OFFCURVE",
"272 653 OFFCURVE",
"322 674 CURVE",
"322 715 LINE",
"225 680 OFFCURVE",
"189 604 OFFCURVE",
"189 519 CURVE SMOOTH",
"189 464 OFFCURVE",
"217 435 OFFCURVE",
"253 435 CURVE SMOOTH"
);
},
{
closed = 1;
nodes = (
"154 435 OFFCURVE",
"177 455 OFFCURVE",
"177 493 CURVE SMOOTH",
"177 552 OFFCURVE",
"119 543 OFFCURVE",
"119 583 CURVE",
"119 622 OFFCURVE",
"143 653 OFFCURVE",
"193 674 CURVE",
"193 715 LINE",
"97 680 OFFCURVE",
"60 604 OFFCURVE",
"60 519 CURVE SMOOTH",
"60 464 OFFCURVE",
"88 435 OFFCURVE",
"125 435 CURVE SMOOTH"
);
}
);
width = 364;
}
);
leftKerningGroup = quoteleft;
rightKerningGroup = quoteleft;
unicode = 201C;
subCategory = Quote;
},
{
glyphname = quotedblright;
lastChange = "2016-11-17 19:08:58 +0000";
layers = (
{
layerId = "33F44B55-ADBD-4698-98EB-0F29A0B3A069";
paths = (
{
closed = 1;
nodes = (
"410 426 OFFCURVE",
"462 502 OFFCURVE",
"462 587 CURVE SMOOTH",
"462 664 OFFCURVE",
"426 714 OFFCURVE",
"359 714 CURVE SMOOTH",
"315 714 OFFCURVE",
"282 688 OFFCURVE",
"282 638 CURVE SMOOTH",
"282 544 OFFCURVE",
"355 556 OFFCURVE",
"355 520 CURVE",
"355 481 OFFCURVE",
"325 471 OFFCURVE",
"272 450 CURVE",
"272 391 LINE"
);
},
{
closed = 1;
nodes = (
"194 426 OFFCURVE",
"246 502 OFFCURVE",
"246 587 CURVE SMOOTH",
"246 664 OFFCURVE",
"210 714 OFFCURVE",
"143 714 CURVE SMOOTH",
"99 714 OFFCURVE",
"66 688 OFFCURVE",
"66 638 CURVE SMOOTH",
"66 544 OFFCURVE",
"139 556 OFFCURVE",
"139 520 CURVE",
"139 481 OFFCURVE",
"109 471 OFFCURVE",
"56 450 CURVE",
"56 391 LINE"
);
}
);
width = 518;
},
{
layerId = "88BEB7F0-7448-46FF-842C-45A92B9492CE";
paths = (
{
closed = 1;
nodes = (
"349 466 OFFCURVE",
"394 542 OFFCURVE",
"394 627 CURVE SMOOTH",
"394 683 OFFCURVE",
"358 714 OFFCURVE",
"317 714 CURVE SMOOTH",
"280 714 OFFCURVE",
"252 693 OFFCURVE",
"252 655 CURVE SMOOTH",
"252 594 OFFCURVE",
"325 603 OFFCURVE",
"325 563 CURVE",
"325 524 OFFCURVE",
"295 494 OFFCURVE",
"230 473 CURVE",
"230 431 LINE"
);
},
{
closed = 1;
nodes = (
"149 466 OFFCURVE",
"194 542 OFFCURVE",
"194 627 CURVE SMOOTH",
"194 683 OFFCURVE",
"158 714 OFFCURVE",
"117 714 CURVE SMOOTH",
"80 714 OFFCURVE",
"52 693 OFFCURVE",
"52 655 CURVE SMOOTH",
"52 594 OFFCURVE",
"125 603 OFFCURVE",
"125 563 CURVE",
"125 524 OFFCURVE",
"95 494 OFFCURVE",
"30 473 CURVE",
"30 431 LINE"
);
}
);
width = 450;
},
{
layerId = "2845A654-27C0-4D24-8E0C-7DAF9BC7668A";
paths = (
{
closed = 1;
nodes = (
"343 437 OFFCURVE",
"387 513 OFFCURVE",
"387 598 CURVE SMOOTH",
"387 669 OFFCURVE",
"356 714 OFFCURVE",
"301 714 CURVE SMOOTH",
"264 714 OFFCURVE",
"236 689 OFFCURVE",
"236 643 CURVE SMOOTH",
"236 557 OFFCURVE",
"297 569 OFFCURVE",
"297 532 CURVE",
"297 493 OFFCURVE",
"272 477 OFFCURVE",
"228 456 CURVE",
"228 402 LINE"
);
},
{
closed = 1;
nodes = (
"162 437 OFFCURVE",
"205 513 OFFCURVE",
"205 598 CURVE SMOOTH",
"205 669 OFFCURVE",
"175 714 OFFCURVE",
"119 714 CURVE SMOOTH",
"82 714 OFFCURVE",
"55 689 OFFCURVE",
"55 643 CURVE SMOOTH",
"55 557 OFFCURVE",
"116 569 OFFCURVE",
"116 532 CURVE",
"116 493 OFFCURVE",
"91 477 OFFCURVE",
"46 456 CURVE",
"46 402 LINE"
);
}
);
width = 432;
},
{
layerId = "1DC75306-0750-4696-AEC7-032F44743549";
paths = (
{
closed = 1;
nodes = (
"218 501 OFFCURVE",
"241 549 OFFCURVE",
"241 626 CURVE SMOOTH",
"241 676 OFFCURVE",
"224 714 OFFCURVE",
"194 714 CURVE SMOOTH",
"174 714 OFFCURVE",
"164 700 OFFCURVE",
"164 687 CURVE SMOOTH",
"164 650 OFFCURVE",
"209 652 OFFCURVE",
"209 593 CURVE SMOOTH",
"209 558 OFFCURVE",
"195 517 OFFCURVE",
"135 488 CURVE",
"135 462 LINE"
);
},
{
closed = 1;
nodes = (
"124 501 OFFCURVE",
"147 549 OFFCURVE",
"147 626 CURVE SMOOTH",
"147 676 OFFCURVE",
"130 714 OFFCURVE",
"100 714 CURVE SMOOTH",
"80 714 OFFCURVE",
"70 700 OFFCURVE",
"70 687 CURVE SMOOTH",
"70 650 OFFCURVE",
"115 652 OFFCURVE",
"115 593 CURVE SMOOTH",
"115 558 OFFCURVE",
"101 517 OFFCURVE",
"41 488 CURVE",
"41 462 LINE"
);
}
);
width = 312;
},
{
layerId = "37E1EBAF-DBB8-42B6-8B14-41DF5B276D12";
paths = (
{
closed = 1;
nodes = (
"273 505 OFFCURVE",
"308 574 OFFCURVE",
"308 641 CURVE SMOOTH",
"308 693 OFFCURVE",
"286 714 OFFCURVE",
"259 714 CURVE SMOOTH",
"240 714 OFFCURVE",
"230 699 OFFCURVE",
"230 685 CURVE SMOOTH",
"230 654 OFFCURVE",
"278 647 OFFCURVE",
"278 610 CURVE SMOOTH",
"278 582 OFFCURVE",
"250 517 OFFCURVE",
"191 500 CURVE",
"191 480 LINE"
);
},
{
closed = 1;
nodes = (
"118 505 OFFCURVE",
"153 574 OFFCURVE",
"153 641 CURVE SMOOTH",
"153 693 OFFCURVE",
"131 714 OFFCURVE",
"104 714 CURVE SMOOTH",
"85 714 OFFCURVE",
"75 699 OFFCURVE",
"75 685 CURVE SMOOTH",
"75 654 OFFCURVE",
"123 647 OFFCURVE",
"123 610 CURVE SMOOTH",
"123 582 OFFCURVE",
"95 517 OFFCURVE",
"36 500 CURVE",
"36 480 LINE"
);
}
);
width = 367;
},
{
layerId = "BB318BD9-DEF5-4D27-998D-30B020A0DD4F";
paths = (
{
closed = 1;
nodes = (
"268 469 OFFCURVE",
"304 545 OFFCURVE",
"304 630 CURVE SMOOTH",
"304 684 OFFCURVE",
"276 714 OFFCURVE",
"240 714 CURVE SMOOTH",
"211 714 OFFCURVE",
"188 693 OFFCURVE",
"188 656 CURVE SMOOTH",
"188 596 OFFCURVE",
"245 606 OFFCURVE",
"245 566 CURVE",
"245 527 OFFCURVE",
"222 495 OFFCURVE",
"171 474 CURVE",
"171 434 LINE"
);
},
{
closed = 1;
nodes = (
"140 469 OFFCURVE",
"177 545 OFFCURVE",
"177 630 CURVE SMOOTH",
"177 684 OFFCURVE",
"148 714 OFFCURVE",
"112 714 CURVE SMOOTH",
"82 714 OFFCURVE",
"59 693 OFFCURVE",
"59 656 CURVE SMOOTH",
"59 596 OFFCURVE",
"117 606 OFFCURVE",
"117 566 CURVE",
"117 527 OFFCURVE",
"93 495 OFFCURVE",
"43 474 CURVE",
"43 434 LINE"
);
}
);
width = 364;
}
);
leftKerningGroup = quoteright;
rightKerningGroup = quoteright;
unicode = 201D;
subCategory = Quote;
},
{
glyphname = uni1780;
lastChange = "2016-11-17 19:08:58 +0000";
layers = (
{
anchors = (
{
name = abvm;
position = "{320, 760}";
},
{
name = abvm_high;
position = "{320, 728}";
},
{
name = blwm;
position = "{309, 0}";
}
);
layerId = "37E1EBAF-DBB8-42B6-8B14-41DF5B276D12";
paths = (
{
closed = 1;
nodes = (
"498 398 OFFCURVE",
"413 459 OFFCURVE",
"309 459 CURVE SMOOTH",
"205 459 OFFCURVE",
"119 400 OFFCURVE",
"119 316 CURVE SMOOTH",
"119 0 LINE",
"145 0 LINE",
"145 321 LINE SMOOTH",
"145 381 OFFCURVE",
"217 433 OFFCURVE",
"309 433 CURVE SMOOTH",
"401 433 OFFCURVE",
"472 380 OFFCURVE",
"472 321 CURVE SMOOTH",
"472 0 LINE",
"498 0 LINE",
"498 316 LINE SMOOTH"
);
},
{
closed = 1;
nodes = (
"96 546 OFFCURVE",
"87 558 OFFCURVE",
"87 569 CURVE SMOOTH",
"87 581 OFFCURVE",
"98 594 OFFCURVE",
"127 619 CURVE SMOOTH",
"157 645 OFFCURVE",
"176 657 OFFCURVE",
"185 657 CURVE SMOOTH",
"195 657 OFFCURVE",
"212 638 OFFCURVE",
"233 615 CURVE SMOOTH",
"271 573 OFFCURVE",
"286 565 OFFCURVE",
"302 565 CURVE SMOOTH",
"325 565 OFFCURVE",
"347 582 OFFCURVE",
"363 595 CURVE SMOOTH",
"404 628 OFFCURVE",
"424 657 OFFCURVE",
"433 657 CURVE SMOOTH",
"448 657 OFFCURVE",
"517 544 OFFCURVE",
"549 544 CURVE SMOOTH",
"558 544 OFFCURVE",
"565 554 OFFCURVE",
"565 571 CURVE",
"546 571 OFFCURVE",
"533 583 OFFCURVE",
"515 605 CURVE SMOOTH",
"477 651 LINE SMOOTH",
"459 672 OFFCURVE",
"445 683 OFFCURVE",
"434 683 CURVE SMOOTH",
"417 683 OFFCURVE",
"390 652 OFFCURVE",
"357 624 CURVE SMOOTH",
"328 600 OFFCURVE",
"310 591 OFFCURVE",
"303 591 CURVE SMOOTH",
"294 591 OFFCURVE",
"277 608 OFFCURVE",
"249 636 CURVE SMOOTH",
"213 672 OFFCURVE",
"203 683 OFFCURVE",
"185 683 CURVE SMOOTH",
"167 683 OFFCURVE",
"148 671 OFFCURVE",
"112 639 CURVE SMOOTH",
"66 599 OFFCURVE",
"60 580 OFFCURVE",
"60 568 CURVE SMOOTH",
"60 556 OFFCURVE",
"68 538 OFFCURVE",
"120 481 CURVE",
"140 497 LINE"
);
}
);
width = 629;
},
{
anchors = (
{
name = abvm;
position = "{308, 760}";
},
{
name = abvm_high;
position = "{308, 728}";
},
{
name = blwm;
position = "{308, 0}";
}
);
guideLines = (
{
position = "{163, 555}";
}
);
layerId = "2845A654-27C0-4D24-8E0C-7DAF9BC7668A";
paths = (
{
closed = 1;
nodes = (
"530 398 OFFCURVE",
"427 459 OFFCURVE",
"308 459 CURVE SMOOTH",
"192 459 OFFCURVE",
"85 400 OFFCURVE",
"85 336 CURVE SMOOTH",
"85 0 LINE",
"235 0 LINE",
"235 281 LINE SMOOTH",
"235 336 OFFCURVE",
"257 357 OFFCURVE",
"308 357 CURVE SMOOTH",
"356 357 OFFCURVE",
"380 339 OFFCURVE",
"380 281 CURVE SMOOTH",
"380 0 LINE",
"530 0 LINE",
"530 336 LINE SMOOTH"
);
},
{
closed = 1;
nodes = (
"154 515 OFFCURVE",
"139 530 OFFCURVE",
"139 538 CURVE SMOOTH",
"139 543 OFFCURVE",
"143 548 OFFCURVE",
"146 551 CURVE SMOOTH",
"149 554 OFFCURVE",
"154 558 OFFCURVE",
"160 558 CURVE SMOOTH",
"164 558 OFFCURVE",
"167 555 OFFCURVE",
"187 537 CURVE SMOOTH",
"218 509 OFFCURVE",
"241 493 OFFCURVE",
"275 493 CURVE SMOOTH",
"304 493 OFFCURVE",
"327 504 OFFCURVE",
"351 522 CURVE SMOOTH",
"371 537 OFFCURVE",
"387 547 OFFCURVE",
"389 547 CURVE SMOOTH",
"407 547 OFFCURVE",
"435 491 OFFCURVE",
"487 491 CURVE SMOOTH",
"515 491 OFFCURVE",
"563 507 OFFCURVE",
"570 586 CURVE",
"535 581 OFFCURVE",
"512 595 OFFCURVE",
"493 616 CURVE SMOOTH",
"467 646 LINE SMOOTH",
"440 678 OFFCURVE",
"426 685 OFFCURVE",
"416 685 CURVE SMOOTH",
"404 685 OFFCURVE",
"381 664 OFFCURVE",
"349 632 CURVE SMOOTH",
"319 602 OFFCURVE",
"309 592 OFFCURVE",
"299 592 CURVE SMOOTH",
"292 592 OFFCURVE",
"283 601 OFFCURVE",
"246 640 CURVE SMOOTH",
"214 674 OFFCURVE",
"198 686 OFFCURVE",
"185 686 CURVE SMOOTH",
"171 686 OFFCURVE",
"144 672 OFFCURVE",
"102 632 CURVE SMOOTH",
"44 577 OFFCURVE",
"40 545 OFFCURVE",
"40 524 CURVE SMOOTH",
"40 481 OFFCURVE",
"58 454 OFFCURVE",
"92 424 CURVE",
"184 484 LINE"
);
}
);
width = 630;
},
{
anchors = (
{
name = abvm;
position = "{320, 760}";
},
{
name = abvm_high;
position = "{320, 728}";
},
{
name = blwm;
position = "{320, 0}";
}
);
layerId = "88BEB7F0-7448-46FF-842C-45A92B9492CE";
paths = (
{
closed = 1;
nodes = (
"542 390 OFFCURVE",
"444 459 OFFCURVE",
"320 459 CURVE SMOOTH",
"199 459 OFFCURVE",
"98 392 OFFCURVE",
"98 316 CURVE SMOOTH",
"98 0 LINE",
"190 0 LINE",
"190 316 LINE SMOOTH",
"190 355 OFFCURVE",
"246 392 OFFCURVE",
"321 392 CURVE SMOOTH",
"392 392 OFFCURVE",
"450 356 OFFCURVE",
"450 316 CURVE SMOOTH",
"450 0 LINE",
"542 0 LINE",
"542 316 LINE SMOOTH"
);
},
{
closed = 1;
nodes = (
"141 498 OFFCURVE",
"126 515 OFFCURVE",
"126 536 CURVE SMOOTH",
"126 552 OFFCURVE",
"134 564 OFFCURVE",
"143 573 CURVE SMOOTH",
"152 583 OFFCURVE",
"162 589 OFFCURVE",
"173 589 CURVE SMOOTH",
"187 589 OFFCURVE",
"200 580 OFFCURVE",
"230 557 CURVE SMOOTH",
"261 533 OFFCURVE",
"279 519 OFFCURVE",
"299 519 CURVE SMOOTH",
"320 519 OFFCURVE",
"343 531 OFFCURVE",
"368 552 CURVE SMOOTH",
"388 569 OFFCURVE",
"404 588 OFFCURVE",
"422 588 CURVE SMOOTH",
"456 588 OFFCURVE",
"477 519 OFFCURVE",
"529 519 CURVE SMOOTH",
"551 519 OFFCURVE",
"578 531 OFFCURVE",
"591 585 CURVE",
"559 583 OFFCURVE",
"539 590 OFFCURVE",
"521 608 CURVE SMOOTH",
"481 648 LINE SMOOTH",
"454 675 OFFCURVE",
"440 683 OFFCURVE",
"431 683 CURVE SMOOTH",
"417 683 OFFCURVE",
"396 664 OFFCURVE",
"366 636 CURVE SMOOTH",
"340 611 OFFCURVE",
"323 596 OFFCURVE",
"310 596 CURVE SMOOTH",
"297 596 OFFCURVE",
"279 611 OFFCURVE",
"258 631 CURVE SMOOTH",
"221 666 OFFCURVE",
"201 685 OFFCURVE",
"186 685 CURVE SMOOTH",
"170 685 OFFCURVE",
"146 666 OFFCURVE",
"119 643 CURVE SMOOTH",
"60 592 OFFCURVE",
"43 565 OFFCURVE",
"43 533 CURVE SMOOTH",
"43 493 OFFCURVE",
"70 461 OFFCURVE",
"102 430 CURVE",
"175 473 LINE"
);
}
);
width = 633;
},
{
anchors = (
{
name = abvm;
position = "{350, 760}";
},
{
name = abvm_high;
position = "{350, 728}";
},
{
name = blwm;
position = "{350, 0}";
}
);
layerId = "33F44B55-ADBD-4698-98EB-0F29A0B3A069";
paths = (
{
closed = 1;
nodes = (
"617 399 OFFCURVE",
"493 459 OFFCURVE",
"349 459 CURVE SMOOTH",
"210 459 OFFCURVE",
"83 400 OFFCURVE",
"83 336 CURVE SMOOTH",
"83 0 LINE",
"263 0 LINE",
"263 281 LINE SMOOTH",
"263 337 OFFCURVE",
"291 357 OFFCURVE",
"351 357 CURVE SMOOTH",
"407 357 OFFCURVE",
"437 338 OFFCURVE",
"437 281 CURVE SMOOTH",
"437 0 LINE",
"617 0 LINE",
"617 336 LINE SMOOTH"
);
},
{
closed = 1;
nodes = (
"170 513 OFFCURVE",
"152 528 OFFCURVE",
"152 538 CURVE SMOOTH",
"152 543 OFFCURVE",
"156 548 OFFCURVE",
"160 552 CURVE SMOOTH",
"164 556 OFFCURVE",
"168 558 OFFCURVE",
"173 558 CURVE SMOOTH",
"177 558 OFFCURVE",
"182 554 OFFCURVE",
"195 543 CURVE SMOOTH",
"231 510 OFFCURVE",
"265 493 OFFCURVE",
"307 493 CURVE SMOOTH",
"341 493 OFFCURVE",
"373 505 OFFCURVE",
"406 524 CURVE SMOOTH",
"427 536 OFFCURVE",
"439 547 OFFCURVE",
"448 547 CURVE SMOOTH",
"470 547 OFFCURVE",
"499 491 OFFCURVE",
"557 491 CURVE SMOOTH",
"596 491 OFFCURVE",
"649 517 OFFCURVE",
"666 586 CURVE",
"632 582 OFFCURVE",
"608 585 OFFCURVE",
"574 616 CURVE SMOOTH",
"542 646 LINE SMOOTH",
"509 677 OFFCURVE",
"493 685 OFFCURVE",
"481 685 CURVE SMOOTH",
"466 685 OFFCURVE",
"439 663 OFFCURVE",
"401 632 CURVE SMOOTH",
"365 602 OFFCURVE",
"353 592 OFFCURVE",
"341 592 CURVE SMOOTH",
"331 592 OFFCURVE",
"321 601 OFFCURVE",
"277 640 CURVE SMOOTH",
"239 674 OFFCURVE",
"220 686 OFFCURVE",
"204 686 CURVE SMOOTH",
"187 686 OFFCURVE",
"155 672 OFFCURVE",
"103 631 CURVE SMOOTH",
"35 577 OFFCURVE",
"30 542 OFFCURVE",
"30 521 CURVE SMOOTH",
"30 478 OFFCURVE",
"56 449 OFFCURVE",
"96 419 CURVE",
"203 484 LINE"
);
}
);
width = 696;
},
{
anchors = (
{
name = abvm;
position = "{271, 760}";
},
{
name = abvm_high;
position = "{271, 728}";
},
{
name = blwm;
position = "{271, 0}";
}
);
layerId = "1DC75306-0750-4696-AEC7-032F44743549";
paths = (
{
closed = 1;
nodes = (
"430 388 OFFCURVE",
"358 459 OFFCURVE",
"271 459 CURVE SMOOTH",
"182 459 OFFCURVE",
"111 390 OFFCURVE",
"111 316 CURVE SMOOTH",
"111 0 LINE",
"137 0 LINE",
"137 321 LINE SMOOTH",
"137 377 OFFCURVE",
"195 433 OFFCURVE",
"271 433 CURVE SMOOTH",
"340 433 OFFCURVE",
"404 376 OFFCURVE",
"404 321 CURVE SMOOTH",
"404 0 LINE",
"430 0 LINE",
"430 316 LINE SMOOTH"
);
},
{
closed = 1;
nodes = (
"83 539 OFFCURVE",
"77 554 OFFCURVE",
"77 562 CURVE SMOOTH",
"77 578 OFFCURVE",
"95 602 OFFCURVE",
"112 621 CURVE SMOOTH",
"130 641 OFFCURVE",
"149 660 OFFCURVE",
"162 660 CURVE SMOOTH",
"172 660 OFFCURVE",
"186 641 OFFCURVE",
"207 613 CURVE SMOOTH",
"229 584 OFFCURVE",
"245 566 OFFCURVE",
"265 566 CURVE SMOOTH",
"279 566 OFFCURVE",
"296 574 OFFCURVE",
"326 608 CURVE SMOOTH",
"351 636 OFFCURVE",
"365 660 OFFCURVE",
"373 660 CURVE SMOOTH",
"388 660 OFFCURVE",
"455 545 OFFCURVE",
"480 545 CURVE SMOOTH",
"488 545 OFFCURVE",
"498 552 OFFCURVE",
"498 569 CURVE",
"483 569 OFFCURVE",
"472 580 OFFCURVE",
"460 595 CURVE SMOOTH",
"415 653 LINE SMOOTH",
"398 674 OFFCURVE",
"388 686 OFFCURVE",
"376 686 CURVE SMOOTH",
"361 686 OFFCURVE",
"353 678 OFFCURVE",
"311 630 CURVE SMOOTH",
"287 602 OFFCURVE",
"272 592 OFFCURVE",
"265 592 CURVE SMOOTH",
"255 592 OFFCURVE",
"243 608 OFFCURVE",
"220 639 CURVE SMOOTH",
"192 676 OFFCURVE",
"179 686 OFFCURVE",
"163 686 CURVE SMOOTH",
"155 686 OFFCURVE",
"134 685 OFFCURVE",
"90 635 CURVE SMOOTH",
"50 589 OFFCURVE",
"50 573 OFFCURVE",
"50 562 CURVE SMOOTH",
"50 549 OFFCURVE",
"57 532 OFFCURVE",
"101 473 CURVE",
"120 491 LINE"
);
}
);
width = 552;
},
{
anchors = (
{
name = abvm;
position = "{274, 760}";
},
{
name = abvm_high;
position = "{274, 728}";
},
{
name = blwm;
position = "{274, 0}";
}
);
layerId = "BB318BD9-DEF5-4D27-998D-30B020A0DD4F";
paths = (
{
closed = 1;
nodes = (
"459 390 OFFCURVE",
"379 459 OFFCURVE",
"274 459 CURVE SMOOTH",
"172 459 OFFCURVE",
"89 392 OFFCURVE",
"89 316 CURVE SMOOTH",
"89 0 LINE",
"166 0 LINE",
"166 316 LINE SMOOTH",
"166 354 OFFCURVE",
"211 392 OFFCURVE",
"274 392 CURVE SMOOTH",
"334 392 OFFCURVE",
"382 356 OFFCURVE",
"382 316 CURVE SMOOTH",
"382 0 LINE",
"459 0 LINE",
"459 316 LINE SMOOTH"
);
},
{
closed = 1;
nodes = (
"123 497 OFFCURVE",
"112 510 OFFCURVE",
"112 536 CURVE SMOOTH",
"112 553 OFFCURVE",
"116 564 OFFCURVE",
"123 574 CURVE SMOOTH",
"131 585 OFFCURVE",
"141 590 OFFCURVE",
"151 590 CURVE SMOOTH",
"162 590 OFFCURVE",
"172 583 OFFCURVE",
"197 558 CURVE SMOOTH",
"222 533 OFFCURVE",
"237 520 OFFCURVE",
"255 520 CURVE SMOOTH",
"272 520 OFFCURVE",
"291 532 OFFCURVE",
"312 553 CURVE SMOOTH",
"329 570 OFFCURVE",
"347 588 OFFCURVE",
"357 588 CURVE SMOOTH",
"386 588 OFFCURVE",
"404 520 OFFCURVE",
"448 520 CURVE SMOOTH",
"466 520 OFFCURVE",
"496 532 OFFCURVE",
"498 586 CURVE",
"474 583 OFFCURVE",
"452 591 OFFCURVE",
"440 606 CURVE SMOOTH",
"407 649 LINE SMOOTH",
"386 677 OFFCURVE",
"372 685 OFFCURVE",
"364 685 CURVE SMOOTH",
"354 685 OFFCURVE",
"336 665 OFFCURVE",
"311 637 CURVE SMOOTH",
"289 612 OFFCURVE",
"275 598 OFFCURVE",
"264 598 CURVE SMOOTH",
"253 598 OFFCURVE",
"238 612 OFFCURVE",
"221 632 CURVE SMOOTH",
"191 668 OFFCURVE",
"173 686 OFFCURVE",
"162 686 CURVE SMOOTH",
"147 686 OFFCURVE",
"122 660 OFFCURVE",
"85 618 CURVE SMOOTH",
"54 582 OFFCURVE",
"44 555 OFFCURVE",
"44 525 CURVE SMOOTH",
"44 478 OFFCURVE",
"67 453 OFFCURVE",
"107 426 CURVE",
"159 471 LINE"
);
}
);
width = 542;
}
);
unicode = 1780;
},
{
glyphname = uni1781;
lastChange = "2016-11-17 19:08:58 +0000";
layers = (
{
anchors = (
{
name = abvm;
position = "{343, 760}";
},
{
name = blwm;
position = "{342, 0}";
}
);
components = (
{
locked = 1;
name = khadotoloop;
transform = "{1, 0, 0, 1, 45, 0}";
}
);
guideLines = (
{
angle = 28.0402;
position = "{528, 268}";
}
);
layerId = "88BEB7F0-7448-46FF-842C-45A92B9492CE";
paths = (
{
closed = 1;
nodes = (
"202 514 LINE",
"202 536 LINE SMOOTH",
"202 576 OFFCURVE",
"261 615 OFFCURVE",
"341 615 CURVE SMOOTH",
"420 615 OFFCURVE",
"482 579 OFFCURVE",
"482 536 CURVE SMOOTH",
"482 463 LINE SMOOTH",
"482 428 OFFCURVE",
"436 386 OFFCURVE",
"342 338 CURVE SMOOTH",
"110 219 LINE",
"110 146 LINE SMOOTH",
"110 70 OFFCURVE",
"212 0 OFFCURVE",
"342 0 CURVE SMOOTH",
"469 0 OFFCURVE",
"574 68 OFFCURVE",
"574 146 CURVE SMOOTH",
"574 292 LINE",
"482 243 LINE",
"482 146 LINE SMOOTH",
"482 106 OFFCURVE",
"422 67 OFFCURVE",
"342 67 CURVE SMOOTH",
"264 67 OFFCURVE",
"202 104 OFFCURVE",
"202 146 CURVE SMOOTH",
"202 187 LINE",
"388 283 LINE SMOOTH",
"512 347 OFFCURVE",
"574 407 OFFCURVE",
"574 463 CURVE SMOOTH",
"574 536 LINE SMOOTH",
"574 612 OFFCURVE",
"472 682 OFFCURVE",
"341 682 CURVE SMOOTH",
"214 682 OFFCURVE",
"110 614 OFFCURVE",
"110 536 CURVE SMOOTH",
"110 514 LINE"
);
}
);
width = 664;
},
{
anchors = (
{
name = abvm;
position = "{319, 760}";
},
{
name = blwm;
position = "{320, 0}";
}
);
components = (
{
locked = 1;
name = khadotoloop;
transform = "{1, 0, 0, 1, 64, 0}";
}
);
guideLines = (
{
angle = 28.0401;
position = "{506, 279}";
}
);
layerId = "37E1EBAF-DBB8-42B6-8B14-41DF5B276D12";
paths = (
{
closed = 1;
nodes = (
"146 512 LINE",
"146 549 LINE SMOOTH",
"146 602 OFFCURVE",
"217 656 OFFCURVE",
"320 656 CURVE SMOOTH",
"420 656 OFFCURVE",
"494 604 OFFCURVE",
"494 549 CURVE SMOOTH",
"494 463 LINE SMOOTH",
"494 437 OFFCURVE",
"436 397 OFFCURVE",
"320 338 CURVE SMOOTH",
"120 235 LINE",
"120 125 LINE SMOOTH",
"120 63 OFFCURVE",
"208 0 OFFCURVE",
"320 0 CURVE SMOOTH",
"432 0 OFFCURVE",
"520 61 OFFCURVE",
"520 125 CURVE SMOOTH",
"520 287 LINE",
"494 272 LINE",
"494 129 LINE SMOOTH",
"494 76 OFFCURVE",
"420 26 OFFCURVE",
"320 26 CURVE SMOOTH",
"220 26 OFFCURVE",
"146 75 OFFCURVE",
"146 129 CURVE SMOOTH",
"146 219 LINE",
"366 333 LINE SMOOTH",
"468 386 OFFCURVE",
"520 421 OFFCURVE",
"520 476 CURVE SMOOTH",
"520 556 LINE SMOOTH",
"520 620 OFFCURVE",
"432 682 OFFCURVE",
"320 682 CURVE SMOOTH",
"210 682 OFFCURVE",
"120 620 OFFCURVE",
"120 556 CURVE SMOOTH",
"120 512 LINE"
);
}
);
width = 650;
},
{
anchors = (
{
name = abvm;
position = "{356, 760}";
},
{
name = blwm;
position = "{357, 0}";
}
);
components = (
{
locked = 1;
name = khadotoloop;
transform = "{1, 0, 0, 1, 23, 0}";
}
);
guideLines = (
{
angle = 28.0401;
position = "{541, 274}";
}
);
layerId = "33F44B55-ADBD-4698-98EB-0F29A0B3A069";
paths = (
{
closed = 1;
nodes = (
"262 531 LINE",
"262 534 LINE SMOOTH",
"262 562 OFFCURVE",
"296 580 OFFCURVE",
"357 580 CURVE SMOOTH",
"423 580 OFFCURVE",
"452 557 OFFCURVE",
"452 500 CURVE SMOOTH",
"452 463 LINE SMOOTH",
"452 415 OFFCURVE",
"422 381 OFFCURVE",
"357 348 CURVE SMOOTH",
"82 207 LINE",
"82 146 LINE SMOOTH",
"82 61 OFFCURVE",
"189 0 OFFCURVE",
"357 0 CURVE SMOOTH",
"523 0 OFFCURVE",
"632 60 OFFCURVE",
"632 146 CURVE SMOOTH",
"632 322 LINE",
"452 227 LINE",
"452 182 LINE SMOOTH",
"452 128 OFFCURVE",
"425 102 OFFCURVE",
"357 102 CURVE SMOOTH",
"292 102 OFFCURVE",
"262 125 OFFCURVE",
"262 182 CURVE SMOOTH",
"262 190 LINE",
"403 263 LINE SMOOTH",
"556 342 OFFCURVE",
"632 420 OFFCURVE",
"632 463 CURVE SMOOTH",
"632 536 LINE SMOOTH",
"632 621 OFFCURVE",
"526 682 OFFCURVE",
"356 682 CURVE SMOOTH",
"191 682 OFFCURVE",
"82 623 OFFCURVE",
"82 536 CURVE SMOOTH",
"82 531 LINE"
);
}
);
width = 712;
},
{
anchors = (
{
name = abvm;
position = "{312, 760}";
},
{
name = blwm;
position = "{312, 0}";
}
);
components = (
{
locked = 1;
name = khadotoloop;
transform = "{1, 0, 0, 1, 25, 0}";
}
);
guideLines = (
{
angle = 28.0401;
position = "{543, 274}";
}
);
layerId = "2845A654-27C0-4D24-8E0C-7DAF9BC7668A";
paths = (
{
closed = 1;
nodes = (
"234 531 LINE",
"234 534 LINE SMOOTH",
"234 562 OFFCURVE",
"262 580 OFFCURVE",
"313 580 CURVE SMOOTH",
"368 580 OFFCURVE",
"392 557 OFFCURVE",
"392 500 CURVE SMOOTH",
"392 463 LINE SMOOTH",
"392 415 OFFCURVE",
"367 381 OFFCURVE",
"313 348 CURVE SMOOTH",
"84 207 LINE",
"84 146 LINE SMOOTH",
"84 61 OFFCURVE",
"173 0 OFFCURVE",
"313 0 CURVE SMOOTH",
"452 0 OFFCURVE",
"542 60 OFFCURVE",
"542 146 CURVE SMOOTH",
"542 322 LINE",
"392 227 LINE",
"392 182 LINE SMOOTH",
"392 128 OFFCURVE",
"370 102 OFFCURVE",
"313 102 CURVE SMOOTH",
"259 102 OFFCURVE",
"234 125 OFFCURVE",
"234 182 CURVE SMOOTH",
"234 190 LINE",
"352 263 LINE SMOOTH",
"479 342 OFFCURVE",
"542 420 OFFCURVE",
"542 463 CURVE SMOOTH",
"542 536 LINE SMOOTH",
"542 621 OFFCURVE",
"454 682 OFFCURVE",
"312 682 CURVE SMOOTH",
"175 682 OFFCURVE",
"84 623 OFFCURVE",
"84 536 CURVE SMOOTH",
"84 531 LINE"
);
}
);
width = 642;
},
{
anchors = (
{
name = abvm;
position = "{274, 760}";
},
{
name = blwm;
position = "{273, 0}";
}
);
components = (
{
locked = 1;
name = khadotoloop;
transform = "{1, 0, 0, 1, 15, 0}";
}
);
guideLines = (
{
angle = 28.0402;
position = "{498, 268}";
}
);
layerId = "BB318BD9-DEF5-4D27-998D-30B020A0DD4F";
paths = (
{
closed = 1;
nodes = (
"157 514 LINE",
"157 536 LINE SMOOTH",
"157 576 OFFCURVE",
"206 615 OFFCURVE",
"273 615 CURVE SMOOTH",
"338 615 OFFCURVE",
"390 579 OFFCURVE",
"390 536 CURVE SMOOTH",
"390 463 LINE SMOOTH",
"390 428 OFFCURVE",
"352 386 OFFCURVE",
"273 338 CURVE SMOOTH",
"80 219 LINE",
"80 146 LINE SMOOTH",
"80 70 OFFCURVE",
"165 0 OFFCURVE",
"273 0 CURVE SMOOTH",
"379 0 OFFCURVE",
"467 68 OFFCURVE",
"467 146 CURVE SMOOTH",
"467 292 LINE",
"390 243 LINE",
"390 146 LINE SMOOTH",
"390 106 OFFCURVE",
"340 67 OFFCURVE",
"273 67 CURVE SMOOTH",
"208 67 OFFCURVE",
"157 104 OFFCURVE",
"157 146 CURVE SMOOTH",
"157 187 LINE",
"312 283 LINE SMOOTH",
"415 347 OFFCURVE",
"467 407 OFFCURVE",
"467 463 CURVE SMOOTH",
"467 536 LINE SMOOTH",
"467 612 OFFCURVE",
"382 682 OFFCURVE",
"273 682 CURVE SMOOTH",
"167 682 OFFCURVE",
"80 614 OFFCURVE",
"80 536 CURVE SMOOTH",
"80 514 LINE"
);
}
);
width = 553;
},
{
anchors = (
{
name = abvm;
position = "{277, 760}";
},
{
name = blwm;
position = "{278, 0}";
}
);
components = (
{
locked = 1;
name = khadotoloop;
transform = "{1, 0, 0, 1, 54, 0}";
}
);
guideLines = (
{
angle = 28.0401;
position = "{497, 279}";
}
);
layerId = "1DC75306-0750-4696-AEC7-032F44743549";
paths = (
{
closed = 1;
nodes = (
"136 512 LINE",
"136 549 LINE SMOOTH",
"136 602 OFFCURVE",
"207 656 OFFCURVE",
"280 656 CURVE SMOOTH",
"350 656 OFFCURVE",
"424 604 OFFCURVE",
"424 549 CURVE SMOOTH",
"424 463 LINE SMOOTH",
"424 437 OFFCURVE",
"368 392 OFFCURVE",
"280 338 CURVE SMOOTH",
"110 235 LINE",
"110 125 LINE SMOOTH",
"110 63 OFFCURVE",
"198 0 OFFCURVE",
"280 0 CURVE SMOOTH",
"362 0 OFFCURVE",
"450 61 OFFCURVE",
"450 125 CURVE SMOOTH",
"450 287 LINE",
"424 272 LINE",
"424 129 LINE SMOOTH",
"424 76 OFFCURVE",
"350 26 OFFCURVE",
"280 26 CURVE SMOOTH",
"210 26 OFFCURVE",
"136 75 OFFCURVE",
"136 129 CURVE SMOOTH",
"136 219 LINE",
"326 333 LINE SMOOTH",
"401 378 OFFCURVE",
"450 421 OFFCURVE",
"450 476 CURVE SMOOTH",
"450 556 LINE SMOOTH",
"450 620 OFFCURVE",
"362 682 OFFCURVE",
"280 682 CURVE SMOOTH",
"200 682 OFFCURVE",
"110 620 OFFCURVE",
"110 556 CURVE SMOOTH",
"110 512 LINE"
);
}
);
width = 560;
}
);
note = uni1781;
unicode = 1781;
},
{
glyphname = uni1784;
lastChange = "2016-11-17 19:08:58 +0000";
layers = (
{
anchors = (
{
name = abvm;
position = "{327, 840}";
},
{
name = blwm;
position = "{371, 0}";
}
);
components = (
{
locked = 1;
name = loopbottom.left;
transform = "{1, 0, 0, 1, -176, -30}";
}
);
layerId = "88BEB7F0-7448-46FF-842C-45A92B9492CE";
paths = (
{
closed = 1;
nodes = (
"222 0 LINE",
"362 115 LINE",
"502 0 LINE",
"594 0 LINE",
"594 389 LINE SMOOTH",
"594 452 OFFCURVE",
"530 495 OFFCURVE",
"471 536 CURVE SMOOTH",
"445 554 OFFCURVE",
"413 572 OFFCURVE",
"413 599 CURVE SMOOTH",
"413 613 OFFCURVE",
"422 628 OFFCURVE",
"438 628 CURVE SMOOTH",
"454 628 OFFCURVE",
"462 615 OFFCURVE",
"462 601 CURVE SMOOTH",
"462 577 OFFCURVE",
"438 548 OFFCURVE",
"411 532 CURVE SMOOTH",
"375 511 OFFCURVE",
"322 505 OFFCURVE",
"293 505 CURVE SMOOTH",
"246 505 OFFCURVE",
"206 521 OFFCURVE",
"206 576 CURVE SMOOTH",
"206 624 OFFCURVE",
"237 646 OFFCURVE",
"237 711 CURVE SMOOTH",
"237 757 OFFCURVE",
"220 800 OFFCURVE",
"169 800 CURVE SMOOTH",
"126 800 OFFCURVE",
"106 770 OFFCURVE",
"106 731 CURVE",
"138 731 OFFCURVE",
"155 716 OFFCURVE",
"155 681 CURVE SMOOTH",
"155 627 OFFCURVE",
"137 607 OFFCURVE",
"137 562 CURVE SMOOTH",
"137 485 OFFCURVE",
"188 438 OFFCURVE",
"276 438 CURVE SMOOTH",
"345 438 OFFCURVE",
"421 467 OFFCURVE",
"465 501 CURVE SMOOTH",
"502 530 OFFCURVE",
"530 555 OFFCURVE",
"530 598 CURVE SMOOTH",
"530 647 OFFCURVE",
"495 684 OFFCURVE",
"440 684 CURVE SMOOTH",
"382 684 OFFCURVE",
"345 641 OFFCURVE",
"345 595 CURVE SMOOTH",
"345 556 OFFCURVE",
"371 530 OFFCURVE",
"399 510 CURVE SMOOTH",
"435 485 OFFCURVE",
"502 456 OFFCURVE",
"502 400 CURVE SMOOTH",
"502 91 LINE",
"362 207 LINE",
"222 91 LINE",
"222 165 LINE",
"130 165 LINE",
"130 0 LINE"
);
}
);
width = 684;
},
{
anchors = (
{
name = abvm;
position = "{333, 840}";
},
{
name = blwm;
position = "{349, 0}";
}
);
components = (
{
locked = 1;
name = loopbottom.left;
transform = "{1, 0, 0, 1, -238, -33}";
}
);
guideLines = (
{
angle = -42.8657;
position = "{435, 111}";
},
{
angle = 42.5258;
position = "{251, 97}";
}
);
layerId = "37E1EBAF-DBB8-42B6-8B14-41DF5B276D12";
paths = (
{
closed = 1;
nodes = (
"183 0 LINE",
"351 154 LINE",
"517 0 LINE",
"549 0 LINE",
"549 391 LINE SMOOTH",
"549 451 OFFCURVE",
"460 516 OFFCURVE",
"433 537 CURVE SMOOTH",
"414 552 OFFCURVE",
"392 577 OFFCURVE",
"392 606 CURVE SMOOTH",
"392 633 OFFCURVE",
"410 642 OFFCURVE",
"425 642 CURVE SMOOTH",
"443 642 OFFCURVE",
"457 629 OFFCURVE",
"457 606 CURVE SMOOTH",
"457 577 OFFCURVE",
"436 546 OFFCURVE",
"409 526 CURVE SMOOTH",
"367 496 OFFCURVE",
"329 487 OFFCURVE",
"280 487 CURVE SMOOTH",
"248 487 OFFCURVE",
"169 491 OFFCURVE",
"169 572 CURVE SMOOTH",
"169 628 OFFCURVE",
"203 638 OFFCURVE",
"203 695 CURVE SMOOTH",
"203 742 OFFCURVE",
"179 780 OFFCURVE",
"155 780 CURVE SMOOTH",
"144 780 OFFCURVE",
"133 772 OFFCURVE",
"133 751 CURVE",
"160 748 OFFCURVE",
"175 724 OFFCURVE",
"175 688 CURVE SMOOTH",
"175 637 OFFCURVE",
"143 625 OFFCURVE",
"143 567 CURVE SMOOTH",
"143 487 OFFCURVE",
"209 461 OFFCURVE",
"278 461 CURVE SMOOTH",
"328 461 OFFCURVE",
"383 475 OFFCURVE",
"430 512 CURVE SMOOTH",
"461 537 OFFCURVE",
"483 569 OFFCURVE",
"483 606 CURVE SMOOTH",
"483 641 OFFCURVE",
"464 668 OFFCURVE",
"427 668 CURVE SMOOTH",
"386 668 OFFCURVE",
"366 636 OFFCURVE",
"366 605 CURVE SMOOTH",
"366 570 OFFCURVE",
"392 540 OFFCURVE",
"422 513 CURVE SMOOTH",
"461 478 OFFCURVE",
"523 434 OFFCURVE",
"523 387 CURVE SMOOTH",
"523 30 LINE",
"351 189 LINE",
"177 29 LINE",
"177 193 LINE",
"151 193 LINE",
"151 0 LINE"
);
}
);
width = 679;
},
{
anchors = (
{
name = abvm;
position = "{416, 840}";
},
{
name = blwm;
position = "{448, 0}";
}
);
components = (
{
locked = 1;
name = loopbottom.left;
transform = "{1, 0, 0, 1, -31, -39}";
}
);
layerId = "33F44B55-ADBD-4698-98EB-0F29A0B3A069";
paths = (
{
closed = 1;
nodes = (
"336 0 LINE",
"439 55 LINE",
"542 0 LINE",
"716 0 LINE",
"716 335 LINE SMOOTH",
"716 458 OFFCURVE",
"643 490 OFFCURVE",
"556 533 CURVE SMOOTH",
"508 557 OFFCURVE",
"490 567 OFFCURVE",
"490 586 CURVE SMOOTH",
"490 600 OFFCURVE",
"500 610 OFFCURVE",
"514 610 CURVE SMOOTH",
"532 610 OFFCURVE",
"539 595 OFFCURVE",
"539 584 CURVE SMOOTH",
"539 556 OFFCURVE",
"492 536 OFFCURVE",
"473 530 CURVE SMOOTH",
"446 521 OFFCURVE",
"405 516 OFFCURVE",
"383 516 CURVE SMOOTH",
"347 516 OFFCURVE",
"307 530 OFFCURVE",
"307 582 CURVE SMOOTH",
"307 633 OFFCURVE",
"342 649 OFFCURVE",
"342 713 CURVE SMOOTH",
"342 773 OFFCURVE",
"309 809 OFFCURVE",
"248 809 CURVE SMOOTH",
"175 809 OFFCURVE",
"138 762 OFFCURVE",
"138 713 CURVE",
"172 713 OFFCURVE",
"187 693 OFFCURVE",
"187 653 CURVE SMOOTH",
"187 620 OFFCURVE",
"177 587 OFFCURVE",
"177 555 CURVE SMOOTH",
"177 483 OFFCURVE",
"229 422 OFFCURVE",
"360 422 CURVE SMOOTH",
"439 422 OFFCURVE",
"528 451 OFFCURVE",
"572 477 CURVE SMOOTH",
"629 512 OFFCURVE",
"649 562 OFFCURVE",
"649 600 CURVE SMOOTH",
"649 658 OFFCURVE",
"601 714 OFFCURVE",
"517 714 CURVE SMOOTH",
"422 714 OFFCURVE",
"385 648 OFFCURVE",
"385 600 CURVE SMOOTH",
"385 549 OFFCURVE",
"426 509 OFFCURVE",
"448 494 CURVE SMOOTH",
"483 470 OFFCURVE",
"536 457 OFFCURVE",
"536 400 CURVE SMOOTH",
"536 117 LINE",
"439 169 LINE",
"344 117 LINE",
"344 128 LINE",
"164 128 LINE",
"164 0 LINE"
);
}
);
width = 796;
},
{
anchors = (
{
name = abvm;
position = "{363, 840}";
},
{
name = blwm;
position = "{389, 0}";
}
);
components = (
{
locked = 1;
name = loopbottom.left;
transform = "{1, 0, 0, 1, -21, -39}";
}
);
layerId = "2845A654-27C0-4D24-8E0C-7DAF9BC7668A";
paths = (
{
closed = 1;
nodes = (
"296 0 LINE",
"382 55 LINE",
"468 0 LINE",
"613 0 LINE",
"613 335 LINE SMOOTH",
"613 458 OFFCURVE",
"552 490 OFFCURVE",
"479 533 CURVE SMOOTH",
"439 557 OFFCURVE",
"424 567 OFFCURVE",
"424 586 CURVE SMOOTH",
"424 600 OFFCURVE",
"433 610 OFFCURVE",
"444 610 CURVE SMOOTH",
"459 610 OFFCURVE",
"465 595 OFFCURVE",
"465 584 CURVE SMOOTH",
"465 556 OFFCURVE",
"426 536 OFFCURVE",
"410 530 CURVE SMOOTH",
"388 521 OFFCURVE",
"354 516 OFFCURVE",
"335 516 CURVE SMOOTH",
"305 516 OFFCURVE",
"272 530 OFFCURVE",
"272 582 CURVE SMOOTH",
"272 633 OFFCURVE",
"301 649 OFFCURVE",
"301 713 CURVE SMOOTH",
"301 773 OFFCURVE",
"274 803 OFFCURVE",
"225 803 CURVE SMOOTH",
"162 803 OFFCURVE",
"131 762 OFFCURVE",
"131 713 CURVE",
"159 713 OFFCURVE",
"172 693 OFFCURVE",
"172 649 CURVE SMOOTH",
"172 620 OFFCURVE",
"164 595 OFFCURVE",
"164 567 CURVE SMOOTH",
"164 502 OFFCURVE",
"207 422 OFFCURVE",
"316 422 CURVE SMOOTH",
"382 422 OFFCURVE",
"456 451 OFFCURVE",
"491 476 CURVE SMOOTH",
"540 512 OFFCURVE",
"557 562 OFFCURVE",
"557 600 CURVE SMOOTH",
"557 658 OFFCURVE",
"517 714 OFFCURVE",
"447 714 CURVE SMOOTH",
"368 714 OFFCURVE",
"337 648 OFFCURVE",
"337 600 CURVE SMOOTH",
"337 549 OFFCURVE",
"371 509 OFFCURVE",
"389 494 CURVE SMOOTH",
"419 470 OFFCURVE",
"463 457 OFFCURVE",
"463 400 CURVE SMOOTH",
"463 117 LINE",
"382 169 LINE",
"303 117 LINE",
"303 128 LINE",
"153 128 LINE",
"153 0 LINE"
);
}
);
width = 713;
},
{
anchors = (
{
name = abvm;
position = "{276, 840}";
},
{
name = blwm;
position = "{313, 0}";
}
);
components = (
{
locked = 1;
name = loopbottom.left;
transform = "{1, 0, 0, 1, -176, -30}";
}
);
layerId = "BB318BD9-DEF5-4D27-998D-30B020A0DD4F";
paths = (
{
closed = 1;
nodes = (
"189 0 LINE",
"305 115 LINE",
"422 0 LINE",
"499 0 LINE",
"499 389 LINE SMOOTH",
"499 452 OFFCURVE",
"445 495 OFFCURVE",
"396 536 CURVE SMOOTH",
"375 554 OFFCURVE",
"348 574 OFFCURVE",
"348 601 CURVE SMOOTH",
"348 615 OFFCURVE",
"355 628 OFFCURVE",
"369 628 CURVE SMOOTH",
"382 628 OFFCURVE",
"389 616 OFFCURVE",
"389 602 CURVE SMOOTH",
"389 578 OFFCURVE",
"370 548 OFFCURVE",
"344 531 CURVE SMOOTH",
"318 514 OFFCURVE",
"277 505 OFFCURVE",
"254 505 CURVE SMOOTH",
"214 505 OFFCURVE",
"175 531 OFFCURVE",
"175 582 CURVE SMOOTH",
"175 624 OFFCURVE",
"201 649 OFFCURVE",
"201 712 CURVE SMOOTH",
"201 760 OFFCURVE",
"186 800 OFFCURVE",
"144 800 CURVE SMOOTH",
"108 800 OFFCURVE",
"92 770 OFFCURVE",
"92 731 CURVE",
"119 731 OFFCURVE",
"133 719 OFFCURVE",
"133 675 CURVE SMOOTH",
"133 630 OFFCURVE",
"118 606 OFFCURVE",
"118 563 CURVE SMOOTH",
"118 484 OFFCURVE",
"168 438 OFFCURVE",
"241 438 CURVE SMOOTH",
"299 438 OFFCURVE",
"356 466 OFFCURVE",
"402 509 CURVE SMOOTH",
"423 529 OFFCURVE",
"445 555 OFFCURVE",
"445 598 CURVE SMOOTH",
"445 647 OFFCURVE",
"414 684 OFFCURVE",
"369 684 CURVE SMOOTH",
"320 684 OFFCURVE",
"291 641 OFFCURVE",
"291 595 CURVE SMOOTH",
"291 556 OFFCURVE",
"313 530 OFFCURVE",
"334 513 CURVE SMOOTH",
"366 485 OFFCURVE",
"422 456 OFFCURVE",
"422 400 CURVE SMOOTH",
"422 91 LINE",
"305 207 LINE",
"189 91 LINE",
"189 165 LINE",
"112 165 LINE",
"112 0 LINE"
);
}
);
width = 579;
},
{
anchors = (
{
name = abvm;
position = "{291, 840}";
},
{
name = blwm;
position = "{304, 0}";
}
);
components = (
{
locked = 1;
name = loopbottom.left;
transform = "{1, 0, 0, 1, -233, -33}";
}
);
guideLines = (
{
angle = -42.8657;
position = "{426, 111}";
},
{
angle = 42.5258;
position = "{242, 97}";
}
);
layerId = "1DC75306-0750-4696-AEC7-032F44743549";
paths = (
{
closed = 1;
nodes = (
"174 0 LINE",
"312 154 LINE",
"448 0 LINE",
"480 0 LINE",
"480 391 LINE SMOOTH",
"480 458 OFFCURVE",
"396 514 OFFCURVE",
"367 536 CURVE SMOOTH",
"344 554 OFFCURVE",
"323 575 OFFCURVE",
"323 605 CURVE SMOOTH",
"323 631 OFFCURVE",
"340 642 OFFCURVE",
"355 642 CURVE SMOOTH",
"373 642 OFFCURVE",
"388 626 OFFCURVE",
"388 603 CURVE SMOOTH",
"388 574 OFFCURVE",
"365 547 OFFCURVE",
"335 523 CURVE SMOOTH",
"308 502 OFFCURVE",
"280 487 OFFCURVE",
"245 487 CURVE SMOOTH",
"221 487 OFFCURVE",
"160 494 OFFCURVE",
"160 572 CURVE SMOOTH",
"160 631 OFFCURVE",
"193 642 OFFCURVE",
"193 699 CURVE SMOOTH",
"193 746 OFFCURVE",
"170 780 OFFCURVE",
"146 780 CURVE SMOOTH",
"134 780 OFFCURVE",
"124 772 OFFCURVE",
"124 751 CURVE",
"151 748 OFFCURVE",
"167 726 OFFCURVE",
"167 691 CURVE SMOOTH",
"167 643 OFFCURVE",
"134 625 OFFCURVE",
"134 566 CURVE SMOOTH",
"134 487 OFFCURVE",
"193 461 OFFCURVE",
"247 461 CURVE SMOOTH",
"281 461 OFFCURVE",
"316 472 OFFCURVE",
"361 511 CURVE SMOOTH",
"389 535 OFFCURVE",
"414 563 OFFCURVE",
"414 604 CURVE SMOOTH",
"414 639 OFFCURVE",
"396 668 OFFCURVE",
"358 668 CURVE SMOOTH",
"318 668 OFFCURVE",
"297 636 OFFCURVE",
"297 603 CURVE SMOOTH",
"297 570 OFFCURVE",
"317 546 OFFCURVE",
"342 523 CURVE SMOOTH",
"382 487 OFFCURVE",
"454 448 OFFCURVE",
"454 387 CURVE SMOOTH",
"454 30 LINE",
"312 189 LINE",
"168 29 LINE",
"168 193 LINE",
"142 193 LINE",
"142 0 LINE"
);
}
);
width = 604;
}
);
note = uni1784;
unicode = 1784;
},
{
glyphname = uni1787;
lastChange = "2016-11-17 19:08:58 +0000";
layers = (
{
anchors = (
{
name = abvm;
position = "{331, 860}";
},
{
name = abvm_high;
position = "{331, 830}";
},
{
name = blwm;
position = "{331, 0}";
}
);
components = (
{
locked = 1;
name = topcurl;
transform = "{1, 0, 0, 1, -23, 0}";
}
);
layerId = "88BEB7F0-7448-46FF-842C-45A92B9492CE";
paths = (
{
closed = 1;
nodes = (
"99 404 LINE",
"99 0 LINE",
"191 0 LINE",
"331 115 LINE",
"471 0 LINE",
"563 0 LINE",
"563 428 LINE",
"471 428 LINE",
"471 91 LINE",
"331 207 LINE",
"191 91 LINE",
"191 404 LINE"
);
}
);
width = 655;
},
{
anchors = (
{
name = abvm;
position = "{324, 860}";
},
{
name = abvm_high;
position = "{324, 830}";
},
{
name = blwm;
position = "{324, 0}";
}
);
components = (
{
locked = 1;
name = topcurl;
transform = "{1, 0, 0, 1, -30, 0}";
}
);
layerId = "37E1EBAF-DBB8-42B6-8B14-41DF5B276D12";
paths = (
{
closed = 1;
nodes = (
"124 455 LINE",
"124 0 LINE",
"156 0 LINE",
"324 155 LINE",
"492 0 LINE",
"524 0 LINE",
"524 428 LINE",
"498 428 LINE",
"498 33 LINE",
"324 189 LINE",
"150 33 LINE",
"150 455 LINE"
);
}
);
width = 647;
},
{
anchors = (
{
name = abvm;
position = "{360, 860}";
},
{
name = abvm_high;
position = "{361, 830}";
},
{
name = blwm;
position = "{364, 0}";
}
);
components = (
{
locked = 1;
name = topcurl;
transform = "{1, 0, 0, 1, 10, 5}";
}
);
layerId = "33F44B55-ADBD-4698-98EB-0F29A0B3A069";
paths = (
{
closed = 1;
nodes = (
"89 336 LINE",
"89 0 LINE",
"262 0 LINE",
"364 61 LINE",
"466 0 LINE",
"639 0 LINE",
"639 428 LINE",
"459 428 LINE",
"459 127 LINE",
"364 189 LINE",
"269 127 LINE",
"269 336 LINE"
);
}
);
width = 718;
},
{
anchors = (
{
name = abvm;
position = "{308, 860}";
},
{
name = abvm_high;
position = "{308, 830}";
},
{
name = blwm;
position = "{308, 0}";
}
);
components = (
{
locked = 1;
name = topcurl;
transform = "{1, 0, 0, 1, 8, 5}";
}
);
layerId = "2845A654-27C0-4D24-8E0C-7DAF9BC7668A";
paths = (
{
closed = 1;
nodes = (
"79 336 LINE",
"79 0 LINE",
"223 0 LINE",
"308 61 LINE",
"393 0 LINE",
"537 0 LINE",
"537 428 LINE",
"387 428 LINE",
"387 127 LINE",
"308 189 LINE",
"229 127 LINE",
"229 336 LINE"
);
}
);
width = 636;
},
{
anchors = (
{
name = abvm;
position = "{284, 860}";
},
{
name = abvm_high;
position = "{284, 830}";
},
{
name = blwm;
position = "{284, 0}";
}
);
components = (
{
locked = 1;
name = topcurl;
transform = "{1, 0, 0, 1, -23, 0}";
}
);
layerId = "BB318BD9-DEF5-4D27-998D-30B020A0DD4F";
paths = (
{
closed = 1;
nodes = (
"91 404 LINE",
"91 0 LINE",
"168 0 LINE",
"284 115 LINE",
"401 0 LINE",
"478 0 LINE",
"478 428 LINE",
"401 428 LINE",
"401 91 LINE",
"284 207 LINE",
"168 91 LINE",
"168 404 LINE"
);
}
);
width = 555;
},
{
anchors = (
{
name = abvm;
position = "{280, 860}";
},
{
name = abvm_high;
position = "{280, 830}";
},
{
name = blwm;
position = "{280, 0}";
}
);
components = (
{
locked = 1;
name = topcurl;
transform = "{1, 0, 0, 1, -34, 0}";
}
);
layerId = "1DC75306-0750-4696-AEC7-032F44743549";
paths = (
{
closed = 1;
nodes = (
"110 455 LINE",
"110 0 LINE",
"142 0 LINE",
"280 155 LINE",
"418 0 LINE",
"450 0 LINE",
"450 428 LINE",
"424 428 LINE",
"424 33 LINE",
"280 189 LINE",
"136 33 LINE",
"136 455 LINE"
);
}
);
width = 573;
}
);
note = uni1787;
unicode = 1787;
},
{
glyphname = uni1789;
lastChange = "2016-11-17 19:08:58 +0000";
layers = (
{
anchors = (
{
name = abvm;
position = "{710, 760}";
},
{
name = blwm;
position = "{704, -293}";
}
);
components = (
{
locked = 1;
name = uni1789.a;
}
);
layerId = "88BEB7F0-7448-46FF-842C-45A92B9492CE";
paths = (
{
closed = 1;
nodes = (
"829 -108 OFFCURVE",
"845 -123 OFFCURVE",
"845 -154 CURVE SMOOTH",
"845 -204 OFFCURVE",
"803 -228 OFFCURVE",
"751 -228 CURVE SMOOTH",
"704 -228 OFFCURVE",
"660 -209 OFFCURVE",
"574 -146 CURVE SMOOTH",
"487 -83 OFFCURVE",
"418 -49 OFFCURVE",
"324 -49 CURVE SMOOTH",
"227 -49 OFFCURVE",
"144 -86 OFFCURVE",
"119 -165 CURVE",
"139 -165 LINE",
"185 -128 OFFCURVE",
"248 -106 OFFCURVE",
"314 -106 CURVE SMOOTH",
"377 -106 OFFCURVE",
"447 -126 OFFCURVE",
"525 -182 CURVE SMOOTH",
"603 -240 OFFCURVE",
"656 -293 OFFCURVE",
"746 -293 CURVE SMOOTH",
"834 -293 OFFCURVE",
"919 -244 OFFCURVE",
"919 -134 CURVE SMOOTH",
"919 -82 OFFCURVE",
"901 -49 OFFCURVE",
"855 -49 CURVE SMOOTH",
"816 -49 OFFCURVE",
"796 -73 OFFCURVE",
"796 -108 CURVE"
);
}
);
width = 1007;
},
{
anchors = (
{
name = abvm;
position = "{680, 760}";
},
{
name = blwm;
position = "{693, -269}";
}
);
components = (
{
locked = 1;
name = uni1789.a;
}
);
layerId = "37E1EBAF-DBB8-42B6-8B14-41DF5B276D12";
paths = (
{
closed = 1;
nodes = (
"824 -82 OFFCURVE",
"841 -101 OFFCURVE",
"841 -143 CURVE SMOOTH",
"841 -190 OFFCURVE",
"795 -240 OFFCURVE",
"713 -240 CURVE SMOOTH",
"668 -240 OFFCURVE",
"616 -230 OFFCURVE",
"530 -167 CURVE SMOOTH",
"443 -104 OFFCURVE",
"383 -69 OFFCURVE",
"279 -69 CURVE SMOOTH",
"202 -69 OFFCURVE",
"131 -113 OFFCURVE",
"124 -166 CURVE",
"139 -166 LINE",
"162 -124 OFFCURVE",
"214 -95 OFFCURVE",
"276 -95 CURVE SMOOTH",
"343 -95 OFFCURVE",
"403 -109 OFFCURVE",
"481 -165 CURVE SMOOTH",
"560 -222 OFFCURVE",
"621 -266 OFFCURVE",
"707 -266 CURVE SMOOTH",
"781 -266 OFFCURVE",
"868 -225 OFFCURVE",
"868 -137 CURVE SMOOTH",
"868 -82 OFFCURVE",
"841 -49 OFFCURVE",
"813 -49 CURVE SMOOTH",
"797 -49 OFFCURVE",
"790 -61 OFFCURVE",
"791 -82 CURVE"
);
}
);
width = 1000;
},
{
anchors = (
{
name = abvm;
position = "{744, 760}";
},
{
name = blwm;
position = "{752, -302}";
}
);
components = (
{
locked = 1;
name = uni1789.a;
}
);
layerId = "33F44B55-ADBD-4698-98EB-0F29A0B3A069";
paths = (
{
closed = 1;
nodes = (
"825 -144 OFFCURVE",
"832 -162 OFFCURVE",
"832 -174 CURVE SMOOTH",
"832 -196 OFFCURVE",
"809 -216 OFFCURVE",
"768 -216 CURVE SMOOTH",
"728 -216 OFFCURVE",
"693 -198 OFFCURVE",
"607 -135 CURVE SMOOTH",
"520 -72 OFFCURVE",
"434 -49 OFFCURVE",
"330 -49 CURVE SMOOTH",
"222 -49 OFFCURVE",
"142 -78 OFFCURVE",
"100 -166 CURVE",
"120 -166 LINE",
"166 -135 OFFCURVE",
"226 -122 OFFCURVE",
"289 -122 CURVE SMOOTH",
"394 -122 OFFCURVE",
"463 -158 OFFCURVE",
"541 -214 CURVE SMOOTH",
"620 -271 OFFCURVE",
"699 -302 OFFCURVE",
"794 -302 CURVE SMOOTH",
"958 -302 OFFCURVE",
"1005 -222 OFFCURVE",
"1005 -157 CURVE SMOOTH",
"1005 -92 OFFCURVE",
"957 -62 OFFCURVE",
"899 -62 CURVE SMOOTH",
"835 -62 OFFCURVE",
"792 -98 OFFCURVE",
"792 -144 CURVE"
);
}
);
width = 1095;
},
{
anchors = (
{
name = abvm;
position = "{624, 760}";
},
{
name = blwm;
position = "{636, -302}";
}
);
components = (
{
locked = 1;
name = uni1789.a;
}
);
guideLines = (
{
position = "{253, 647}";
}
);
layerId = "2845A654-27C0-4D24-8E0C-7DAF9BC7668A";
paths = (
{
closed = 1;
nodes = (
"692 -144 OFFCURVE",
"698 -161 OFFCURVE",
"698 -173 CURVE SMOOTH",
"698 -197 OFFCURVE",
"676 -216 OFFCURVE",
"642 -216 CURVE SMOOTH",
"609 -216 OFFCURVE",
"582 -198 OFFCURVE",
"511 -135 CURVE SMOOTH",
"439 -71 OFFCURVE",
"366 -49 OFFCURVE",
"280 -49 CURVE SMOOTH",
"190 -49 OFFCURVE",
"123 -78 OFFCURVE",
"88 -166 CURVE",
"105 -166 LINE",
"143 -135 OFFCURVE",
"193 -122 OFFCURVE",
"246 -122 CURVE SMOOTH",
"333 -122 OFFCURVE",
"391 -158 OFFCURVE",
"456 -214 CURVE SMOOTH",
"521 -270 OFFCURVE",
"579 -302 OFFCURVE",
"661 -302 CURVE SMOOTH",
"803 -302 OFFCURVE",
"842 -222 OFFCURVE",
"842 -157 CURVE SMOOTH",
"842 -92 OFFCURVE",
"802 -62 OFFCURVE",
"754 -62 CURVE SMOOTH",
"701 -62 OFFCURVE",
"665 -98 OFFCURVE",
"665 -144 CURVE"
);
}
);
width = 952;
},
{
anchors = (
{
name = abvm;
position = "{604, 760}";
},
{
name = blwm;
position = "{567, -293}";
}
);
components = (
{
locked = 1;
name = uni1789.a;
}
);
layerId = "BB318BD9-DEF5-4D27-998D-30B020A0DD4F";
paths = (
{
closed = 1;
nodes = (
"668 -108 OFFCURVE",
"681 -123 OFFCURVE",
"681 -154 CURVE SMOOTH",
"681 -204 OFFCURVE",
"646 -228 OFFCURVE",
"603 -228 CURVE SMOOTH",
"564 -228 OFFCURVE",
"527 -209 OFFCURVE",
"455 -146 CURVE SMOOTH",
"383 -83 OFFCURVE",
"325 -49 OFFCURVE",
"247 -49 CURVE SMOOTH",
"166 -49 OFFCURVE",
"97 -86 OFFCURVE",
"76 -165 CURVE",
"93 -165 LINE",
"131 -128 OFFCURVE",
"184 -106 OFFCURVE",
"239 -106 CURVE SMOOTH",
"291 -106 OFFCURVE",
"349 -126 OFFCURVE",
"414 -182 CURVE SMOOTH",
"480 -239 OFFCURVE",
"524 -293 OFFCURVE",
"599 -293 CURVE SMOOTH",
"672 -293 OFFCURVE",
"743 -244 OFFCURVE",
"743 -134 CURVE SMOOTH",
"743 -82 OFFCURVE",
"728 -49 OFFCURVE",
"689 -49 CURVE SMOOTH",
"657 -49 OFFCURVE",
"640 -73 OFFCURVE",
"640 -108 CURVE"
);
}
);
width = 821;
},
{
anchors = (
{
name = abvm;
position = "{581, 760}";
},
{
name = blwm;
position = "{581, -269}";
}
);
components = (
{
locked = 1;
name = uni1789.a;
}
);
guideLines = (
{
position = "{292, 648}";
}
);
layerId = "1DC75306-0750-4696-AEC7-032F44743549";
paths = (
{
closed = 1;
nodes = (
"691 -82 OFFCURVE",
"706 -101 OFFCURVE",
"706 -143 CURVE SMOOTH",
"706 -190 OFFCURVE",
"667 -240 OFFCURVE",
"599 -240 CURVE SMOOTH",
"561 -240 OFFCURVE",
"518 -230 OFFCURVE",
"446 -167 CURVE SMOOTH",
"374 -104 OFFCURVE",
"324 -69 OFFCURVE",
"237 -69 CURVE SMOOTH",
"173 -69 OFFCURVE",
"114 -113 OFFCURVE",
"108 -166 CURVE",
"121 -166 LINE",
"140 -124 OFFCURVE",
"183 -95 OFFCURVE",
"235 -95 CURVE SMOOTH",
"291 -95 OFFCURVE",
"341 -109 OFFCURVE",
"406 -165 CURVE SMOOTH",
"471 -221 OFFCURVE",
"523 -266 OFFCURVE",
"594 -266 CURVE SMOOTH",
"656 -266 OFFCURVE",
"728 -225 OFFCURVE",
"728 -137 CURVE SMOOTH",
"728 -82 OFFCURVE",
"706 -49 OFFCURVE",
"682 -49 CURVE SMOOTH",
"669 -49 OFFCURVE",
"663 -61 OFFCURVE",
"664 -82 CURVE"
);
}
);
width = 854;
}
);
note = uni1789;
unicode = 1789;
},
{
glyphname = uni1789.a;
lastChange = "2016-11-17 19:08:58 +0000";
layers = (
{
anchors = (
{
name = abvm;
position = "{691, 760}";
},
{
name = blwm;
position = "{704, 0}";
},
{
name = blwm_self;
position = "{520, 0}";
}
);
components = (
{
locked = 1;
name = uni1796;
}
);
guideLines = (
{
angle = 180;
position = "{714, 512}";
}
);
layerId = "88BEB7F0-7448-46FF-842C-45A92B9492CE";
paths = (
{
closed = 1;
nodes = (
"475 0 LINE",
"567 0 LINE",
"567 512 LINE SMOOTH",
"567 582 OFFCURVE",
"629 615 OFFCURVE",
"695 615 CURVE SMOOTH",
"761 615 OFFCURVE",
"823 582 OFFCURVE",
"823 512 CURVE SMOOTH",
"823 0 LINE",
"915 0 LINE",
"915 512 LINE SMOOTH",
"915 628 OFFCURVE",
"825 682 OFFCURVE",
"695 682 CURVE SMOOTH",
"565 682 OFFCURVE",
"475 628 OFFCURVE",
"475 512 CURVE SMOOTH"
);
}
);
width = 1005;
},
{
anchors = (
{
name = abvm;
position = "{680, 760}";
},
{
name = blwm;
position = "{693, 0}";
},
{
name = blwm_self;
position = "{505, 0}";
}
);
components = (
{
locked = 1;
name = uni1796;
}
);
guideLines = (
{
angle = 180;
position = "{680, 536}";
}
);
layerId = "37E1EBAF-DBB8-42B6-8B14-41DF5B276D12";
paths = (
{
closed = 1;
nodes = (
"492 0 LINE",
"518 0 LINE",
"518 536 LINE SMOOTH",
"518 612 OFFCURVE",
"590 656 OFFCURVE",
"680 656 CURVE SMOOTH",
"770 656 OFFCURVE",
"842 604 OFFCURVE",
"842 536 CURVE SMOOTH",
"842 0 LINE",
"868 0 LINE",
"868 536 LINE SMOOTH",
"868 614 OFFCURVE",
"810 682 OFFCURVE",
"680 682 CURVE SMOOTH",
"550 682 OFFCURVE",
"492 607 OFFCURVE",
"492 536 CURVE SMOOTH"
);
}
);
width = 998;
},
{
anchors = (
{
name = abvm;
position = "{760, 760}";
},
{
name = blwm;
position = "{752, 0}";
},
{
name = blwm_self;
position = "{577, 0}";
}
);
components = (
{
locked = 1;
name = uni1796;
}
);
guideLines = (
{
angle = 180;
position = "{714, 472}";
},
{
angle = 180;
position = "{577, 0}";
}
);
layerId = "33F44B55-ADBD-4698-98EB-0F29A0B3A069";
paths = (
{
closed = 1;
nodes = (
"487 0 LINE",
"667 0 LINE",
"667 491 LINE SMOOTH",
"667 541 OFFCURVE",
"683 580 OFFCURVE",
"750 580 CURVE SMOOTH",
"817 580 OFFCURVE",
"833 541 OFFCURVE",
"833 491 CURVE SMOOTH",
"833 0 LINE",
"1013 0 LINE",
"1013 512 LINE SMOOTH",
"1013 590 OFFCURVE",
"950 682 OFFCURVE",
"750 682 CURVE SMOOTH",
"550 682 OFFCURVE",
"487 590 OFFCURVE",
"487 512 CURVE"
);
}
);
width = 1095;
},
{
anchors = (
{
name = abvm;
position = "{634, 760}";
},
{
name = blwm;
position = "{636, 0}";
},
{
name = blwm_self;
position = "{493, 0}";
}
);
components = (
{
locked = 1;
name = uni1796;
}
);
guideLines = (
{
angle = 180;
position = "{714, 472}";
}
);
layerId = "2845A654-27C0-4D24-8E0C-7DAF9BC7668A";
paths = (
{
closed = 1;
nodes = (
"416 0 LINE",
"566 0 LINE",
"566 491 LINE SMOOTH",
"566 541 OFFCURVE",
"578 580 OFFCURVE",
"634 580 CURVE SMOOTH",
"690 580 OFFCURVE",
"704 541 OFFCURVE",
"704 491 CURVE SMOOTH",
"704 0 LINE",
"854 0 LINE",
"854 512 LINE SMOOTH",
"854 590 OFFCURVE",
"802 682 OFFCURVE",
"635 682 CURVE SMOOTH",
"468 682 OFFCURVE",
"416 590 OFFCURVE",
"416 512 CURVE"
);
}
);
width = 954;
},
{
anchors = (
{
name = abvm;
position = "{548, 760}";
},
{
name = blwm;
position = "{567, 0}";
},
{
name = blwm_self;
position = "{414, 0}";
}
);
components = (
{
locked = 1;
name = uni1796;
transform = "{1, 0, 0, 1, -29, 0}";
}
);
layerId = "BB318BD9-DEF5-4D27-998D-30B020A0DD4F";
paths = (
{
closed = 1;
nodes = (
"376 0 LINE",
"453 0 LINE",
"453 512 LINE SMOOTH",
"453 582 OFFCURVE",
"504 615 OFFCURVE",
"559 615 CURVE SMOOTH",
"614 615 OFFCURVE",
"666 582 OFFCURVE",
"666 512 CURVE SMOOTH",
"666 0 LINE",
"743 0 LINE",
"743 512 LINE SMOOTH",
"743 628 OFFCURVE",
"668 682 OFFCURVE",
"559 682 CURVE SMOOTH",
"451 682 OFFCURVE",
"376 628 OFFCURVE",
"376 512 CURVE SMOOTH"
);
}
);
width = 823;
},
{
anchors = (
{
name = abvm;
position = "{581, 760}";
},
{
name = blwm;
position = "{581, 0}";
},
{
name = blwm_self;
position = "{428, 0}";
}
);
components = (
{
locked = 1;
name = uni1796;
}
);
layerId = "1DC75306-0750-4696-AEC7-032F44743549";
paths = (
{
closed = 1;
nodes = (
"415 0 LINE",
"441 0 LINE",
"441 536 LINE SMOOTH",
"441 612 OFFCURVE",
"487 656 OFFCURVE",
"573 656 CURVE SMOOTH",
"667 656 OFFCURVE",
"705 604 OFFCURVE",
"705 536 CURVE SMOOTH",
"705 0 LINE",
"731 0 LINE",
"731 536 LINE SMOOTH",
"731 614 OFFCURVE",
"700 682 OFFCURVE",
"573 682 CURVE SMOOTH",
"440 682 OFFCURVE",
"415 607 OFFCURVE",
"415 536 CURVE SMOOTH"
);
}
);
width = 855;
}
);
note = uni1789.a;
},
{
glyphname = uni178A;
lastChange = "2016-11-17 19:08:58 +0000";
layers = (
{
anchors = (
{
name = abvm;
position = "{332, 840}";
},
{
name = abvm_high;
position = "{312, 770}";
},
{
name = blwm;
position = "{332, 0}";
}
);
guideLines = (
{
position = "{508, 436}";
}
);
layerId = "88BEB7F0-7448-46FF-842C-45A92B9492CE";
paths = (
{
closed = 1;
nodes = (
"100 0 LINE",
"192 0 LINE",
"332 115 LINE",
"472 0 LINE",
"564 0 LINE",
"564 437 LINE",
"472 437 LINE",
"472 91 LINE",
"332 207 LINE",
"192 91 LINE",
"192 413 LINE",
"100 447 LINE"
);
},
{
closed = 1;
nodes = (
"245 590 OFFCURVE",
"226 567 OFFCURVE",
"205 557 CURVE",
"269 524 LINE",
"304 560 OFFCURVE",
"316 579 OFFCURVE",
"316 610 CURVE SMOOTH",
"316 664 OFFCURVE",
"278 705 OFFCURVE",
"210 705 CURVE SMOOTH",
"136 705 OFFCURVE",
"100 656 OFFCURVE",
"100 603 CURVE SMOOTH",
"100 515 OFFCURVE",
"198 466 OFFCURVE",
"318 466 CURVE SMOOTH",
"490 466 OFFCURVE",
"564 559 OFFCURVE",
"564 654 CURVE SMOOTH",
"564 722 OFFCURVE",
"529 783 OFFCURVE",
"470 783 CURVE SMOOTH",
"427 783 OFFCURVE",
"389 752 OFFCURVE",
"406 694 CURVE",
"450 701 OFFCURVE",
"472 669 OFFCURVE",
"472 633 CURVE SMOOTH",
"472 573 OFFCURVE",
"415 532 OFFCURVE",
"324 532 CURVE SMOOTH",
"238 532 OFFCURVE",
"171 566 OFFCURVE",
"171 606 CURVE SMOOTH",
"171 626 OFFCURVE",
"188 639 OFFCURVE",
"209 639 CURVE SMOOTH",
"232 639 OFFCURVE",
"245 623 OFFCURVE",
"245 608 CURVE SMOOTH"
);
}
);
width = 656;
},
{
anchors = (
{
name = abvm;
position = "{321, 840}";
},
{
name = abvm_high;
position = "{310, 750}";
},
{
name = blwm;
position = "{321, 0}";
}
);
guideLines = (
{
angle = 222.6952;
position = "{224, 100}";
},
{
position = "{508, 436}";
}
);
layerId = "37E1EBAF-DBB8-42B6-8B14-41DF5B276D12";
paths = (
{
closed = 1;
nodes = (
"121 0 LINE",
"153 0 LINE",
"321 155 LINE",
"489 0 LINE",
"521 0 LINE",
"521 436 LINE",
"495 436 LINE",
"495 29 LINE",
"321 189 LINE",
"147 29 LINE",
"147 416 LINE",
"121 428 LINE"
);
},
{
closed = 1;
nodes = (
"268 524 OFFCURVE",
"244 500 OFFCURVE",
"226 485 CURVE",
"255 477 LINE",
"282 508 OFFCURVE",
"295 532 OFFCURVE",
"295 561 CURVE SMOOTH",
"295 606 OFFCURVE",
"263 639 OFFCURVE",
"210 639 CURVE SMOOTH",
"150 639 OFFCURVE",
"123 596 OFFCURVE",
"123 557 CURVE SMOOTH",
"123 510 OFFCURVE",
"164 457 OFFCURVE",
"271 457 CURVE SMOOTH",
"433 457 OFFCURVE",
"508 560 OFFCURVE",
"508 650 CURVE SMOOTH",
"508 693 OFFCURVE",
"491 758 OFFCURVE",
"450 758 CURVE SMOOTH",
"434 758 OFFCURVE",
"422 748 OFFCURVE",
"426 723 CURVE",
"456 734 OFFCURVE",
"482 699 OFFCURVE",
"482 648 CURVE SMOOTH",
"482 545 OFFCURVE",
"379 483 OFFCURVE",
"266 483 CURVE SMOOTH",
"195 483 OFFCURVE",
"149 516 OFFCURVE",
"149 557 CURVE SMOOTH",
"149 583 OFFCURVE",
"167 613 OFFCURVE",
"210 613 CURVE SMOOTH",
"249 613 OFFCURVE",
"268 587 OFFCURVE",
"268 557 CURVE SMOOTH"
);
}
);
width = 651;
},
{
anchors = (
{
name = abvm;
position = "{355, 840}";
},
{
name = abvm_high;
position = "{355, 805}";
},
{
name = blwm;
position = "{355, 0}";
}
);
guideLines = (
{
position = "{508, 436}";
}
);
layerId = "33F44B55-ADBD-4698-98EB-0F29A0B3A069";
paths = (
{
closed = 1;
nodes = (
"92 0 LINE",
"265 0 LINE",
"367 56 LINE",
"469 0 LINE",
"642 0 LINE",
"642 416 LINE",
"462 416 LINE",
"462 117 LINE",
"367 169 LINE",
"272 117 LINE",
"272 400 LINE",
"92 451 LINE"
);
},
{
closed = 1;
nodes = (
"250 592 OFFCURVE",
"231 574 OFFCURVE",
"218 567 CURVE",
"300 511 LINE",
"333 539 OFFCURVE",
"358 578 OFFCURVE",
"358 623 CURVE SMOOTH",
"358 676 OFFCURVE",
"323 731 OFFCURVE",
"232 731 CURVE SMOOTH",
"151 731 OFFCURVE",
"92 682 OFFCURVE",
"92 604 CURVE SMOOTH",
"92 505 OFFCURVE",
"188 444 OFFCURVE",
"342 444 CURVE SMOOTH",
"510 444 OFFCURVE",
"642 538 OFFCURVE",
"642 675 CURVE SMOOTH",
"642 747 OFFCURVE",
"600 808 OFFCURVE",
"522 808 CURVE SMOOTH",
"438 808 OFFCURVE",
"421 737 OFFCURVE",
"421 690 CURVE",
"469 690 OFFCURVE",
"478 659 OFFCURVE",
"478 639 CURVE SMOOTH",
"478 603 OFFCURVE",
"449 546 OFFCURVE",
"342 546 CURVE SMOOTH",
"254 546 OFFCURVE",
"208 583 OFFCURVE",
"208 616 CURVE SMOOTH",
"208 630 OFFCURVE",
"216 642 OFFCURVE",
"230 642 CURVE SMOOTH",
"243 642 OFFCURVE",
"250 631 OFFCURVE",
"250 616 CURVE SMOOTH"
);
}
);
width = 737;
},
{
anchors = (
{
name = abvm;
position = "{320, 840}";
},
{
name = abvm_high;
position = "{302, 805}";
},
{
name = blwm;
position = "{320, 0}";
}
);
layerId = "2845A654-27C0-4D24-8E0C-7DAF9BC7668A";
paths = (
{
closed = 1;
nodes = (
"90 0 LINE",
"234 0 LINE",
"319 56 LINE",
"404 0 LINE",
"548 0 LINE",
"548 416 LINE",
"398 416 LINE",
"398 117 LINE",
"319 169 LINE",
"240 117 LINE",
"240 400 LINE",
"90 451 LINE"
);
},
{
closed = 1;
nodes = (
"222 592 OFFCURVE",
"206 574 OFFCURVE",
"195 567 CURVE",
"263 511 LINE",
"291 539 OFFCURVE",
"312 578 OFFCURVE",
"312 623 CURVE SMOOTH",
"312 676 OFFCURVE",
"283 731 OFFCURVE",
"207 731 CURVE SMOOTH",
"139 731 OFFCURVE",
"90 682 OFFCURVE",
"90 604 CURVE SMOOTH",
"90 505 OFFCURVE",
"172 444 OFFCURVE",
"292 444 CURVE SMOOTH",
"440 444 OFFCURVE",
"548 538 OFFCURVE",
"548 677 CURVE SMOOTH",
"548 747 OFFCURVE",
"518 808 OFFCURVE",
"456 808 CURVE SMOOTH",
"383 808 OFFCURVE",
"363 728 OFFCURVE",
"364 690 CURVE",
"404 690 OFFCURVE",
"412 659 OFFCURVE",
"412 639 CURVE SMOOTH",
"412 603 OFFCURVE",
"386 546 OFFCURVE",
"298 546 CURVE SMOOTH",
"225 546 OFFCURVE",
"187 583 OFFCURVE",
"187 616 CURVE SMOOTH",
"187 630 OFFCURVE",
"193 642 OFFCURVE",
"205 642 CURVE SMOOTH",
"216 642 OFFCURVE",
"222 631 OFFCURVE",
"222 616 CURVE SMOOTH"
);
}
);
width = 648;
},
{
anchors = (
{
name = abvm;
position = "{283, 840}";
},
{
name = abvm_high;
position = "{262, 770}";
},
{
name = blwm;
position = "{283, 0}";
}
);
layerId = "BB318BD9-DEF5-4D27-998D-30B020A0DD4F";
paths = (
{
closed = 1;
nodes = (
"90 0 LINE",
"167 0 LINE",
"283 115 LINE",
"400 0 LINE",
"477 0 LINE",
"477 437 LINE",
"400 437 LINE",
"400 91 LINE",
"283 207 LINE",
"167 91 LINE",
"167 413 LINE",
"90 447 LINE"
);
},
{
closed = 1;
nodes = (
"211 590 OFFCURVE",
"193 568 OFFCURVE",
"176 558 CURVE",
"231 524 LINE",
"260 560 OFFCURVE",
"270 582 OFFCURVE",
"270 614 CURVE SMOOTH",
"270 667 OFFCURVE",
"241 705 OFFCURVE",
"186 705 CURVE SMOOTH",
"122 705 OFFCURVE",
"90 654 OFFCURVE",
"90 599 CURVE SMOOTH",
"90 513 OFFCURVE",
"162 466 OFFCURVE",
"262 466 CURVE SMOOTH",
"405 466 OFFCURVE",
"477 559 OFFCURVE",
"477 659 CURVE SMOOTH",
"477 722 OFFCURVE",
"448 783 OFFCURVE",
"401 783 CURVE SMOOTH",
"363 783 OFFCURVE",
"326 743 OFFCURVE",
"345 694 CURVE",
"382 701 OFFCURVE",
"400 668 OFFCURVE",
"400 629 CURVE SMOOTH",
"400 572 OFFCURVE",
"361 532 OFFCURVE",
"280 532 CURVE SMOOTH",
"204 532 OFFCURVE",
"149 567 OFFCURVE",
"149 607 CURVE SMOOTH",
"149 628 OFFCURVE",
"163 638 OFFCURVE",
"180 638 CURVE SMOOTH",
"200 638 OFFCURVE",
"211 626 OFFCURVE",
"211 610 CURVE SMOOTH"
);
}
);
width = 567;
},
{
anchors = (
{
name = abvm;
position = "{280, 840}";
},
{
name = abvm_high;
position = "{257, 750}";
},
{
name = blwm;
position = "{280, 0}";
}
);
guideLines = (
{
angle = 222.6952;
position = "{213, 100}";
}
);
layerId = "1DC75306-0750-4696-AEC7-032F44743549";
paths = (
{
closed = 1;
nodes = (
"110 0 LINE",
"142 0 LINE",
"280 155 LINE",
"418 0 LINE",
"450 0 LINE",
"450 436 LINE",
"424 436 LINE",
"424 29 LINE",
"280 189 LINE",
"136 29 LINE",
"136 428 LINE",
"110 440 LINE"
);
},
{
closed = 1;
nodes = (
"237 524 OFFCURVE",
"219 502 OFFCURVE",
"199 484 CURVE",
"225 476 LINE",
"256 508 OFFCURVE",
"263 535 OFFCURVE",
"263 558 CURVE SMOOTH",
"263 609 OFFCURVE",
"229 634 OFFCURVE",
"188 634 CURVE SMOOTH",
"136 634 OFFCURVE",
"110 596 OFFCURVE",
"110 556 CURVE SMOOTH",
"110 496 OFFCURVE",
"168 458 OFFCURVE",
"250 458 CURVE SMOOTH",
"385 458 OFFCURVE",
"441 569 OFFCURVE",
"441 651 CURVE SMOOTH",
"441 696 OFFCURVE",
"425 758 OFFCURVE",
"384 758 CURVE SMOOTH",
"368 758 OFFCURVE",
"355 748 OFFCURVE",
"359 723 CURVE",
"389 734 OFFCURVE",
"415 703 OFFCURVE",
"415 645 CURVE SMOOTH",
"415 549 OFFCURVE",
"345 484 OFFCURVE",
"251 484 CURVE SMOOTH",
"201 484 OFFCURVE",
"136 503 OFFCURVE",
"136 554 CURVE SMOOTH",
"136 583 OFFCURVE",
"157 608 OFFCURVE",
"188 608 CURVE SMOOTH",
"216 608 OFFCURVE",
"237 589 OFFCURVE",
"237 555 CURVE SMOOTH"
);
}
);
width = 574;
}
);
note = uni178A;
unicode = 178A;
},
{
glyphname = uni178B;
lastChange = "2016-11-17 19:08:58 +0000";
layers = (
{
anchors = (
{
name = abvm;
position = "{357, 850}";
},
{
name = blwm;
position = "{357, 0}";
}
);
components = (
{
locked = 1;
name = looptop.left;
transform = "{1, 0, 0, 1, 1, -48}";
},
{
locked = 1;
name = votop;
transform = "{1, 0, 0, 1, 353, 0}";
}
);
layerId = "88BEB7F0-7448-46FF-842C-45A92B9492CE";
paths = (
{
closed = 1;
nodes = (
"487 379 LINE",
"487 146 LINE SMOOTH",
"487 108 OFFCURVE",
"430 67 OFFCURVE",
"357 67 CURVE SMOOTH",
"287 67 OFFCURVE",
"227 106 OFFCURVE",
"227 146 CURVE SMOOTH",
"227 379 LINE",
"135 379 LINE",
"135 146 LINE SMOOTH",
"135 72 OFFCURVE",
"235 0 OFFCURVE",
"357 0 CURVE SMOOTH",
"477 0 OFFCURVE",
"579 70 OFFCURVE",
"579 146 CURVE SMOOTH",
"579 379 LINE"
);
}
);
width = 692;
},
{
anchors = (
{
name = abvm;
position = "{355, 850}";
},
{
name = blwm;
position = "{355, 0}";
}
);
components = (
{
locked = 1;
name = looptop.left;
transform = "{1, 0, 0, 1, 0, -48}";
},
{
locked = 1;
name = votop;
transform = "{1, 0, 0, 1, 350, 0}";
}
);
layerId = "37E1EBAF-DBB8-42B6-8B14-41DF5B276D12";
paths = (
{
closed = 1;
nodes = (
"518 384 LINE",
"518 136 LINE SMOOTH",
"518 77 OFFCURVE",
"447 26 OFFCURVE",
"355 26 CURVE SMOOTH",
"265 26 OFFCURVE",
"192 76 OFFCURVE",
"192 136 CURVE SMOOTH",
"192 384 LINE",
"166 384 LINE",
"166 132 LINE SMOOTH",
"166 54 OFFCURVE",
"255 0 OFFCURVE",
"355 0 CURVE SMOOTH",
"455 0 OFFCURVE",
"544 62 OFFCURVE",
"544 132 CURVE SMOOTH",
"544 384 LINE"
);
}
);
width = 665;
},
{
anchors = (
{
name = abvm;
position = "{415, 850}";
},
{
name = blwm;
position = "{415, 0}";
}
);
components = (
{
locked = 1;
name = looptop.left;
transform = "{1, 0, 0, 1, 59, -48}";
},
{
locked = 1;
name = votop;
transform = "{1, 0, 0, 1, 413, 0}";
}
);
layerId = "33F44B55-ADBD-4698-98EB-0F29A0B3A069";
paths = (
{
closed = 1;
nodes = (
"502 399 LINE",
"502 176 LINE SMOOTH",
"502 122 OFFCURVE",
"475 102 OFFCURVE",
"415 102 CURVE SMOOTH",
"358 102 OFFCURVE",
"330 120 OFFCURVE",
"330 176 CURVE SMOOTH",
"330 399 LINE",
"150 399 LINE",
"150 146 LINE SMOOTH",
"150 61 OFFCURVE",
"254 0 OFFCURVE",
"415 0 CURVE SMOOTH",
"573 0 OFFCURVE",
"682 60 OFFCURVE",
"682 146 CURVE SMOOTH",
"682 399 LINE"
);
}
);
width = 791;
},
{
anchors = (
{
name = abvm;
position = "{368, 850}";
},
{
name = blwm;
position = "{368, 0}";
}
);
components = (
{
locked = 1;
name = looptop.left;
transform = "{1, 0, 0, 1, 79, -48}";
},
{
locked = 1;
name = votop;
transform = "{1, 0, 0, 1, 363, 0}";
}
);
layerId = "2845A654-27C0-4D24-8E0C-7DAF9BC7668A";
paths = (
{
closed = 1;
nodes = (
"440 399 LINE",
"440 176 LINE SMOOTH",
"440 122 OFFCURVE",
"418 102 OFFCURVE",
"368 102 CURVE SMOOTH",
"320 102 OFFCURVE",
"297 120 OFFCURVE",
"297 176 CURVE SMOOTH",
"297 399 LINE",
"147 399 LINE",
"147 146 LINE SMOOTH",
"147 61 OFFCURVE",
"234 0 OFFCURVE",
"368 0 CURVE SMOOTH",
"500 0 OFFCURVE",
"590 60 OFFCURVE",
"590 146 CURVE SMOOTH",
"590 399 LINE"
);
}
);
width = 702;
},
{
anchors = (
{
name = abvm;
position = "{300, 850}";
},
{
name = blwm;
position = "{300, 0}";
}
);
components = (
{
locked = 1;
name = looptop.left;
transform = "{1, 0, 0, 1, 0, -48}";
},
{
locked = 1;
name = votop;
transform = "{1, 0, 0, 1, 288, 0}";
}
);
layerId = "BB318BD9-DEF5-4D27-998D-30B020A0DD4F";
paths = (
{
closed = 1;
nodes = (
"408 379 LINE",
"408 146 LINE SMOOTH",
"408 108 OFFCURVE",
"361 67 OFFCURVE",
"300 67 CURVE SMOOTH",
"242 67 OFFCURVE",
"192 106 OFFCURVE",
"192 146 CURVE SMOOTH",
"192 379 LINE",
"115 379 LINE",
"115 146 LINE SMOOTH",
"115 72 OFFCURVE",
"198 0 OFFCURVE",
"300 0 CURVE SMOOTH",
"400 0 OFFCURVE",
"485 70 OFFCURVE",
"485 146 CURVE SMOOTH",
"485 379 LINE"
);
}
);
width = 579;
},
{
anchors = (
{
name = abvm;
position = "{285, 850}";
},
{
name = blwm;
position = "{285, 0}";
}
);
components = (
{
locked = 1;
name = looptop.left;
transform = "{1, 0, 0, 1, -40, -48}";
},
{
locked = 1;
name = votop;
transform = "{1, 0, 0, 1, 260, 0}";
}
);
guideLines = (
{
position = "{309, 448}";
}
);
layerId = "1DC75306-0750-4696-AEC7-032F44743549";
paths = (
{
closed = 1;
nodes = (
"418 384 LINE",
"418 136 LINE SMOOTH",
"418 77 OFFCURVE",
"347 26 OFFCURVE",
"285 26 CURVE SMOOTH",
"225 26 OFFCURVE",
"152 76 OFFCURVE",
"152 136 CURVE SMOOTH",
"152 384 LINE",
"126 384 LINE",
"126 132 LINE SMOOTH",
"126 54 OFFCURVE",
"215 0 OFFCURVE",
"285 0 CURVE SMOOTH",
"355 0 OFFCURVE",
"444 62 OFFCURVE",
"444 132 CURVE SMOOTH",
"444 384 LINE"
);
}
);
width = 565;
}
);
note = uni178B;
unicode = 178B;
},
{
glyphname = uni178C;
lastChange = "2016-11-17 19:08:58 +0000";
layers = (
{
anchors = (
{
name = abvm;
position = "{334, 760}";
},
{
name = blwm;
position = "{345, -49}";
}
);
components = (
{
locked = 1;
name = khadotoloop;
transform = "{1, 0, 0, 1, 45, 0}";
}
);
layerId = "88BEB7F0-7448-46FF-842C-45A92B9492CE";
paths = (
{
closed = 1;
nodes = (
"202 514 LINE",
"202 536 LINE SMOOTH",
"202 565 OFFCURVE",
"232 599 OFFCURVE",
"259 599 CURVE SMOOTH",
"280 599 OFFCURVE",
"308 578 OFFCURVE",
"342 535 CURVE",
"376 578 OFFCURVE",
"405 599 OFFCURVE",
"426 599 CURVE SMOOTH",
"450 599 OFFCURVE",
"482 568 OFFCURVE",
"482 536 CURVE SMOOTH",
"482 463 LINE SMOOTH",
"482 428 OFFCURVE",
"436 386 OFFCURVE",
"342 338 CURVE SMOOTH",
"110 219 LINE",
"110 122 LINE SMOOTH",
"110 36 OFFCURVE",
"162 0 OFFCURVE",
"226 0 CURVE SMOOTH",
"270 0 OFFCURVE",
"309 17 OFFCURVE",
"351 50 CURVE SMOOTH",
"409 97 OFFCURVE",
"450 130 OFFCURVE",
"482 130 CURVE",
"482 67 LINE SMOOTH",
"482 49 OFFCURVE",
"476 32 OFFCURVE",
"453 16 CURVE",
"453 -7 OFFCURVE",
"469 -29 OFFCURVE",
"510 -29 CURVE SMOOTH",
"553 -29 OFFCURVE",
"574 -4 OFFCURVE",
"574 44 CURVE SMOOTH",
"574 279 LINE",
"482 243 LINE",
"482 195 LINE",
"423 195 OFFCURVE",
"372 152 OFFCURVE",
"299 91 CURVE SMOOTH",
"282 77 OFFCURVE",
"264 70 OFFCURVE",
"246 70 CURVE SMOOTH",
"218 70 OFFCURVE",
"202 87 OFFCURVE",
"202 122 CURVE SMOOTH",
"202 191 LINE",
"388 287 LINE SMOOTH",
"512 351 OFFCURVE",
"574 407 OFFCURVE",
"574 463 CURVE SMOOTH",
"574 536 LINE SMOOTH",
"574 616 OFFCURVE",
"471 682 OFFCURVE",
"435 682 CURVE SMOOTH",
"414 682 OFFCURVE",
"384 660 OFFCURVE",
"342 617 CURVE",
"301 660 OFFCURVE",
"271 682 OFFCURVE",
"250 682 CURVE SMOOTH",
"213 682 OFFCURVE",
"110 616 OFFCURVE",
"110 536 CURVE SMOOTH",
"110 514 LINE"
);
}
);
width = 674;
},
{
anchors = (
{
name = abvm;
position = "{320, 760}";
},
{
name = blwm;
position = "{329, -49}";
}
);
components = (
{
locked = 1;
name = khadotoloop;
transform = "{1, 0, 0, 1, 64, 0}";
}
);
guideLines = (
{
position = "{257, 547}";
showMeasurement = 1;
}
);
layerId = "37E1EBAF-DBB8-42B6-8B14-41DF5B276D12";
paths = (
{
closed = 1;
nodes = (
"146 516 LINE",
"146 549 LINE SMOOTH",
"146 605 OFFCURVE",
"195 656 OFFCURVE",
"227 656 CURVE SMOOTH",
"251 656 OFFCURVE",
"285 628 OFFCURVE",
"318 587 CURVE",
"353 628 OFFCURVE",
"385 656 OFFCURVE",
"409 656 CURVE SMOOTH",
"438 656 OFFCURVE",
"490 616 OFFCURVE",
"490 560 CURVE SMOOTH",
"490 463 LINE SMOOTH",
"490 437 OFFCURVE",
"434 397 OFFCURVE",
"318 338 CURVE SMOOTH",
"120 237 LINE",
"120 122 LINE SMOOTH",
"120 36 OFFCURVE",
"177 0 OFFCURVE",
"228 0 CURVE SMOOTH",
"271 0 OFFCURVE",
"302 25 OFFCURVE",
"362 73 CURVE SMOOTH",
"424 122 OFFCURVE",
"463 156 OFFCURVE",
"490 166 CURVE",
"490 49 LINE SMOOTH",
"490 31 OFFCURVE",
"486 10 OFFCURVE",
"472 -1 CURVE",
"472 -16 OFFCURVE",
"479 -29 OFFCURVE",
"493 -29 CURVE SMOOTH",
"508 -29 OFFCURVE",
"516 -14 OFFCURVE",
"516 5 CURVE SMOOTH",
"516 273 LINE",
"490 262 LINE",
"490 197 LINE",
"462 187 OFFCURVE",
"389 130 OFFCURVE",
"352 99 CURVE SMOOTH",
"307 62 OFFCURVE",
"270 26 OFFCURVE",
"228 26 CURVE SMOOTH",
"181 26 OFFCURVE",
"146 74 OFFCURVE",
"146 109 CURVE SMOOTH",
"146 221 LINE",
"364 332 LINE SMOOTH",
"455 378 OFFCURVE",
"516 422 OFFCURVE",
"516 463 CURVE SMOOTH",
"516 558 LINE SMOOTH",
"516 638 OFFCURVE",
"445 682 OFFCURVE",
"409 682 CURVE SMOOTH",
"387 682 OFFCURVE",
"356 665 OFFCURVE",
"318 627 CURVE",
"282 665 OFFCURVE",
"253 682 OFFCURVE",
"229 682 CURVE SMOOTH",
"186 682 OFFCURVE",
"120 629 OFFCURVE",
"120 549 CURVE SMOOTH",
"120 516 LINE"
);
}
);
width = 636;
},
{
anchors = (
{
name = abvm;
position = "{358, 760}";
},
{
name = blwm;
position = "{366, -49}";
}
);
components = (
{
locked = 1;
name = khadotoloop;
transform = "{1, 0, 0, 1, 25, 0}";
}
);
layerId = "33F44B55-ADBD-4698-98EB-0F29A0B3A069";
paths = (
{
closed = 1;
nodes = (
"264 531 LINE",
"264 539 LINE SMOOTH",
"264 554 OFFCURVE",
"277 563 OFFCURVE",
"291 563 CURVE SMOOTH",
"306 563 OFFCURVE",
"327 552 OFFCURVE",
"361 529 CURVE",
"395 552 OFFCURVE",
"416 563 OFFCURVE",
"430 563 CURVE SMOOTH",
"450 563 OFFCURVE",
"458 543 OFFCURVE",
"458 511 CURVE SMOOTH",
"458 463 LINE SMOOTH",
"458 415 OFFCURVE",
"426 372 OFFCURVE",
"361 338 CURVE SMOOTH",
"84 196 LINE",
"84 122 LINE SMOOTH",
"84 36 OFFCURVE",
"150 0 OFFCURVE",
"232 0 CURVE SMOOTH",
"294 0 OFFCURVE",
"329 23 OFFCURVE",
"375 53 CURVE SMOOTH",
"425 86 OFFCURVE",
"446 93 OFFCURVE",
"458 94 CURVE",
"458 90 LINE SMOOTH",
"458 55 OFFCURVE",
"446 41 OFFCURVE",
"425 30 CURVE",
"425 -2 OFFCURVE",
"458 -39 OFFCURVE",
"527 -39 CURVE SMOOTH",
"602 -39 OFFCURVE",
"638 6 OFFCURVE",
"638 54 CURVE SMOOTH",
"638 279 LINE",
"458 235 LINE",
"458 209 LINE",
"423 204 OFFCURVE",
"397 191 OFFCURVE",
"363 162 CURVE SMOOTH",
"323 128 OFFCURVE",
"303 113 OFFCURVE",
"286 113 CURVE SMOOTH",
"276 113 OFFCURVE",
"264 118 OFFCURVE",
"264 148 CURVE SMOOTH",
"264 164 LINE",
"407 240 LINE SMOOTH",
"562 322 OFFCURVE",
"638 423 OFFCURVE",
"638 463 CURVE SMOOTH",
"638 536 LINE SMOOTH",
"638 616 OFFCURVE",
"549 682 OFFCURVE",
"475 682 CURVE SMOOTH",
"433 682 OFFCURVE",
"403 660 OFFCURVE",
"361 635 CURVE",
"320 660 OFFCURVE",
"290 682 OFFCURVE",
"255 682 CURVE SMOOTH",
"195 682 OFFCURVE",
"84 616 OFFCURVE",
"84 536 CURVE SMOOTH",
"84 531 LINE"
);
}
);
width = 718;
},
{
anchors = (
{
name = abvm;
position = "{326, 760}";
},
{
name = blwm;
position = "{340, -49}";
}
);
components = (
{
locked = 1;
name = khadotoloop;
transform = "{1, 0, 0, 1, 39, 0}";
}
);
layerId = "2845A654-27C0-4D24-8E0C-7DAF9BC7668A";
paths = (
{
closed = 1;
nodes = (
"248 531 LINE",
"248 539 LINE SMOOTH",
"248 554 OFFCURVE",
"256 563 OFFCURVE",
"267 563 CURVE SMOOTH",
"280 563 OFFCURVE",
"301 552 OFFCURVE",
"329 529 CURVE",
"357 552 OFFCURVE",
"377 563 OFFCURVE",
"389 563 CURVE SMOOTH",
"406 563 OFFCURVE",
"410 543 OFFCURVE",
"410 511 CURVE SMOOTH",
"410 463 LINE SMOOTH",
"410 415 OFFCURVE",
"383 372 OFFCURVE",
"329 338 CURVE SMOOTH",
"98 196 LINE",
"98 122 LINE SMOOTH",
"98 36 OFFCURVE",
"158 0 OFFCURVE",
"217 0 CURVE SMOOTH",
"262 0 OFFCURVE",
"301 26 OFFCURVE",
"341 53 CURVE SMOOTH",
"378 78 OFFCURVE",
"399 87 OFFCURVE",
"410 89 CURVE",
"410 79 LINE SMOOTH",
"410 44 OFFCURVE",
"400 31 OFFCURVE",
"382 20 CURVE",
"382 -3 OFFCURVE",
"400 -39 OFFCURVE",
"464 -39 CURVE SMOOTH",
"520 -39 OFFCURVE",
"560 -12 OFFCURVE",
"560 36 CURVE SMOOTH",
"560 279 LINE",
"410 235 LINE",
"410 200 LINE",
"386 196 OFFCURVE",
"361 186 OFFCURVE",
"333 161 CURVE SMOOTH",
"297 129 OFFCURVE",
"278 112 OFFCURVE",
"266 112 CURVE SMOOTH",
"258 112 OFFCURVE",
"248 117 OFFCURVE",
"248 143 CURVE SMOOTH",
"248 164 LINE",
"367 240 LINE SMOOTH",
"496 322 OFFCURVE",
"560 423 OFFCURVE",
"560 463 CURVE SMOOTH",
"560 536 LINE SMOOTH",
"560 616 OFFCURVE",
"486 682 OFFCURVE",
"420 682 CURVE SMOOTH",
"383 682 OFFCURVE",
"364 660 OFFCURVE",
"329 635 CURVE",
"295 660 OFFCURVE",
"273 682 OFFCURVE",
"243 682 CURVE SMOOTH",
"191 682 OFFCURVE",
"98 616 OFFCURVE",
"98 536 CURVE SMOOTH",
"98 531 LINE"
);
}
);
width = 658;
},
{
anchors = (
{
name = abvm;
position = "{287, 760}";
},
{
name = blwm;
position = "{303, -49}";
}
);
components = (
{
locked = 1;
name = khadotoloop;
transform = "{1, 0, 0, 1, 35, 0}";
}
);
layerId = "BB318BD9-DEF5-4D27-998D-30B020A0DD4F";
paths = (
{
closed = 1;
nodes = (
"177 514 LINE",
"177 536 LINE SMOOTH",
"177 565 OFFCURVE",
"202 599 OFFCURVE",
"224 599 CURVE SMOOTH",
"242 599 OFFCURVE",
"265 578 OFFCURVE",
"293 535 CURVE",
"322 578 OFFCURVE",
"346 599 OFFCURVE",
"363 599 CURVE SMOOTH",
"383 599 OFFCURVE",
"410 568 OFFCURVE",
"410 536 CURVE SMOOTH",
"410 463 LINE SMOOTH",
"410 428 OFFCURVE",
"372 386 OFFCURVE",
"293 338 CURVE SMOOTH",
"100 219 LINE",
"100 122 LINE SMOOTH",
"100 36 OFFCURVE",
"144 0 OFFCURVE",
"200 0 CURVE SMOOTH",
"238 0 OFFCURVE",
"266 17 OFFCURVE",
"301 50 CURVE SMOOTH",
"349 97 OFFCURVE",
"379 127 OFFCURVE",
"410 130 CURVE",
"410 63 LINE SMOOTH",
"410 45 OFFCURVE",
"401 27 OFFCURVE",
"382 16 CURVE",
"382 -7 OFFCURVE",
"399 -29 OFFCURVE",
"433 -29 CURVE SMOOTH",
"469 -29 OFFCURVE",
"487 -4 OFFCURVE",
"487 44 CURVE SMOOTH",
"487 279 LINE",
"410 243 LINE",
"410 195 LINE",
"362 192 OFFCURVE",
"318 150 OFFCURVE",
"277 110 CURVE SMOOTH",
"243 76 OFFCURVE",
"228 70 OFFCURVE",
"214 70 CURVE SMOOTH",
"190 70 OFFCURVE",
"177 87 OFFCURVE",
"177 122 CURVE SMOOTH",
"177 191 LINE",
"332 287 LINE SMOOTH",
"435 351 OFFCURVE",
"487 407 OFFCURVE",
"487 463 CURVE SMOOTH",
"487 536 LINE SMOOTH",
"487 616 OFFCURVE",
"401 682 OFFCURVE",
"371 682 CURVE SMOOTH",
"353 682 OFFCURVE",
"328 660 OFFCURVE",
"293 617 CURVE",
"259 660 OFFCURVE",
"234 682 OFFCURVE",
"216 682 CURVE SMOOTH",
"186 682 OFFCURVE",
"100 616 OFFCURVE",
"100 536 CURVE SMOOTH",
"100 514 LINE"
);
}
);
width = 567;
},
{
anchors = (
{
name = abvm;
position = "{293, 760}";
},
{
name = blwm;
position = "{300, -49}";
}
);
components = (
{
locked = 1;
name = khadotoloop;
transform = "{1, 0, 0, 1, 70, 0}";
}
);
layerId = "1DC75306-0750-4696-AEC7-032F44743549";
paths = (
{
closed = 1;
nodes = (
"152 516 LINE",
"152 549 LINE SMOOTH",
"152 600 OFFCURVE",
"186 656 OFFCURVE",
"222 656 CURVE SMOOTH",
"243 656 OFFCURVE",
"263 637 OFFCURVE",
"294 592 CURVE",
"328 638 OFFCURVE",
"348 656 OFFCURVE",
"371 656 CURVE SMOOTH",
"409 656 OFFCURVE",
"436 609 OFFCURVE",
"436 560 CURVE SMOOTH",
"436 463 LINE SMOOTH",
"436 437 OFFCURVE",
"385 393 OFFCURVE",
"294 338 CURVE SMOOTH",
"126 237 LINE",
"126 122 LINE SMOOTH",
"126 42 OFFCURVE",
"173 0 OFFCURVE",
"222 0 CURVE SMOOTH",
"272 0 OFFCURVE",
"311 42 OFFCURVE",
"339 72 CURVE SMOOTH",
"380 115 OFFCURVE",
"411 156 OFFCURVE",
"436 166 CURVE",
"436 49 LINE SMOOTH",
"436 31 OFFCURVE",
"432 10 OFFCURVE",
"418 -1 CURVE",
"418 -16 OFFCURVE",
"425 -29 OFFCURVE",
"439 -29 CURVE SMOOTH",
"454 -29 OFFCURVE",
"462 -14 OFFCURVE",
"462 5 CURVE SMOOTH",
"462 273 LINE",
"436 262 LINE",
"436 197 LINE",
"404 187 OFFCURVE",
"362 135 OFFCURVE",
"328 99 CURVE SMOOTH",
"294 63 OFFCURVE",
"259 26 OFFCURVE",
"222 26 CURVE SMOOTH",
"174 26 OFFCURVE",
"152 74 OFFCURVE",
"152 109 CURVE SMOOTH",
"152 221 LINE",
"340 335 LINE SMOOTH",
"404 374 OFFCURVE",
"462 422 OFFCURVE",
"462 463 CURVE SMOOTH",
"462 558 LINE SMOOTH",
"462 638 OFFCURVE",
"413 682 OFFCURVE",
"370 682 CURVE SMOOTH",
"344 682 OFFCURVE",
"315 665 OFFCURVE",
"294 632 CURVE",
"275 665 OFFCURVE",
"249 682 OFFCURVE",
"223 682 CURVE SMOOTH",
"177 682 OFFCURVE",
"126 629 OFFCURVE",
"126 549 CURVE SMOOTH",
"126 516 LINE"
);
}
);
width = 588;
}
);
note = uni178C;
unicode = 178C;
},
{
glyphname = uni178E;
lastChange = "2016-11-17 19:08:58 +0000";
layers = (
{
anchors = (
{
name = abvm;
position = "{669, 760}";
},
{
name = blwm;
position = "{669, 0}";
}
);
components = (
{
locked = 1;
name = loopleftsmall;
transform = "{1, 0, 0, 1, -20, 0}";
}
);
guideLines = (
{
angle = 41.3915;
position = "{57, 635}";
}
);
layerId = "88BEB7F0-7448-46FF-842C-45A92B9492CE";
paths = (
{
closed = 1;
nodes = (
"194 306 LINE",
"194 463 LINE",
"128 515 LINE",
"205 587 OFFCURVE",
"247 615 OFFCURVE",
"289 615 CURVE SMOOTH",
"362 615 OFFCURVE",
"450 530 OFFCURVE",
"450 464 CURVE SMOOTH",
"450 0 LINE",
"542 0 LINE",
"669 105 LINE",
"797 0 LINE",
"889 0 LINE",
"889 463 LINE",
"823 515 LINE",
"900 587 OFFCURVE",
"941 615 OFFCURVE",
"983 615 CURVE SMOOTH",
"1056 615 OFFCURVE",
"1145 530 OFFCURVE",
"1145 464 CURVE SMOOTH",
"1145 0 LINE",
"1237 0 LINE",
"1237 463 LINE SMOOTH",
"1237 524 OFFCURVE",
"1210 571 OFFCURVE",
"1144 622 CURVE SMOOTH",
"1081 670 OFFCURVE",
"1032 682 OFFCURVE",
"989 682 CURVE SMOOTH",
"940 682 OFFCURVE",
"904 667 OFFCURVE",
"843 614 CURVE SMOOTH",
"764 545 OFFCURVE",
"743 524 OFFCURVE",
"743 505 CURVE SMOOTH",
"743 491 OFFCURVE",
"753 476 OFFCURVE",
"797 438 CURVE",
"797 91 LINE",
"669 196 LINE",
"542 91 LINE",
"542 463 LINE SMOOTH",
"542 524 OFFCURVE",
"515 571 OFFCURVE",
"449 622 CURVE SMOOTH",
"386 670 OFFCURVE",
"341 682 OFFCURVE",
"297 682 CURVE SMOOTH",
"249 682 OFFCURVE",
"209 667 OFFCURVE",
"148 614 CURVE SMOOTH",
"69 545 OFFCURVE",
"48 523 OFFCURVE",
"48 504 CURVE SMOOTH",
"48 490 OFFCURVE",
"58 476 OFFCURVE",
"102 438 CURVE",
"102 306 LINE"
);
}
);
width = 1327;
},
{
anchors = (
{
name = abvm;
position = "{655, 760}";
},
{
name = blwm;
position = "{655, 0}";
}
);
components = (
{
locked = 1;
name = loopleftsmall;
transform = "{1, 0, 0, 1, -34, 0}";
}
);
guideLines = (
{
angle = 135;
position = "{737, 158}";
},
{
angle = 45.1854;
position = "{564, 101}";
},
{
angle = 41.3915;
position = "{99, 584}";
},
{
position = "{581, 192}";
showMeasurement = 1;
}
);
layerId = "37E1EBAF-DBB8-42B6-8B14-41DF5B276D12";
paths = (
{
closed = 1;
nodes = (
"146 307 LINE",
"146 454 LINE",
"90 499 LINE",
"129 560 OFFCURVE",
"191 656 OFFCURVE",
"279 656 CURVE SMOOTH",
"374 656 OFFCURVE",
"470 548 OFFCURVE",
"470 463 CURVE SMOOTH",
"470 0 LINE",
"501 0 LINE",
"655 155 LINE",
"810 0 LINE",
"841 0 LINE",
"841 454 LINE",
"785 499 LINE",
"824 560 OFFCURVE",
"886 656 OFFCURVE",
"974 656 CURVE SMOOTH",
"1069 656 OFFCURVE",
"1165 548 OFFCURVE",
"1165 463 CURVE SMOOTH",
"1165 0 LINE",
"1191 0 LINE",
"1191 463 LINE SMOOTH",
"1191 529 OFFCURVE",
"1155 579 OFFCURVE",
"1129 605 CURVE SMOOTH",
"1099 635 OFFCURVE",
"1046 682 OFFCURVE",
"976 682 CURVE SMOOTH",
"901 682 OFFCURVE",
"855 633 OFFCURVE",
"824 598 CURVE SMOOTH",
"800 570 OFFCURVE",
"759 519 OFFCURVE",
"759 497 CURVE SMOOTH",
"759 488 OFFCURVE",
"766 480 OFFCURVE",
"815 442 CURVE",
"815 33 LINE",
"655 192 LINE",
"496 33 LINE",
"496 463 LINE SMOOTH",
"496 529 OFFCURVE",
"460 579 OFFCURVE",
"434 605 CURVE SMOOTH",
"404 635 OFFCURVE",
"351 682 OFFCURVE",
"281 682 CURVE SMOOTH",
"206 682 OFFCURVE",
"160 633 OFFCURVE",
"129 598 CURVE SMOOTH",
"105 570 OFFCURVE",
"64 519 OFFCURVE",
"64 497 CURVE SMOOTH",
"64 488 OFFCURVE",
"71 480 OFFCURVE",
"120 442 CURVE",
"120 307 LINE"
);
}
);
width = 1322;
},
{
anchors = (
{
name = abvm;
position = "{693, 760}";
},
{
name = blwm;
position = "{693, 0}";
}
);
components = (
{
locked = 1;
name = loopleftsmall;
transform = "{1, 0, 0, 1, 5, 0}";
}
);
layerId = "33F44B55-ADBD-4698-98EB-0F29A0B3A069";
paths = (
{
closed = 1;
nodes = (
"264 307 LINE",
"264 462 LINE",
"184 504 LINE",
"207 542 OFFCURVE",
"253 580 OFFCURVE",
"318 580 CURVE SMOOTH",
"393 580 OFFCURVE",
"429 528 OFFCURVE",
"429 473 CURVE SMOOTH",
"429 0 LINE",
"602 0 LINE",
"693 53 LINE",
"785 0 LINE",
"958 0 LINE",
"958 462 LINE",
"878 504 LINE",
"901 542 OFFCURVE",
"947 580 OFFCURVE",
"1012 580 CURVE SMOOTH",
"1087 580 OFFCURVE",
"1122 528 OFFCURVE",
"1122 473 CURVE SMOOTH",
"1122 0 LINE",
"1302 0 LINE",
"1302 442 LINE SMOOTH",
"1302 509 OFFCURVE",
"1268 580 OFFCURVE",
"1203 627 CURVE SMOOTH",
"1145 670 OFFCURVE",
"1081 682 OFFCURVE",
"1021 682 CURVE SMOOTH",
"959 682 OFFCURVE",
"910 668 OFFCURVE",
"838 623 CURVE SMOOTH",
"762 576 OFFCURVE",
"724 525 OFFCURVE",
"724 491 CURVE SMOOTH",
"724 468 OFFCURVE",
"742 449 OFFCURVE",
"778 422 CURVE",
"778 127 LINE",
"693 180 LINE",
"609 127 LINE",
"609 442 LINE SMOOTH",
"609 509 OFFCURVE",
"574 580 OFFCURVE",
"509 627 CURVE SMOOTH",
"451 670 OFFCURVE",
"386 682 OFFCURVE",
"328 682 CURVE SMOOTH",
"264 682 OFFCURVE",
"216 668 OFFCURVE",
"144 623 CURVE SMOOTH",
"68 576 OFFCURVE",
"30 525 OFFCURVE",
"30 491 CURVE SMOOTH",
"30 468 OFFCURVE",
"48 449 OFFCURVE",
"84 422 CURVE",
"84 307 LINE"
);
}
);
width = 1382;
},
{
anchors = (
{
name = abvm;
position = "{579, 760}";
},
{
name = blwm;
position = "{579, 0}";
}
);
components = (
{
locked = 1;
name = loopleftsmall;
transform = "{1, 0, 0, 1, -8, 0}";
}
);
layerId = "2845A654-27C0-4D24-8E0C-7DAF9BC7668A";
paths = (
{
closed = 1;
nodes = (
"221 307 LINE",
"221 462 LINE",
"154 504 LINE",
"173 542 OFFCURVE",
"211 580 OFFCURVE",
"265 580 CURVE SMOOTH",
"328 580 OFFCURVE",
"359 528 OFFCURVE",
"359 473 CURVE SMOOTH",
"359 0 LINE",
"503 0 LINE",
"579 53 LINE",
"655 0 LINE",
"799 0 LINE",
"799 462 LINE",
"733 504 LINE",
"752 542 OFFCURVE",
"790 580 OFFCURVE",
"845 580 CURVE SMOOTH",
"907 580 OFFCURVE",
"936 528 OFFCURVE",
"936 473 CURVE SMOOTH",
"936 0 LINE",
"1086 0 LINE",
"1086 442 LINE SMOOTH",
"1086 509 OFFCURVE",
"1058 579 OFFCURVE",
"1004 627 CURVE SMOOTH",
"955 670 OFFCURVE",
"904 682 OFFCURVE",
"855 682 CURVE SMOOTH",
"803 682 OFFCURVE",
"759 669 OFFCURVE",
"699 623 CURVE SMOOTH",
"637 575 OFFCURVE",
"604 525 OFFCURVE",
"604 491 CURVE SMOOTH",
"604 468 OFFCURVE",
"619 449 OFFCURVE",
"649 422 CURVE",
"649 127 LINE",
"579 180 LINE",
"509 127 LINE",
"509 442 LINE SMOOTH",
"509 509 OFFCURVE",
"479 579 OFFCURVE",
"425 627 CURVE SMOOTH",
"377 670 OFFCURVE",
"326 682 OFFCURVE",
"276 682 CURVE SMOOTH",
"224 682 OFFCURVE",
"181 669 OFFCURVE",
"121 623 CURVE SMOOTH",
"59 575 OFFCURVE",
"26 525 OFFCURVE",
"26 491 CURVE SMOOTH",
"26 468 OFFCURVE",
"41 449 OFFCURVE",
"71 422 CURVE",
"71 307 LINE"
);
}
);
width = 1186;
},
{
anchors = (
{
name = abvm;
position = "{586, 760}";
},
{
name = blwm;
position = "{586, 0}";
}
);
components = (
{
locked = 1;
name = loopleftsmall;
transform = "{1, 0, 0, 1, -9, 0}";
}
);
guideLines = (
{
angle = 41.3915;
position = "{121, 585}";
}
);
layerId = "BB318BD9-DEF5-4D27-998D-30B020A0DD4F";
paths = (
{
closed = 1;
nodes = (
"190 306 LINE",
"190 463 LINE",
"135 515 LINE",
"199 587 OFFCURVE",
"233 615 OFFCURVE",
"268 615 CURVE SMOOTH",
"329 615 OFFCURVE",
"403 530 OFFCURVE",
"403 464 CURVE SMOOTH",
"403 0 LINE",
"480 0 LINE",
"586 105 LINE",
"692 0 LINE",
"769 0 LINE",
"769 463 LINE",
"714 515 LINE",
"778 587 OFFCURVE",
"812 615 OFFCURVE",
"847 615 CURVE SMOOTH",
"908 615 OFFCURVE",
"982 530 OFFCURVE",
"982 464 CURVE SMOOTH",
"982 0 LINE",
"1059 0 LINE",
"1059 463 LINE SMOOTH",
"1059 524 OFFCURVE",
"1038 573 OFFCURVE",
"993 618 CURVE SMOOTH",
"941 669 OFFCURVE",
"899 682 OFFCURVE",
"866 682 CURVE SMOOTH",
"822 682 OFFCURVE",
"781 660 OFFCURVE",
"731 616 CURVE SMOOTH",
"659 552 OFFCURVE",
"647 523 OFFCURVE",
"647 505 CURVE SMOOTH",
"647 490 OFFCURVE",
"656 476 OFFCURVE",
"692 438 CURVE",
"692 91 LINE",
"586 196 LINE",
"480 91 LINE",
"480 463 LINE SMOOTH",
"480 524 OFFCURVE",
"459 573 OFFCURVE",
"414 618 CURVE SMOOTH",
"362 670 OFFCURVE",
"320 682 OFFCURVE",
"287 682 CURVE SMOOTH",
"243 682 OFFCURVE",
"202 660 OFFCURVE",
"151 616 CURVE SMOOTH",
"79 554 OFFCURVE",
"68 523 OFFCURVE",
"68 505 CURVE SMOOTH",
"68 490 OFFCURVE",
"76 476 OFFCURVE",
"113 438 CURVE",
"113 306 LINE"
);
}
);
width = 1142;
},
{
anchors = (
{
name = abvm;
position = "{561, 760}";
},
{
name = blwm;
position = "{561, 0}";
}
);
components = (
{
locked = 1;
name = loopleftsmall;
transform = "{1, 0, 0, 1, -38, 0}";
}
);
guideLines = (
{
angle = 135;
position = "{743, 96}";
},
{
angle = 45.1854;
position = "{560, 101}";
},
{
angle = 41.3915;
position = "{95, 584}";
}
);
layerId = "1DC75306-0750-4696-AEC7-032F44743549";
paths = (
{
closed = 1;
nodes = (
"142 307 LINE",
"142 454 LINE",
"86 499 LINE",
"121 560 OFFCURVE",
"177 656 OFFCURVE",
"246 656 CURVE SMOOTH",
"320 656 OFFCURVE",
"406 548 OFFCURVE",
"406 463 CURVE SMOOTH",
"406 0 LINE",
"437 0 LINE",
"561 145 LINE",
"686 0 LINE",
"717 0 LINE",
"717 454 LINE",
"661 499 LINE",
"695 560 OFFCURVE",
"752 656 OFFCURVE",
"821 656 CURVE SMOOTH",
"895 656 OFFCURVE",
"981 548 OFFCURVE",
"981 463 CURVE SMOOTH",
"981 0 LINE",
"1007 0 LINE",
"1007 463 LINE SMOOTH",
"1007 529 OFFCURVE",
"974 582 OFFCURVE",
"944 614 CURVE SMOOTH",
"917 643 OFFCURVE",
"868 682 OFFCURVE",
"819 682 CURVE SMOOTH",
"770 682 OFFCURVE",
"729 642 OFFCURVE",
"699 604 CURVE SMOOTH",
"676 575 OFFCURVE",
"635 519 OFFCURVE",
"635 497 CURVE SMOOTH",
"635 488 OFFCURVE",
"642 480 OFFCURVE",
"691 442 CURVE",
"691 33 LINE",
"561 182 LINE",
"432 33 LINE",
"432 463 LINE SMOOTH",
"432 529 OFFCURVE",
"399 582 OFFCURVE",
"369 614 CURVE SMOOTH",
"342 643 OFFCURVE",
"293 682 OFFCURVE",
"244 682 CURVE SMOOTH",
"195 682 OFFCURVE",
"155 642 OFFCURVE",
"124 604 CURVE SMOOTH",
"101 575 OFFCURVE",
"60 519 OFFCURVE",
"60 497 CURVE SMOOTH",
"60 488 OFFCURVE",
"67 480 OFFCURVE",
"116 442 CURVE",
"116 307 LINE"
);
}
);
width = 1129;
}
);
note = uni178E;
unicode = 178E;
},
{
glyphname = uni1790;
lastChange = "2016-11-17 19:08:58 +0000";
layers = (
{
anchors = (
{
name = abvm;
position = "{309, 860}";
},
{
name = abvm_high;
position = "{310, 840}";
},
{
name = blwm;
position = "{333, 0}";
}
);
components = (
{
locked = 1;
name = loopbottom.left;
transform = "{1, 0, 0, 1, 167, 0}";
},
{
locked = 1;
name = topcurl;
transform = "{1, 0, 0, 1, -21, 0}";
}
);
layerId = "88BEB7F0-7448-46FF-842C-45A92B9492CE";
paths = (
{
closed = 1;
nodes = (
"101 410 LINE",
"101 146 LINE SMOOTH",
"101 70 OFFCURVE",
"207 0 OFFCURVE",
"333 0 CURVE SMOOTH",
"459 0 OFFCURVE",
"565 70 OFFCURVE",
"565 146 CURVE SMOOTH",
"565 204 LINE",
"473 204 LINE",
"473 146 LINE SMOOTH",
"473 104 OFFCURVE",
"411 67 OFFCURVE",
"333 67 CURVE SMOOTH",
"255 67 OFFCURVE",
"193 104 OFFCURVE",
"193 146 CURVE SMOOTH",
"193 410 LINE"
);
}
);
width = 656;
},
{
anchors = (
{
name = abvm;
position = "{308, 860}";
},
{
name = abvm_high;
position = "{309, 860}";
},
{
name = blwm;
position = "{312, 0}";
}
);
components = (
{
locked = 1;
name = loopbottom.left;
transform = "{1, 0, 0, 1, 95, -10}";
},
{
locked = 1;
name = topcurl;
transform = "{1, 0, 0, 1, -42, 0}";
}
);
layerId = "37E1EBAF-DBB8-42B6-8B14-41DF5B276D12";
paths = (
{
closed = 1;
nodes = (
"112 455 LINE",
"112 136 LINE SMOOTH",
"112 66 OFFCURVE",
"208 0 OFFCURVE",
"312 0 CURVE SMOOTH",
"416 0 OFFCURVE",
"510 66 OFFCURVE",
"510 136 CURVE SMOOTH",
"510 222 LINE",
"484 222 LINE",
"484 136 LINE SMOOTH",
"484 84 OFFCURVE",
"399 26 OFFCURVE",
"312 26 CURVE SMOOTH",
"225 26 OFFCURVE",
"138 84 OFFCURVE",
"138 136 CURVE SMOOTH",
"138 455 LINE"
);
}
);
width = 641;
},
{
anchors = (
{
name = abvm;
position = "{370, 860}";
},
{
name = abvm_high;
position = "{371, 850}";
},
{
name = blwm;
position = "{375, 0}";
}
);
components = (
{
locked = 1;
name = loopbottom.left;
transform = "{1, 0, 0, 1, 276, 3}";
},
{
locked = 1;
name = topcurl;
transform = "{1, 0, 0, 1, 20, 5}";
}
);
guideLines = (
{
position = "{375, 166}";
},
{
position = "{648, 438}";
}
);
layerId = "33F44B55-ADBD-4698-98EB-0F29A0B3A069";
paths = (
{
closed = 1;
nodes = (
"99 360 LINE",
"99 146 LINE SMOOTH",
"99 60 OFFCURVE",
"209 0 OFFCURVE",
"375 0 CURVE SMOOTH",
"541 0 OFFCURVE",
"651 60 OFFCURVE",
"651 146 CURVE SMOOTH",
"651 188 LINE",
"471 188 LINE",
"471 171 LINE SMOOTH",
"471 131 OFFCURVE",
"445 102 OFFCURVE",
"375 102 CURVE SMOOTH",
"305 102 OFFCURVE",
"279 131 OFFCURVE",
"279 181 CURVE SMOOTH",
"279 360 LINE"
);
}
);
width = 746;
},
{
anchors = (
{
name = abvm;
position = "{325, 860}";
},
{
name = abvm_high;
position = "{326, 850}";
},
{
name = blwm;
position = "{325, 0}";
}
);
components = (
{
locked = 1;
name = loopbottom.left;
transform = "{1, 0, 0, 1, 231, 3}";
},
{
locked = 1;
name = topcurl;
transform = "{1, 0, 0, 1, 24, 5}";
}
);
guideLines = (
{
position = "{648, 438}";
}
);
layerId = "2845A654-27C0-4D24-8E0C-7DAF9BC7668A";
paths = (
{
closed = 1;
nodes = (
"95 360 LINE",
"95 146 LINE SMOOTH",
"95 60 OFFCURVE",
"187 0 OFFCURVE",
"325 0 CURVE SMOOTH",
"463 0 OFFCURVE",
"555 60 OFFCURVE",
"555 146 CURVE SMOOTH",
"555 184 LINE",
"405 184 LINE",
"405 171 LINE SMOOTH",
"405 131 OFFCURVE",
"383 102 OFFCURVE",
"325 102 CURVE SMOOTH",
"267 102 OFFCURVE",
"245 131 OFFCURVE",
"245 181 CURVE SMOOTH",
"245 360 LINE"
);
}
);
width = 655;
},
{
anchors = (
{
name = abvm;
position = "{283, 860}";
},
{
name = abvm_high;
position = "{284, 840}";
},
{
name = blwm;
position = "{289, 0}";
}
);
components = (
{
locked = 1;
name = loopbottom.left;
transform = "{1, 0, 0, 1, 117, 0}";
},
{
locked = 1;
name = topcurl;
transform = "{1, 0, 0, 1, -19, 0}";
}
);
guideLines = (
{
position = "{289, 146}";
}
);
layerId = "BB318BD9-DEF5-4D27-998D-30B020A0DD4F";
paths = (
{
closed = 1;
nodes = (
"95 410 LINE",
"95 146 LINE SMOOTH",
"95 70 OFFCURVE",
"183 0 OFFCURVE",
"288 0 CURVE SMOOTH",
"393 0 OFFCURVE",
"482 70 OFFCURVE",
"482 146 CURVE SMOOTH",
"482 204 LINE",
"405 204 LINE",
"405 146 LINE SMOOTH",
"405 104 OFFCURVE",
"353 67 OFFCURVE",
"288 67 CURVE SMOOTH",
"223 67 OFFCURVE",
"172 104 OFFCURVE",
"172 146 CURVE SMOOTH",
"172 410 LINE"
);
}
);
width = 565;
},
{
anchors = (
{
name = abvm;
position = "{271, 860}";
},
{
name = abvm_high;
position = "{272, 830}";
},
{
name = blwm;
position = "{274, 0}";
}
);
components = (
{
locked = 1;
name = loopbottom.left;
transform = "{1, 0, 0, 1, 41, -10}";
},
{
locked = 1;
name = topcurl;
transform = "{1, 0, 0, 1, -40, 0}";
}
);
layerId = "1DC75306-0750-4696-AEC7-032F44743549";
paths = (
{
closed = 1;
nodes = (
"104 455 LINE",
"104 126 LINE SMOOTH",
"104 61 OFFCURVE",
"178 0 OFFCURVE",
"274 0 CURVE SMOOTH",
"369 0 OFFCURVE",
"442 58 OFFCURVE",
"442 126 CURVE SMOOTH",
"442 222 LINE",
"416 222 LINE",
"416 126 LINE SMOOTH",
"416 80 OFFCURVE",
"348 26 OFFCURVE",
"274 26 CURVE SMOOTH",
"202 26 OFFCURVE",
"130 79 OFFCURVE",
"130 126 CURVE SMOOTH",
"130 455 LINE"
);
}
);
width = 564;
}
);
note = uni1790;
unicode = 1790;
},
{
glyphname = uni1791;
lastChange = "2016-11-17 19:08:58 +0000";
layers = (
{
anchors = (
{
name = abvm;
position = "{276, 760}";
},
{
name = blwm;
position = "{269, 0}";
}
);
guideLines = (
{
position = "{265, 145}";
}
);
layerId = "88BEB7F0-7448-46FF-842C-45A92B9492CE";
paths = (
{
closed = 1;
nodes = (
"119 138 LINE SMOOTH",
"119 42 OFFCURVE",
"178 0 OFFCURVE",
"265 0 CURVE SMOOTH",
"366 0 OFFCURVE",
"415 49 OFFCURVE",
"415 147 CURVE SMOOTH",
"415 221 LINE",
"487 229 OFFCURVE",
"517 263 OFFCURVE",
"517 306 CURVE SMOOTH",
"517 345 OFFCURVE",
"492 366 OFFCURVE",
"444 366 CURVE SMOOTH",
"371 366 OFFCURVE",
"335 319 OFFCURVE",
"323 288 CURVE",
"282 288 LINE SMOOTH",
"198 288 OFFCURVE",
"142 339 OFFCURVE",
"142 421 CURVE SMOOTH",
"142 536 LINE SMOOTH",
"142 576 OFFCURVE",
"197 615 OFFCURVE",
"285 615 CURVE SMOOTH",
"360 615 OFFCURVE",
"422 586 OFFCURVE",
"422 546 CURVE",
"378 546 OFFCURVE",
"345 529 OFFCURVE",
"345 479 CURVE SMOOTH",
"345 438 OFFCURVE",
"368 413 OFFCURVE",
"429 413 CURVE SMOOTH",
"484 413 OFFCURVE",
"514 430 OFFCURVE",
"514 485 CURVE SMOOTH",
"514 533 LINE SMOOTH",
"514 614 OFFCURVE",
"424 682 OFFCURVE",
"282 682 CURVE SMOOTH",
"154 682 OFFCURVE",
"50 614 OFFCURVE",
"50 536 CURVE SMOOTH",
"50 421 LINE SMOOTH",
"50 306 OFFCURVE",
"140 221 OFFCURVE",
"282 221 CURVE SMOOTH",
"323 221 LINE",
"323 145 LINE SMOOTH",
"323 95 OFFCURVE",
"299 67 OFFCURVE",
"265 67 CURVE SMOOTH",
"231 67 OFFCURVE",
"206 95 OFFCURVE",
"206 145 CURVE SMOOTH",
"206 180 LINE",
"119 180 LINE"
);
},
{
closed = 1;
nodes = (
"459 319 OFFCURVE",
"463 315 OFFCURVE",
"463 310 CURVE SMOOTH",
"463 300 OFFCURVE",
"448 288 OFFCURVE",
"415 288 CURVE",
"422 305 OFFCURVE",
"435 319 OFFCURVE",
"451 319 CURVE SMOOTH"
);
},
{
closed = 1;
nodes = (
"402 451 OFFCURVE",
"394 465 OFFCURVE",
"394 481 CURVE SMOOTH",
"394 497 OFFCURVE",
"402 510 OFFCURVE",
"422 510 CURVE",
"422 451 LINE"
);
}
);
width = 587;
},
{
anchors = (
{
name = abvm;
position = "{268, 760}";
},
{
name = blwm;
position = "{243, 0}";
}
);
layerId = "37E1EBAF-DBB8-42B6-8B14-41DF5B276D12";
paths = (
{
closed = 1;
nodes = (
"113 142 LINE SMOOTH",
"113 31 OFFCURVE",
"184 0 OFFCURVE",
"236 0 CURVE SMOOTH",
"288 0 OFFCURVE",
"354 31 OFFCURVE",
"354 142 CURVE SMOOTH",
"354 260 LINE",
"417 260 OFFCURVE",
"481 288 OFFCURVE",
"481 335 CURVE SMOOTH",
"481 361 OFFCURVE",
"460 379 OFFCURVE",
"427 379 CURVE SMOOTH",
"369 379 OFFCURVE",
"335 325 OFFCURVE",
"328 286 CURVE",
"244 286 LINE SMOOTH",
"160 286 OFFCURVE",
"86 352 OFFCURVE",
"86 434 CURVE SMOOTH",
"86 539 LINE SMOOTH",
"86 599 OFFCURVE",
"164 656 OFFCURVE",
"262 656 CURVE SMOOTH",
"361 656 OFFCURVE",
"442 600 OFFCURVE",
"442 550 CURVE",
"405 550 OFFCURVE",
"377 520 OFFCURVE",
"377 482 CURVE SMOOTH",
"377 442 OFFCURVE",
"409 413 OFFCURVE",
"438 413 CURVE SMOOTH",
"453 413 OFFCURVE",
"468 420 OFFCURVE",
"468 446 CURVE SMOOTH",
"468 548 LINE SMOOTH",
"468 613 OFFCURVE",
"382 682 OFFCURVE",
"262 682 CURVE SMOOTH",
"151 682 OFFCURVE",
"60 614 OFFCURVE",
"60 536 CURVE SMOOTH",
"60 434 LINE SMOOTH",
"60 319 OFFCURVE",
"150 260 OFFCURVE",
"250 260 CURVE SMOOTH",
"328 260 LINE",
"328 144 LINE SMOOTH",
"328 59 OFFCURVE",
"283 26 OFFCURVE",
"236 26 CURVE SMOOTH",
"185 26 OFFCURVE",
"139 59 OFFCURVE",
"139 140 CURVE SMOOTH",
"139 193 LINE",
"113 193 LINE"
);
},
{
closed = 1;
nodes = (
"448 353 OFFCURVE",
"455 344 OFFCURVE",
"455 333 CURVE SMOOTH",
"455 296 OFFCURVE",
"381 287 OFFCURVE",
"355 286 CURVE",
"359 299 OFFCURVE",
"375 353 OFFCURVE",
"427 353 CURVE SMOOTH"
);
},
{
closed = 1;
nodes = (
"414 438 OFFCURVE",
"403 461 OFFCURVE",
"403 481 CURVE SMOOTH",
"403 500 OFFCURVE",
"412 524 OFFCURVE",
"442 524 CURVE",
"442 438 LINE"
);
}
);
width = 541;
},
{
anchors = (
{
name = abvm;
position = "{344, 760}";
},
{
name = blwm;
position = "{320, 0}";
}
);
guideLines = (
{
position = "{332, 277}";
},
{
angle = 180;
position = "{316, 47}";
}
);
layerId = "33F44B55-ADBD-4698-98EB-0F29A0B3A069";
paths = (
{
closed = 1;
nodes = (
"114 119 LINE SMOOTH",
"114 57 OFFCURVE",
"168 0 OFFCURVE",
"316 0 CURVE SMOOTH",
"464 0 OFFCURVE",
"518 57 OFFCURVE",
"518 119 CURVE SMOOTH",
"518 177 LINE",
"601 186 OFFCURVE",
"632 243 OFFCURVE",
"632 283 CURVE SMOOTH",
"632 315 OFFCURVE",
"613 366 OFFCURVE",
"522 366 CURVE SMOOTH",
"421 366 OFFCURVE",
"363 311 OFFCURVE",
"338 269 CURVE",
"325 269 LINE SMOOTH",
"284 269 OFFCURVE",
"240 311 OFFCURVE",
"240 395 CURVE SMOOTH",
"240 498 LINE SMOOTH",
"240 547 OFFCURVE",
"259 580 OFFCURVE",
"357 580 CURVE SMOOTH",
"405 580 OFFCURVE",
"458 572 OFFCURVE",
"461 549 CURVE",
"387 549 OFFCURVE",
"360 517 OFFCURVE",
"360 470 CURVE SMOOTH",
"360 424 OFFCURVE",
"386 384 OFFCURVE",
"484 384 CURVE SMOOTH",
"610 384 OFFCURVE",
"638 459 OFFCURVE",
"638 505 CURVE SMOOTH",
"638 529 LINE SMOOTH",
"638 614 OFFCURVE",
"527 682 OFFCURVE",
"349 682 CURVE SMOOTH",
"161 682 OFFCURVE",
"60 623 OFFCURVE",
"60 516 CURVE SMOOTH",
"60 405 LINE SMOOTH",
"60 280 OFFCURVE",
"193 177 OFFCURVE",
"331 177 CURVE SMOOTH",
"338 177 LINE",
"338 137 LINE SMOOTH",
"338 119 OFFCURVE",
"334 102 OFFCURVE",
"316 102 CURVE SMOOTH",
"299 102 OFFCURVE",
"294 119 OFFCURVE",
"294 138 CURVE SMOOTH",
"294 144 LINE",
"114 144 LINE"
);
},
{
closed = 1;
nodes = (
"555 297 OFFCURVE",
"559 293 OFFCURVE",
"559 288 CURVE SMOOTH",
"559 278 OFFCURVE",
"543 271 OFFCURVE",
"517 269 CURVE",
"521 280 OFFCURVE",
"531 297 OFFCURVE",
"547 297 CURVE SMOOTH"
);
},
{
closed = 1;
nodes = (
"444 448 OFFCURVE",
"436 457 OFFCURVE",
"436 473 CURVE SMOOTH",
"436 494 OFFCURVE",
"450 497 OFFCURVE",
"461 497 CURVE",
"461 448 LINE"
);
}
);
width = 702;
},
{
anchors = (
{
name = abvm;
position = "{277, 760}";
},
{
name = blwm;
position = "{257, 0}";
}
);
guideLines = (
{
position = "{312, 277}";
}
);
layerId = "2845A654-27C0-4D24-8E0C-7DAF9BC7668A";
paths = (
{
closed = 1;
nodes = (
"85 129 LINE SMOOTH",
"85 63 OFFCURVE",
"135 0 OFFCURVE",
"255 0 CURVE SMOOTH",
"375 0 OFFCURVE",
"422 63 OFFCURVE",
"422 129 CURVE SMOOTH",
"422 177 LINE",
"491 186 OFFCURVE",
"521 245 OFFCURVE",
"521 286 CURVE SMOOTH",
"521 317 OFFCURVE",
"504 366 OFFCURVE",
"425 366 CURVE SMOOTH",
"341 366 OFFCURVE",
"293 311 OFFCURVE",
"272 269 CURVE",
"261 269 LINE SMOOTH",
"227 269 OFFCURVE",
"190 311 OFFCURVE",
"190 395 CURVE SMOOTH",
"190 498 LINE SMOOTH",
"190 547 OFFCURVE",
"208 580 OFFCURVE",
"290 580 CURVE SMOOTH",
"330 580 OFFCURVE",
"374 572 OFFCURVE",
"374 549 CURVE",
"313 549 OFFCURVE",
"290 517 OFFCURVE",
"290 470 CURVE SMOOTH",
"290 424 OFFCURVE",
"313 384 OFFCURVE",
"391 384 CURVE SMOOTH",
"499 384 OFFCURVE",
"522 459 OFFCURVE",
"522 505 CURVE SMOOTH",
"522 529 LINE SMOOTH",
"522 614 OFFCURVE",
"429 682 OFFCURVE",
"275 682 CURVE SMOOTH",
"124 682 OFFCURVE",
"40 623 OFFCURVE",
"40 516 CURVE SMOOTH",
"40 405 LINE SMOOTH",
"40 280 OFFCURVE",
"151 177 OFFCURVE",
"266 177 CURVE SMOOTH",
"272 177 LINE",
"272 137 LINE SMOOTH",
"272 119 OFFCURVE",
"268 102 OFFCURVE",
"253 102 CURVE SMOOTH",
"239 102 OFFCURVE",
"235 119 OFFCURVE",
"235 138 CURVE SMOOTH",
"235 144 LINE",
"85 144 LINE"
);
},
{
closed = 1;
nodes = (
"453 297 OFFCURVE",
"456 294 OFFCURVE",
"456 289 CURVE SMOOTH",
"456 279 OFFCURVE",
"443 269 OFFCURVE",
"421 269 CURVE",
"424 281 OFFCURVE",
"433 297 OFFCURVE",
"447 297 CURVE SMOOTH"
);
},
{
closed = 1;
nodes = (
"360 448 OFFCURVE",
"353 456 OFFCURVE",
"353 472 CURVE SMOOTH",
"353 493 OFFCURVE",
"365 497 OFFCURVE",
"374 497 CURVE",
"374 448 LINE"
);
}
);
width = 582;
},
{
anchors = (
{
name = abvm;
position = "{242, 760}";
},
{
name = blwm;
position = "{237, 0}";
}
);
guideLines = (
{
position = "{233, 145}";
}
);
layerId = "BB318BD9-DEF5-4D27-998D-30B020A0DD4F";
paths = (
{
closed = 1;
nodes = (
"112 137 LINE SMOOTH",
"112 57 OFFCURVE",
"149 0 OFFCURVE",
"233 0 CURVE SMOOTH",
"317 0 OFFCURVE",
"358 57 OFFCURVE",
"358 137 CURVE SMOOTH",
"358 221 LINE",
"418 229 OFFCURVE",
"446 266 OFFCURVE",
"446 305 CURVE SMOOTH",
"446 341 OFFCURVE",
"423 366 OFFCURVE",
"381 366 CURVE SMOOTH",
"322 366 OFFCURVE",
"290 319 OFFCURVE",
"282 288 CURVE",
"247 288 LINE SMOOTH",
"177 288 OFFCURVE",
"131 339 OFFCURVE",
"131 421 CURVE SMOOTH",
"131 536 LINE SMOOTH",
"131 576 OFFCURVE",
"180 615 OFFCURVE",
"253 615 CURVE SMOOTH",
"316 615 OFFCURVE",
"364 586 OFFCURVE",
"364 546 CURVE",
"327 546 OFFCURVE",
"300 528 OFFCURVE",
"300 480 CURVE SMOOTH",
"300 437 OFFCURVE",
"319 413 OFFCURVE",
"371 413 CURVE SMOOTH",
"415 413 OFFCURVE",
"441 430 OFFCURVE",
"441 485 CURVE SMOOTH",
"441 539 LINE SMOOTH",
"441 615 OFFCURVE",
"364 682 OFFCURVE",
"251 682 CURVE SMOOTH",
"139 682 OFFCURVE",
"54 614 OFFCURVE",
"54 536 CURVE SMOOTH",
"54 421 LINE SMOOTH",
"54 306 OFFCURVE",
"129 221 OFFCURVE",
"247 221 CURVE SMOOTH",
"282 221 LINE",
"282 137 LINE SMOOTH",
"282 87 OFFCURVE",
"267 67 OFFCURVE",
"233 67 CURVE SMOOTH",
"199 67 OFFCURVE",
"184 87 OFFCURVE",
"184 137 CURVE SMOOTH",
"184 180 LINE",
"112 180 LINE"
);
},
{
closed = 1;
nodes = (
"394 319 OFFCURVE",
"398 314 OFFCURVE",
"398 309 CURVE SMOOTH",
"398 300 OFFCURVE",
"386 288 OFFCURVE",
"358 288 CURVE",
"363 304 OFFCURVE",
"374 319 OFFCURVE",
"387 319 CURVE SMOOTH"
);
},
{
closed = 1;
nodes = (
"347 451 OFFCURVE",
"341 465 OFFCURVE",
"341 481 CURVE SMOOTH",
"341 497 OFFCURVE",
"347 510 OFFCURVE",
"364 510 CURVE",
"364 451 LINE"
);
}
);
width = 513;
},
{
anchors = (
{
name = abvm;
position = "{248, 760}";
},
{
name = blwm;
position = "{228, 0}";
}
);
guideLines = (
{
position = "{214, 142}";
}
);
layerId = "1DC75306-0750-4696-AEC7-032F44743549";
paths = (
{
closed = 1;
nodes = (
"123 122 LINE SMOOTH",
"123 24 OFFCURVE",
"174 0 OFFCURVE",
"214 0 CURVE SMOOTH",
"254 0 OFFCURVE",
"304 24 OFFCURVE",
"304 122 CURVE SMOOTH",
"304 260 LINE",
"367 260 OFFCURVE",
"431 286 OFFCURVE",
"431 333 CURVE SMOOTH",
"431 359 OFFCURVE",
"410 379 OFFCURVE",
"374 379 CURVE SMOOTH",
"319 379 OFFCURVE",
"285 325 OFFCURVE",
"278 286 CURVE",
"226 286 LINE SMOOTH",
"162 286 OFFCURVE",
"96 342 OFFCURVE",
"96 424 CURVE SMOOTH",
"96 539 LINE SMOOTH",
"96 599 OFFCURVE",
"164 656 OFFCURVE",
"243 656 CURVE SMOOTH",
"321 656 OFFCURVE",
"392 600 OFFCURVE",
"392 550 CURVE",
"365 550 OFFCURVE",
"334 528 OFFCURVE",
"334 485 CURVE SMOOTH",
"334 440 OFFCURVE",
"367 413 OFFCURVE",
"390 413 CURVE SMOOTH",
"401 413 OFFCURVE",
"418 420 OFFCURVE",
"418 446 CURVE SMOOTH",
"418 548 LINE SMOOTH",
"418 613 OFFCURVE",
"341 682 OFFCURVE",
"245 682 CURVE SMOOTH",
"150 682 OFFCURVE",
"70 614 OFFCURVE",
"70 536 CURVE SMOOTH",
"70 424 LINE SMOOTH",
"70 314 OFFCURVE",
"160 260 OFFCURVE",
"220 260 CURVE SMOOTH",
"278 260 LINE",
"278 122 LINE SMOOTH",
"278 52 OFFCURVE",
"250 26 OFFCURVE",
"214 26 CURVE SMOOTH",
"178 26 OFFCURVE",
"149 52 OFFCURVE",
"149 122 CURVE SMOOTH",
"149 193 LINE",
"123 193 LINE"
);
},
{
closed = 1;
nodes = (
"398 353 OFFCURVE",
"405 341 OFFCURVE",
"405 330 CURVE SMOOTH",
"405 293 OFFCURVE",
"330 287 OFFCURVE",
"305 286 CURVE",
"309 299 OFFCURVE",
"325 353 OFFCURVE",
"375 353 CURVE SMOOTH"
);
},
{
closed = 1;
nodes = (
"373 438 OFFCURVE",
"360 459 OFFCURVE",
"360 484 CURVE SMOOTH",
"360 508 OFFCURVE",
"372 524 OFFCURVE",
"392 524 CURVE",
"392 438 LINE"
);
}
);
width = 501;
}
);
note = uni1791;
unicode = 1791;
},
{
glyphname = uni1793;
lastChange = "2016-11-17 19:08:58 +0000";
layers = (
{
anchors = (
{
name = abvm;
position = "{330, 760}";
},
{
name = blwm;
position = "{330, 0}";
}
);
components = (
{
locked = 1;
name = nadoloop;
transform = "{1, 0, 0, 1, -24, 0}";
}
);
layerId = "88BEB7F0-7448-46FF-842C-45A92B9492CE";
paths = (
{
closed = 1;
nodes = (
"562 525 LINE",
"562 536 LINE SMOOTH",
"562 612 OFFCURVE",
"470 682 OFFCURVE",
"330 682 CURVE SMOOTH",
"192 682 OFFCURVE",
"98 614 OFFCURVE",
"98 536 CURVE SMOOTH",
"98 463 LINE SMOOTH",
"98 390 OFFCURVE",
"163 330 OFFCURVE",
"291 286 CURVE SMOOTH",
"470 224 LINE",
"470 135 LINE SMOOTH",
"470 96 OFFCURVE",
"457 67 OFFCURVE",
"414 67 CURVE SMOOTH",
"379 67 OFFCURVE",
"364 87 OFFCURVE",
"326 116 CURVE SMOOTH",
"282 150 OFFCURVE",
"233 183 OFFCURVE",
"190 185 CURVE",
"190 235 LINE",
"98 279 LINE",
"98 0 LINE",
"190 0 LINE",
"190 118 LINE",
"223 116 OFFCURVE",
"251 97 OFFCURVE",
"276 76 CURVE SMOOTH",
"318 41 OFFCURVE",
"355 0 OFFCURVE",
"431 0 CURVE SMOOTH",
"503 0 OFFCURVE",
"562 36 OFFCURVE",
"562 122 CURVE SMOOTH",
"562 263 LINE",
"328 345 LINE SMOOTH",
"236 377 OFFCURVE",
"190 418 OFFCURVE",
"190 463 CURVE SMOOTH",
"190 536 LINE SMOOTH",
"190 576 OFFCURVE",
"249 615 OFFCURVE",
"330 615 CURVE SMOOTH",
"408 615 OFFCURVE",
"470 578 OFFCURVE",
"470 536 CURVE SMOOTH",
"470 525 LINE"
);
}
);
width = 652;
},
{
anchors = (
{
name = abvm;
position = "{324, 760}";
},
{
name = blwm;
position = "{324, 0}";
}
);
components = (
{
locked = 1;
name = nadoloop;
transform = "{1, 0, 0, 1, -36, 0}";
}
);
guideLines = (
{
angle = 131.6335;
position = "{267, 90}";
}
);
layerId = "37E1EBAF-DBB8-42B6-8B14-41DF5B276D12";
paths = (
{
closed = 1;
nodes = (
"516 526 LINE",
"516 543 LINE SMOOTH",
"516 612 OFFCURVE",
"446 682 OFFCURVE",
"324 682 CURVE SMOOTH",
"202 682 OFFCURVE",
"120 616 OFFCURVE",
"120 536 CURVE SMOOTH",
"120 463 LINE SMOOTH",
"120 382 OFFCURVE",
"198 334 OFFCURVE",
"279 306 CURVE SMOOTH",
"490 232 LINE",
"490 120 LINE SMOOTH",
"490 50 OFFCURVE",
"450 26 OFFCURVE",
"410 26 CURVE SMOOTH",
"374 26 OFFCURVE",
"347 50 OFFCURVE",
"304 88 CURVE SMOOTH",
"262 125 OFFCURVE",
"188 175 OFFCURVE",
"146 179 CURVE",
"146 252 LINE",
"120 269 LINE",
"120 0 LINE",
"146 0 LINE",
"146 153 LINE",
"176 147 OFFCURVE",
"242 109 OFFCURVE",
"283 72 CURVE SMOOTH",
"329 31 OFFCURVE",
"364 0 OFFCURVE",
"410 0 CURVE SMOOTH",
"458 0 OFFCURVE",
"516 30 OFFCURVE",
"516 122 CURVE SMOOTH",
"516 251 LINE",
"290 331 LINE SMOOTH",
"179 370 OFFCURVE",
"146 426 OFFCURVE",
"146 463 CURVE SMOOTH",
"146 539 LINE SMOOTH",
"146 599 OFFCURVE",
"228 656 OFFCURVE",
"324 656 CURVE SMOOTH",
"416 656 OFFCURVE",
"490 598 OFFCURVE",
"490 536 CURVE SMOOTH",
"490 526 LINE"
);
}
);
width = 646;
},
{
anchors = (
{
name = abvm;
position = "{367, 760}";
},
{
name = blwm;
position = "{367, 0}";
}
);
components = (
{
locked = 1;
name = nadoloop;
transform = "{1, 0, 0, 1, 13, 8}";
}
);
guideLines = (
{
angle = 161.1962;
position = "{491, 339}";
},
{
angle = 150.4612;
position = "{351, 33}";
}
);
layerId = "33F44B55-ADBD-4698-98EB-0F29A0B3A069";
paths = (
{
closed = 1;
nodes = (
"644 534 LINE",
"644 543 LINE SMOOTH",
"644 621 OFFCURVE",
"547 682 OFFCURVE",
"367 682 CURVE SMOOTH",
"190 682 OFFCURVE",
"90 623 OFFCURVE",
"90 526 CURVE SMOOTH",
"90 453 LINE SMOOTH",
"90 401 OFFCURVE",
"169 304 OFFCURVE",
"295 261 CURVE SMOOTH",
"464 204 LINE",
"464 155 LINE SMOOTH",
"464 120 OFFCURVE",
"452 107 OFFCURVE",
"428 107 CURVE SMOOTH",
"413 107 OFFCURVE",
"395 117 OFFCURVE",
"370 131 CURVE SMOOTH",
"333 151 OFFCURVE",
"308 158 OFFCURVE",
"270 161 CURVE",
"270 225 LINE",
"90 269 LINE",
"90 0 LINE",
"270 0 LINE",
"270 59 LINE",
"295 57 OFFCURVE",
"318 47 OFFCURVE",
"351 33 CURVE SMOOTH",
"397 13 OFFCURVE",
"427 0 OFFCURVE",
"475 0 CURVE SMOOTH",
"585 0 OFFCURVE",
"644 63 OFFCURVE",
"644 132 CURVE SMOOTH",
"644 261 LINE",
"365 356 LINE SMOOTH",
"302 377 OFFCURVE",
"270 407 OFFCURVE",
"270 463 CURVE SMOOTH",
"270 510 LINE SMOOTH",
"270 562 OFFCURVE",
"283 580 OFFCURVE",
"371 580 CURVE SMOOTH",
"419 580 OFFCURVE",
"464 574 OFFCURVE",
"464 546 CURVE SMOOTH",
"464 534 LINE"
);
}
);
width = 734;
},
{
anchors = (
{
name = abvm;
position = "{313, 760}";
},
{
name = blwm;
position = "{313, 0}";
}
);
components = (
{
locked = 1;
name = nadoloop;
transform = "{1, 0, 0, 1, -40, 8}";
}
);
guideLines = (
{
angle = 161.1962;
position = "{483, 339}";
},
{
angle = 150.4612;
position = "{343, 33}";
}
);
layerId = "2845A654-27C0-4D24-8E0C-7DAF9BC7668A";
paths = (
{
closed = 1;
nodes = (
"544 534 LINE",
"544 543 LINE SMOOTH",
"544 627 OFFCURVE",
"459 682 OFFCURVE",
"313 682 CURVE SMOOTH",
"165 682 OFFCURVE",
"82 623 OFFCURVE",
"82 526 CURVE SMOOTH",
"82 453 LINE SMOOTH",
"82 401 OFFCURVE",
"148 304 OFFCURVE",
"253 261 CURVE SMOOTH",
"394 204 LINE",
"394 155 LINE SMOOTH",
"394 120 OFFCURVE",
"384 107 OFFCURVE",
"364 107 CURVE SMOOTH",
"351 107 OFFCURVE",
"336 117 OFFCURVE",
"315 131 CURVE SMOOTH",
"285 151 OFFCURVE",
"264 158 OFFCURVE",
"232 161 CURVE",
"232 225 LINE",
"82 269 LINE",
"82 0 LINE",
"232 0 LINE",
"232 59 LINE",
"253 57 OFFCURVE",
"272 47 OFFCURVE",
"300 33 CURVE SMOOTH",
"338 14 OFFCURVE",
"366 0 OFFCURVE",
"403 0 CURVE SMOOTH",
"495 0 OFFCURVE",
"544 63 OFFCURVE",
"544 132 CURVE SMOOTH",
"544 261 LINE",
"311 356 LINE SMOOTH",
"259 377 OFFCURVE",
"232 407 OFFCURVE",
"232 463 CURVE SMOOTH",
"232 510 LINE SMOOTH",
"232 562 OFFCURVE",
"243 580 OFFCURVE",
"316 580 CURVE SMOOTH",
"356 580 OFFCURVE",
"394 574 OFFCURVE",
"394 546 CURVE SMOOTH",
"394 534 LINE"
);
}
);
width = 644;
},
{
anchors = (
{
name = abvm;
position = "{282, 760}";
},
{
name = blwm;
position = "{282, 0}";
}
);
components = (
{
locked = 1;
name = nadoloop;
transform = "{1, 0, 0, 1, -81, 0}";
}
);
layerId = "BB318BD9-DEF5-4D27-998D-30B020A0DD4F";
paths = (
{
closed = 1;
nodes = (
"477 525 LINE",
"477 536 LINE SMOOTH",
"477 612 OFFCURVE",
"400 682 OFFCURVE",
"283 682 CURVE SMOOTH",
"168 682 OFFCURVE",
"90 614 OFFCURVE",
"90 536 CURVE SMOOTH",
"90 463 LINE SMOOTH",
"90 390 OFFCURVE",
"144 330 OFFCURVE",
"251 286 CURVE SMOOTH",
"400 224 LINE",
"400 135 LINE SMOOTH",
"400 96 OFFCURVE",
"389 67 OFFCURVE",
"353 67 CURVE SMOOTH",
"324 67 OFFCURVE",
"312 87 OFFCURVE",
"280 116 CURVE SMOOTH",
"243 150 OFFCURVE",
"203 183 OFFCURVE",
"167 185 CURVE",
"167 235 LINE",
"90 279 LINE",
"90 0 LINE",
"167 0 LINE",
"167 118 LINE",
"194 116 OFFCURVE",
"218 97 OFFCURVE",
"238 76 CURVE SMOOTH",
"272 40 OFFCURVE",
"310 0 OFFCURVE",
"368 0 CURVE SMOOTH",
"428 0 OFFCURVE",
"477 36 OFFCURVE",
"477 122 CURVE SMOOTH",
"477 263 LINE",
"282 345 LINE SMOOTH",
"205 377 OFFCURVE",
"167 418 OFFCURVE",
"167 463 CURVE SMOOTH",
"167 536 LINE SMOOTH",
"167 576 OFFCURVE",
"216 615 OFFCURVE",
"283 615 CURVE SMOOTH",
"348 615 OFFCURVE",
"400 578 OFFCURVE",
"400 536 CURVE SMOOTH",
"400 525 LINE"
);
}
);
width = 560;
},
{
anchors = (
{
name = abvm;
position = "{281, 760}";
},
{
name = blwm;
position = "{281, 0}";
}
);
components = (
{
locked = 1;
name = nadoloop;
transform = "{1, 0, 0, 1, -106, 0}";
}
);
guideLines = (
{
angle = 131.6335;
position = "{257, 90}";
}
);
layerId = "1DC75306-0750-4696-AEC7-032F44743549";
paths = (
{
closed = 1;
nodes = (
"446 526 LINE",
"446 543 LINE SMOOTH",
"446 612 OFFCURVE",
"384 682 OFFCURVE",
"281 682 CURVE SMOOTH",
"180 682 OFFCURVE",
"110 616 OFFCURVE",
"110 536 CURVE SMOOTH",
"110 463 LINE SMOOTH",
"110 382 OFFCURVE",
"182 341 OFFCURVE",
"259 306 CURVE SMOOTH",
"420 232 LINE",
"420 120 LINE SMOOTH",
"420 50 OFFCURVE",
"387 26 OFFCURVE",
"354 26 CURVE SMOOTH",
"325 26 OFFCURVE",
"304 45 OFFCURVE",
"264 88 CURVE SMOOTH",
"221 134 OFFCURVE",
"179 176 OFFCURVE",
"136 179 CURVE",
"136 252 LINE",
"110 269 LINE",
"110 0 LINE",
"136 0 LINE",
"136 153 LINE",
"169 143 OFFCURVE",
"199 119 OFFCURVE",
"243 72 CURVE SMOOTH",
"287 26 OFFCURVE",
"316 0 OFFCURVE",
"354 0 CURVE SMOOTH",
"395 0 OFFCURVE",
"446 30 OFFCURVE",
"446 122 CURVE SMOOTH",
"446 251 LINE",
"270 331 LINE SMOOTH",
"164 379 OFFCURVE",
"136 426 OFFCURVE",
"136 463 CURVE SMOOTH",
"136 539 LINE SMOOTH",
"136 599 OFFCURVE",
"203 656 OFFCURVE",
"277 656 CURVE SMOOTH",
"351 656 OFFCURVE",
"420 598 OFFCURVE",
"420 536 CURVE SMOOTH",
"420 526 LINE"
);
}
);
width = 566;
}
);
note = uni1793;
unicode = 1793;
},
{
glyphname = uni1794.a;
lastChange = "2016-11-17 19:08:58 +0000";
layers = (
{
anchors = (
{
name = abvm;
position = "{312, 760}";
},
{
name = blwm;
position = "{312, -40}";
}
);
components = (
{
locked = 1;
name = uni1794.a2;
}
);
layerId = "88BEB7F0-7448-46FF-842C-45A92B9492CE";
paths = (
{
closed = 1;
nodes = (
"450 -49 LINE",
"542 -49 LINE",
"542 -6 LINE",
"450 -6 LINE"
);
}
);
width = 720;
},
{
anchors = (
{
name = abvm;
position = "{296, 760}";
},
{
name = blwm;
position = "{304, -40}";
}
);
components = (
{
locked = 1;
name = uni1794.a2;
}
);
layerId = "37E1EBAF-DBB8-42B6-8B14-41DF5B276D12";
paths = (
{
closed = 1;
nodes = (
"461 -49 LINE",
"487 -49 LINE",
"487 4 LINE",
"461 4 LINE"
);
}
);
width = 754;
},
{
anchors = (
{
name = abvm;
position = "{372, 760}";
},
{
name = blwm;
position = "{356, -40}";
}
);
components = (
{
locked = 1;
name = uni1794.a2;
}
);
layerId = "33F44B55-ADBD-4698-98EB-0F29A0B3A069";
paths = (
{
closed = 1;
nodes = (
"440 -49 LINE",
"620 -49 LINE",
"620 3 LINE",
"440 3 LINE"
);
}
);
width = 675;
},
{
anchors = (
{
name = abvm;
position = "{372, 760}";
},
{
name = blwm;
position = "{313, -40}";
}
);
components = (
{
locked = 1;
name = uni1794.a2;
}
);
layerId = "2845A654-27C0-4D24-8E0C-7DAF9BC7668A";
paths = (
{
closed = 1;
nodes = (
"382 -49 LINE",
"532 -49 LINE",
"532 3 LINE",
"382 3 LINE"
);
}
);
width = 587;
},
{
anchors = (
{
name = abvm;
position = "{312, 760}";
},
{
name = blwm;
position = "{289, -40}";
}
);
components = (
{
locked = 1;
name = uni1794.a2;
}
);
layerId = "BB318BD9-DEF5-4D27-998D-30B020A0DD4F";
paths = (
{
closed = 1;
nodes = (
"391 -49 LINE",
"468 -49 LINE",
"468 -6 LINE",
"391 -6 LINE"
);
}
);
width = 646;
},
{
anchors = (
{
name = abvm;
position = "{296, 760}";
},
{
name = blwm;
position = "{279, -40}";
}
);
components = (
{
locked = 1;
name = uni1794.a2;
}
);
layerId = "1DC75306-0750-4696-AEC7-032F44743549";
paths = (
{
closed = 1;
nodes = (
"401 -49 LINE",
"427 -49 LINE",
"427 -6 LINE",
"401 -6 LINE"
);
}
);
width = 694;
}
);
},
{
glyphname = uni1796;
lastChange = "2016-11-17 19:08:58 +0000";
layers = (
{
anchors = (
{
name = abvm;
position = "{302, 760}";
},
{
name = blwm;
position = "{335, 0}";
}
);
components = (
{
locked = 1;
name = loopleftsmall;
transform = "{1, 0, 0, 1, -19, 0}";
}
);
layerId = "88BEB7F0-7448-46FF-842C-45A92B9492CE";
paths = (
{
closed = 1;
nodes = (
"195 305 LINE",
"195 499 LINE",
"166 526 OFFCURVE",
"149 547 OFFCURVE",
"149 558 CURVE SMOOTH",
"149 563 OFFCURVE",
"153 570 OFFCURVE",
"161 577 CURVE SMOOTH",
"168 583 OFFCURVE",
"176 588 OFFCURVE",
"184 588 CURVE SMOOTH",
"213 588 OFFCURVE",
"249 518 OFFCURVE",
"297 518 CURVE SMOOTH",
"346 518 OFFCURVE",
"380 591 OFFCURVE",
"417 591 CURVE SMOOTH",
"442 591 OFFCURVE",
"475 557 OFFCURVE",
"475 521 CURVE SMOOTH",
"475 0 LINE",
"567 0 LINE",
"567 521 LINE SMOOTH",
"567 598 OFFCURVE",
"492 682 OFFCURVE",
"431 682 CURVE SMOOTH",
"409 682 OFFCURVE",
"393 667 OFFCURVE",
"368 644 CURVE SMOOTH",
"344 621 OFFCURVE",
"324 602 OFFCURVE",
"320 602 CURVE SMOOTH",
"318 602 OFFCURVE",
"300 618 OFFCURVE",
"276 639 CURVE SMOOTH",
"244 667 OFFCURVE",
"222 682 OFFCURVE",
"206 682 CURVE SMOOTH",
"185 682 OFFCURVE",
"148 657 OFFCURVE",
"117 629 CURVE SMOOTH",
"80 594 OFFCURVE",
"54 557 OFFCURVE",
"54 542 CURVE SMOOTH",
"54 529 OFFCURVE",
"70 503 OFFCURVE",
"103 469 CURVE",
"103 305 LINE"
);
}
);
width = 657;
},
{
anchors = (
{
name = abvm;
position = "{299, 760}";
},
{
name = blwm;
position = "{320, 0}";
}
);
components = (
{
locked = 1;
name = loopleftsmall;
transform = "{1, 0, 0, 1, -34, 0}";
}
);
guideLines = (
{
position = "{246, 578}";
showMeasurement = 1;
},
{
angle = 224.4744;
position = "{118, 582}";
}
);
layerId = "37E1EBAF-DBB8-42B6-8B14-41DF5B276D12";
paths = (
{
closed = 1;
nodes = (
"146 302 LINE",
"146 479 LINE",
"115 516 OFFCURVE",
"93 542 OFFCURVE",
"93 552 CURVE SMOOTH",
"93 560 OFFCURVE",
"103 572 OFFCURVE",
"144 610 CURVE SMOOTH",
"176 639 OFFCURVE",
"197 655 OFFCURVE",
"203 655 CURVE SMOOTH",
"217 655 OFFCURVE",
"268 578 OFFCURVE",
"298 578 CURVE SMOOTH",
"328 578 OFFCURVE",
"371 656 OFFCURVE",
"408 656 CURVE SMOOTH",
"442 656 OFFCURVE",
"492 592 OFFCURVE",
"492 531 CURVE SMOOTH",
"492 0 LINE",
"518 0 LINE",
"518 531 LINE SMOOTH",
"518 604 OFFCURVE",
"464 682 OFFCURVE",
"409 682 CURVE SMOOTH",
"382 682 OFFCURVE",
"360 663 OFFCURVE",
"348 651 CURVE SMOOTH",
"325 629 OFFCURVE",
"312 606 OFFCURVE",
"299 606 CURVE SMOOTH",
"291 606 OFFCURVE",
"282 615 OFFCURVE",
"256 643 CURVE SMOOTH",
"236 665 OFFCURVE",
"221 681 OFFCURVE",
"204 681 CURVE SMOOTH",
"191 681 OFFCURVE",
"172 672 OFFCURVE",
"123 626 CURVE SMOOTH",
"72 578 OFFCURVE",
"66 562 OFFCURVE",
"66 552 CURVE SMOOTH",
"66 532 OFFCURVE",
"91 503 OFFCURVE",
"120 469 CURVE",
"120 302 LINE"
);
}
);
width = 648;
},
{
anchors = (
{
name = abvm;
position = "{353, 760}";
},
{
name = blwm;
position = "{368, 0}";
}
);
components = (
{
locked = 1;
name = loopleftsmall;
transform = "{1, 0, 0, 1, 16, 0}";
}
);
layerId = "33F44B55-ADBD-4698-98EB-0F29A0B3A069";
paths = (
{
closed = 1;
nodes = (
"275 309 LINE",
"275 444 LINE",
"193 507 OFFCURVE",
"179 521 OFFCURVE",
"179 533 CURVE SMOOTH",
"179 538 OFFCURVE",
"181 541 OFFCURVE",
"184 544 CURVE SMOOTH",
"187 547 OFFCURVE",
"191 549 OFFCURVE",
"195 549 CURVE SMOOTH",
"218 549 OFFCURVE",
"267 479 OFFCURVE",
"321 479 CURVE SMOOTH",
"368 479 OFFCURVE",
"418 533 OFFCURVE",
"450 533 CURVE SMOOTH",
"465 533 OFFCURVE",
"487 521 OFFCURVE",
"487 464 CURVE SMOOTH",
"487 0 LINE",
"667 0 LINE",
"667 521 LINE SMOOTH",
"667 602 OFFCURVE",
"607 682 OFFCURVE",
"534 682 CURVE SMOOTH",
"501 682 OFFCURVE",
"457 664 OFFCURVE",
"424 643 CURVE SMOOTH",
"398 627 OFFCURVE",
"370 604 OFFCURVE",
"356 604 CURVE SMOOTH",
"343 604 OFFCURVE",
"317 626 OFFCURVE",
"292 647 CURVE SMOOTH",
"275 661 OFFCURVE",
"250 682 OFFCURVE",
"221 682 CURVE SMOOTH",
"194 682 OFFCURVE",
"163 665 OFFCURVE",
"122 630 CURVE SMOOTH",
"81 595 OFFCURVE",
"46 554 OFFCURVE",
"46 528 CURVE SMOOTH",
"46 510 OFFCURVE",
"62 484 OFFCURVE",
"95 450 CURVE",
"95 309 LINE"
);
}
);
width = 749;
},
{
anchors = (
{
name = abvm;
position = "{307, 760}";
},
{
name = blwm;
position = "{319, 0}";
}
);
components = (
{
locked = 1;
name = loopleftsmall;
transform = "{1, 0, 0, 1, 10, 0}";
}
);
layerId = "2845A654-27C0-4D24-8E0C-7DAF9BC7668A";
paths = (
{
closed = 1;
nodes = (
"239 309 LINE",
"239 444 LINE",
"171 507 OFFCURVE",
"159 521 OFFCURVE",
"159 533 CURVE SMOOTH",
"159 538 OFFCURVE",
"161 541 OFFCURVE",
"163 544 CURVE SMOOTH",
"165 548 OFFCURVE",
"169 549 OFFCURVE",
"172 549 CURVE SMOOTH",
"191 549 OFFCURVE",
"240 479 OFFCURVE",
"273 479 CURVE SMOOTH",
"302 479 OFFCURVE",
"358 533 OFFCURVE",
"385 533 CURVE SMOOTH",
"397 533 OFFCURVE",
"416 521 OFFCURVE",
"416 464 CURVE SMOOTH",
"416 0 LINE",
"566 0 LINE",
"566 521 LINE SMOOTH",
"566 602 OFFCURVE",
"507 682 OFFCURVE",
"453 682 CURVE SMOOTH",
"427 682 OFFCURVE",
"391 664 OFFCURVE",
"363 643 CURVE SMOOTH",
"341 627 OFFCURVE",
"318 604 OFFCURVE",
"306 604 CURVE SMOOTH",
"295 604 OFFCURVE",
"274 626 OFFCURVE",
"253 647 CURVE SMOOTH",
"239 661 OFFCURVE",
"218 682 OFFCURVE",
"201 682 CURVE SMOOTH",
"181 682 OFFCURVE",
"143 660 OFFCURVE",
"109 627 CURVE SMOOTH",
"75 594 OFFCURVE",
"48 554 OFFCURVE",
"48 528 CURVE SMOOTH",
"48 510 OFFCURVE",
"61 484 OFFCURVE",
"89 450 CURVE",
"89 309 LINE"
);
}
);
width = 666;
},
{
anchors = (
{
name = abvm;
position = "{261, 760}";
},
{
name = blwm;
position = "{288, 0}";
}
);
components = (
{
locked = 1;
name = loopleftsmall;
transform = "{1, 0, 0, 1, -27, 0}";
}
);
layerId = "BB318BD9-DEF5-4D27-998D-30B020A0DD4F";
paths = (
{
closed = 1;
nodes = (
"172 305 LINE",
"172 499 LINE",
"147 526 OFFCURVE",
"133 547 OFFCURVE",
"133 558 CURVE SMOOTH",
"133 563 OFFCURVE",
"136 570 OFFCURVE",
"143 577 CURVE SMOOTH",
"149 583 OFFCURVE",
"157 588 OFFCURVE",
"163 588 CURVE SMOOTH",
"187 588 OFFCURVE",
"217 518 OFFCURVE",
"257 518 CURVE SMOOTH",
"297 518 OFFCURVE",
"325 591 OFFCURVE",
"356 591 CURVE SMOOTH",
"377 591 OFFCURVE",
"405 557 OFFCURVE",
"405 521 CURVE SMOOTH",
"405 0 LINE",
"482 0 LINE",
"482 521 LINE SMOOTH",
"482 598 OFFCURVE",
"422 682 OFFCURVE",
"369 682 CURVE SMOOTH",
"350 682 OFFCURVE",
"339 672 OFFCURVE",
"316 644 CURVE SMOOTH",
"296 619 OFFCURVE",
"282 602 OFFCURVE",
"276 602 CURVE SMOOTH",
"271 602 OFFCURVE",
"257 618 OFFCURVE",
"239 639 CURVE SMOOTH",
"214 669 OFFCURVE",
"196 682 OFFCURVE",
"183 682 CURVE SMOOTH",
"165 682 OFFCURVE",
"131 657 OFFCURVE",
"105 628 CURVE SMOOTH",
"74 595 OFFCURVE",
"52 558 OFFCURVE",
"52 543 CURVE SMOOTH",
"52 530 OFFCURVE",
"67 503 OFFCURVE",
"95 469 CURVE",
"95 305 LINE"
);
}
);
width = 562;
},
{
anchors = (
{
name = abvm;
position = "{284, 760}";
},
{
name = blwm;
position = "{305, 0}";
}
);
components = (
{
locked = 1;
name = loopleftsmall;
transform = "{1, 0, 0, 1, -49, 0}";
}
);
layerId = "1DC75306-0750-4696-AEC7-032F44743549";
paths = (
{
closed = 1;
nodes = (
"131 302 LINE",
"131 479 LINE",
"105 516 OFFCURVE",
"87 542 OFFCURVE",
"87 551 CURVE SMOOTH",
"87 559 OFFCURVE",
"92 576 OFFCURVE",
"126 613 CURVE SMOOTH",
"153 643 OFFCURVE",
"169 655 OFFCURVE",
"174 655 CURVE SMOOTH",
"186 655 OFFCURVE",
"225 578 OFFCURVE",
"256 578 CURVE SMOOTH",
"287 578 OFFCURVE",
"317 656 OFFCURVE",
"348 656 CURVE SMOOTH",
"376 656 OFFCURVE",
"415 592 OFFCURVE",
"415 531 CURVE SMOOTH",
"415 0 LINE",
"441 0 LINE",
"441 531 LINE SMOOTH",
"441 604 OFFCURVE",
"392 682 OFFCURVE",
"346 682 CURVE SMOOTH",
"323 682 OFFCURVE",
"305 664 OFFCURVE",
"292 648 CURVE SMOOTH",
"277 629 OFFCURVE",
"260 607 OFFCURVE",
"255 607 CURVE SMOOTH",
"248 607 OFFCURVE",
"239 617 OFFCURVE",
"222 640 CURVE SMOOTH",
"203 666 OFFCURVE",
"193 681 OFFCURVE",
"173 681 CURVE SMOOTH",
"162 681 OFFCURVE",
"150 676 OFFCURVE",
"114 638 CURVE SMOOTH",
"60 581 OFFCURVE",
"60 554 OFFCURVE",
"60 549 CURVE SMOOTH",
"60 533 OFFCURVE",
"81 503 OFFCURVE",
"105 469 CURVE",
"105 302 LINE"
);
}
);
width = 561;
}
);
note = uni1796;
unicode = 1796;
},
{
glyphname = uni179D;
lastChange = "2016-11-17 19:08:58 +0000";
layers = (
{
anchors = (
{
name = abvm;
position = "{308, 760}";
},
{
name = blwm;
position = "{317, 0}";
}
);
components = (
{
locked = 1;
name = uni1782;
}
);
layerId = "88BEB7F0-7448-46FF-842C-45A92B9492CE";
paths = (
{
closed = 1;
nodes = (
"606 173 LINE",
"606 240 LINE",
"406 240 LINE",
"406 173 LINE"
);
}
);
width = 630;
},
{
anchors = (
{
name = abvm;
position = "{297, 760}";
},
{
name = blwm;
position = "{295, 0}";
}
);
components = (
{
locked = 1;
name = uni1782;
}
);
layerId = "37E1EBAF-DBB8-42B6-8B14-41DF5B276D12";
paths = (
{
closed = 1;
nodes = (
"570 212 LINE",
"570 238 LINE",
"397 238 LINE",
"397 212 LINE"
);
}
);
width = 630;
},
{
anchors = (
{
name = abvm;
position = "{350, 760}";
},
{
name = blwm;
position = "{354, 0}";
}
);
components = (
{
locked = 1;
name = uni1782;
}
);
layerId = "33F44B55-ADBD-4698-98EB-0F29A0B3A069";
paths = (
{
closed = 1;
nodes = (
"666 133 LINE",
"666 245 LINE",
"423 245 LINE",
"423 133 LINE"
);
}
);
width = 702;
},
{
anchors = (
{
name = abvm;
position = "{310, 760}";
},
{
name = blwm;
position = "{314, 0}";
}
);
components = (
{
locked = 1;
name = uni1782;
}
);
layerId = "2845A654-27C0-4D24-8E0C-7DAF9BC7668A";
paths = (
{
closed = 1;
nodes = (
"559 133 LINE",
"559 245 LINE",
"363 245 LINE",
"363 133 LINE"
);
}
);
width = 625;
},
{
anchors = (
{
name = abvm;
position = "{284, 760}";
},
{
name = blwm;
position = "{293, 0}";
}
);
components = (
{
locked = 1;
name = uni1782;
}
);
layerId = "BB318BD9-DEF5-4D27-998D-30B020A0DD4F";
paths = (
{
closed = 1;
nodes = (
"513 173 LINE",
"513 240 LINE",
"346 240 LINE",
"346 173 LINE"
);
}
);
width = 539;
},
{
anchors = (
{
name = abvm;
position = "{267, 760}";
},
{
name = blwm;
position = "{265, 0}";
}
);
components = (
{
locked = 1;
name = uni1782;
}
);
layerId = "1DC75306-0750-4696-AEC7-032F44743549";
paths = (
{
closed = 1;
nodes = (
"481 209 LINE",
"481 235 LINE",
"337 235 LINE",
"337 209 LINE"
);
}
);
width = 556;
}
);
leftMetricsKey = uni1782;
note = uni179D;
unicode = 179D;
},
{
glyphname = uni179E;
lastChange = "2016-11-17 19:08:58 +0000";
layers = (
{
anchors = (
{
name = abvm;
position = "{348, 760}";
},
{
name = blwm;
position = "{363, 0}";
}
);
components = (
{
locked = 1;
name = uni1794;
}
);
layerId = "88BEB7F0-7448-46FF-842C-45A92B9492CE";
paths = (
{
closed = 1;
nodes = (
"659 286 LINE",
"659 353 LINE",
"415 353 LINE",
"415 286 LINE"
);
}
);
width = 674;
},
{
anchors = (
{
name = abvm;
position = "{361, 760}";
},
{
name = blwm;
position = "{366, 0}";
}
);
components = (
{
locked = 1;
name = uni1794;
}
);
layerId = "37E1EBAF-DBB8-42B6-8B14-41DF5B276D12";
paths = (
{
closed = 1;
nodes = (
"634 299 LINE",
"634 325 LINE",
"391 325 LINE",
"391 299 LINE"
);
}
);
width = 675;
},
{
anchors = (
{
name = abvm;
position = "{358, 760}";
},
{
name = blwm;
position = "{363, 0}";
}
);
components = (
{
locked = 1;
name = uni1794;
}
);
layerId = "33F44B55-ADBD-4698-98EB-0F29A0B3A069";
paths = (
{
closed = 1;
nodes = (
"676 227 LINE",
"676 339 LINE",
"397 339 LINE",
"397 227 LINE"
);
}
);
width = 736;
},
{
anchors = (
{
name = abvm;
position = "{314, 760}";
},
{
name = blwm;
position = "{319, 0}";
}
);
components = (
{
locked = 1;
name = uni1794;
}
);
layerId = "2845A654-27C0-4D24-8E0C-7DAF9BC7668A";
paths = (
{
closed = 1;
nodes = (
"576 227 LINE",
"576 339 LINE",
"357 339 LINE",
"357 227 LINE"
);
}
);
width = 631;
},
{
anchors = (
{
name = abvm;
position = "{296, 760}";
},
{
name = blwm;
position = "{311, 0}";
}
);
components = (
{
locked = 1;
name = uni1794;
}
);
layerId = "BB318BD9-DEF5-4D27-998D-30B020A0DD4F";
paths = (
{
closed = 1;
nodes = (
"558 286 LINE",
"558 353 LINE",
"355 353 LINE",
"355 286 LINE"
);
}
);
width = 581;
},
{
anchors = (
{
name = abvm;
position = "{291, 760}";
},
{
name = blwm;
position = "{296, 0}";
}
);
components = (
{
locked = 1;
name = uni1794;
}
);
layerId = "1DC75306-0750-4696-AEC7-032F44743549";
paths = (
{
closed = 1;
nodes = (
"550 299 LINE",
"550 325 LINE",
"331 325 LINE",
"331 299 LINE"
);
}
);
width = 590;
}
);
leftMetricsKey = uni1794;
note = uni179E;
unicode = 179E;
},
{
glyphname = uni17A0;
lastChange = "2016-11-17 19:08:58 +0000";
layers = (
{
anchors = (
{
name = abvm;
position = "{654, 760}";
},
{
name = blwm;
position = "{664, 0}";
}
);
components = (
{
locked = 1;
name = base.uni1794;
transform = "{1, 0, 0, 1, -15, 0}";
}
);
guideLines = (
{
angle = -39.4174;
position = "{460, 527}";
},
{
position = "{148, 426}";
},
{
angle = 153.1381;
position = "{734, 630}";
}
);
layerId = "88BEB7F0-7448-46FF-842C-45A92B9492CE";
paths = (
{
closed = 1;
nodes = (
"563 371 LINE",
"563 463 LINE",
"494 518 LINE",
"563 590 OFFCURVE",
"623 615 OFFCURVE",
"663 615 CURVE SMOOTH",
"738 615 OFFCURVE",
"819 530 OFFCURVE",
"819 464 CURVE SMOOTH",
"819 0 LINE",
"911 0 LINE",
"911 463 LINE SMOOTH",
"911 524 OFFCURVE",
"884 571 OFFCURVE",
"818 622 CURVE SMOOTH",
"755 670 OFFCURVE",
"709 682 OFFCURVE",
"670 682 CURVE SMOOTH",
"623 682 OFFCURVE",
"578 664 OFFCURVE",
"513 616 CURVE SMOOTH",
"434 557 OFFCURVE",
"417 527 OFFCURVE",
"417 508 CURVE SMOOTH",
"417 493 OFFCURVE",
"427 476 OFFCURVE",
"471 438 CURVE",
"471 371 LINE"
);
}
);
width = 1003;
},
{
anchors = (
{
name = abvm;
position = "{670, 760}";
},
{
name = blwm;
position = "{664, 0}";
}
);
components = (
{
locked = 1;
name = base.uni1794;
transform = "{1, 0, 0, 1, -32, 0}";
}
);
guideLines = (
{
angle = 135.7441;
position = "{416, 463}";
},
{
position = "{332, 126}";
},
{
angle = 180;
position = "{332, 136}";
showMeasurement = 1;
}
);
layerId = "37E1EBAF-DBB8-42B6-8B14-41DF5B276D12";
paths = (
{
closed = 1;
nodes = (
"512 375 LINE",
"512 454 LINE",
"456 499 LINE",
"488 559 OFFCURVE",
"557 656 OFFCURVE",
"645 656 CURVE SMOOTH",
"740 656 OFFCURVE",
"836 548 OFFCURVE",
"836 463 CURVE SMOOTH",
"836 0 LINE",
"862 0 LINE",
"862 463 LINE SMOOTH",
"862 529 OFFCURVE",
"828 575 OFFCURVE",
"800 605 CURVE SMOOTH",
"771 636 OFFCURVE",
"720 682 OFFCURVE",
"650 682 CURVE SMOOTH",
"572 682 OFFCURVE",
"518 624 OFFCURVE",
"495 598 CURVE SMOOTH",
"468 568 OFFCURVE",
"430 520 OFFCURVE",
"430 498 CURVE SMOOTH",
"430 489 OFFCURVE",
"437 480 OFFCURVE",
"486 442 CURVE",
"486 375 LINE"
);
}
);
width = 992;
},
{
anchors = (
{
name = abvm;
position = "{693, 760}";
},
{
name = blwm;
position = "{704, 0}";
}
);
components = (
{
locked = 1;
name = base.uni1794;
transform = "{1, 0, 0, 1, 10, 0}";
}
);
guideLines = (
{
angle = 153.2771;
position = "{368, 490}";
},
{
position = "{306, 407}";
}
);
layerId = "33F44B55-ADBD-4698-98EB-0F29A0B3A069";
paths = (
{
closed = 1;
nodes = (
"636 359 LINE",
"636 462 LINE",
"556 504 LINE",
"579 542 OFFCURVE",
"626 580 OFFCURVE",
"688 580 CURVE SMOOTH",
"760 580 OFFCURVE",
"800 528 OFFCURVE",
"800 473 CURVE SMOOTH",
"800 0 LINE",
"980 0 LINE",
"980 442 LINE SMOOTH",
"980 509 OFFCURVE",
"945 579 OFFCURVE",
"881 627 CURVE SMOOTH",
"822 671 OFFCURVE",
"762 682 OFFCURVE",
"699 682 CURVE SMOOTH",
"640 682 OFFCURVE",
"586 673 OFFCURVE",
"514 626 CURVE SMOOTH",
"437 576 OFFCURVE",
"402 528 OFFCURVE",
"402 495 CURVE SMOOTH",
"402 471 OFFCURVE",
"420 449 OFFCURVE",
"456 422 CURVE",
"456 359 LINE"
);
}
);
width = 1057;
},
{
anchors = (
{
name = abvm;
position = "{584, 760}";
},
{
name = blwm;
position = "{593, 0}";
}
);
components = (
{
locked = 1;
name = base.uni1794;
transform = "{1, 0, 0, 1, -6, 0}";
}
);
guideLines = (
{
angle = 153.2771;
position = "{364, 490}";
},
{
position = "{302, 407}";
}
);
layerId = "2845A654-27C0-4D24-8E0C-7DAF9BC7668A";
paths = (
{
closed = 1;
nodes = (
"531 359 LINE",
"531 462 LINE",
"465 504 LINE",
"484 542 OFFCURVE",
"521 580 OFFCURVE",
"573 580 CURVE SMOOTH",
"633 580 OFFCURVE",
"668 528 OFFCURVE",
"668 473 CURVE SMOOTH",
"668 0 LINE",
"818 0 LINE",
"818 442 LINE SMOOTH",
"818 509 OFFCURVE",
"789 579 OFFCURVE",
"735 627 CURVE SMOOTH",
"686 671 OFFCURVE",
"633 682 OFFCURVE",
"592 682 CURVE SMOOTH",
"532 682 OFFCURVE",
"478 659 OFFCURVE",
"430 626 CURVE SMOOTH",
"361 579 OFFCURVE",
"336 528 OFFCURVE",
"336 496 CURVE SMOOTH",
"336 471 OFFCURVE",
"351 449 OFFCURVE",
"381 422 CURVE",
"381 359 LINE"
);
}
);
width = 918;
},
{
anchors = (
{
name = abvm;
position = "{576, 760}";
},
{
name = blwm;
position = "{584, 0}";
}
);
components = (
{
locked = 1;
name = base.uni1794;
transform = "{1, 0, 0, 1, -15, 0}";
}
);
guideLines = (
{
angle = -39.4174;
position = "{460, 527}";
},
{
position = "{148, 426}";
}
);
layerId = "BB318BD9-DEF5-4D27-998D-30B020A0DD4F";
paths = (
{
closed = 1;
nodes = (
"489 371 LINE",
"489 463 LINE",
"434 515 LINE",
"498 587 OFFCURVE",
"541 615 OFFCURVE",
"576 615 CURVE SMOOTH",
"637 615 OFFCURVE",
"702 530 OFFCURVE",
"702 464 CURVE SMOOTH",
"702 0 LINE",
"779 0 LINE",
"779 463 LINE SMOOTH",
"779 524 OFFCURVE",
"756 571 OFFCURVE",
"701 622 CURVE SMOOTH",
"649 670 OFFCURVE",
"611 682 OFFCURVE",
"581 682 CURVE SMOOTH",
"540 682 OFFCURVE",
"501 660 OFFCURVE",
"449 615 CURVE SMOOTH",
"378 554 OFFCURVE",
"367 527 OFFCURVE",
"367 509 CURVE SMOOTH",
"367 493 OFFCURVE",
"376 476 OFFCURVE",
"412 438 CURVE",
"412 371 LINE"
);
}
);
width = 855;
},
{
anchors = (
{
name = abvm;
position = "{572, 760}";
},
{
name = blwm;
position = "{566, 0}";
}
);
components = (
{
locked = 1;
name = base.uni1794;
transform = "{1, 0, 0, 1, -50, 0}";
}
);
guideLines = (
{
angle = 135.7441;
position = "{412, 463}";
},
{
position = "{328, 126}";
}
);
layerId = "1DC75306-0750-4696-AEC7-032F44743549";
paths = (
{
closed = 1;
nodes = (
"437 375 LINE",
"437 454 LINE",
"381 499 LINE",
"420 560 OFFCURVE",
"473 656 OFFCURVE",
"541 656 CURVE SMOOTH",
"613 656 OFFCURVE",
"701 548 OFFCURVE",
"701 463 CURVE SMOOTH",
"701 0 LINE",
"727 0 LINE",
"727 463 LINE SMOOTH",
"727 529 OFFCURVE",
"692 580 OFFCURVE",
"666 610 CURVE SMOOTH",
"637 643 OFFCURVE",
"591 682 OFFCURVE",
"541 682 CURVE SMOOTH",
"493 682 OFFCURVE",
"452 645 OFFCURVE",
"422 607 CURVE SMOOTH",
"398 576 OFFCURVE",
"355 510 OFFCURVE",
"355 494 CURVE SMOOTH",
"355 487 OFFCURVE",
"362 480 OFFCURVE",
"411 442 CURVE",
"411 375 LINE"
);
}
);
width = 847;
}
);
leftMetricsKey = uni1794;
note = uni17A0;
rightMetricsKey = uni17B6;
unicode = 17A0;
},
{
glyphname = uni17A5;
lastChange = "2016-11-17 19:08:58 +0000";
layers = (
{
components = (
{
locked = 1;
name = loopleftsmall;
},
{
locked = 1;
name = toploop17A5;
transform = "{1, 0, 0, 1, 10, 0}";
}
);
layerId = "88BEB7F0-7448-46FF-842C-45A92B9492CE";
paths = (
{
closed = 1;
nodes = (
"214 280 LINE",
"214 366 LINE SMOOTH",
"214 407 OFFCURVE",
"273 446 OFFCURVE",
"354 446 CURVE SMOOTH",
"432 446 OFFCURVE",
"494 408 OFFCURVE",
"494 366 CURVE SMOOTH",
"494 0 LINE",
"586 0 LINE",
"586 366 LINE SMOOTH",
"586 443 OFFCURVE",
"484 513 OFFCURVE",
"354 513 CURVE SMOOTH",
"227 513 OFFCURVE",
"122 444 OFFCURVE",
"122 366 CURVE SMOOTH",
"122 280 LINE"
);
}
);
width = 677;
},
{
components = (
{
locked = 1;
name = loopleftsmall;
transform = "{1, 0, 0, 1, 2, 0}";
},
{
locked = 1;
name = toploop17A5;
transform = "{1, 0, 0, 1, 30, 0}";
}
);
layerId = "37E1EBAF-DBB8-42B6-8B14-41DF5B276D12";
paths = (
{
closed = 1;
nodes = (
"182 280 LINE",
"182 375 LINE SMOOTH",
"182 434 OFFCURVE",
"255 487 OFFCURVE",
"354 487 CURVE SMOOTH",
"450 487 OFFCURVE",
"526 436 OFFCURVE",
"526 375 CURVE SMOOTH",
"526 0 LINE",
"552 0 LINE",
"552 370 LINE SMOOTH",
"552 449 OFFCURVE",
"473 513 OFFCURVE",
"355 513 CURVE SMOOTH",
"238 513 OFFCURVE",
"156 452 OFFCURVE",
"156 370 CURVE SMOOTH",
"156 280 LINE"
);
}
);
width = 684;
},
{
components = (
{
locked = 1;
name = loopleftsmall;
transform = "{1, 0, 0, 1, -2, 0}";
},
{
locked = 1;
name = toploop17A5;
transform = "{1, 0, 0, 1, 29, 0}";
}
);
guideLines = (
{
position = "{326, 573}";
}
);
layerId = "33F44B55-ADBD-4698-98EB-0F29A0B3A069";
paths = (
{
closed = 1;
nodes = (
"257 280 LINE",
"257 337 LINE SMOOTH",
"257 391 OFFCURVE",
"286 411 OFFCURVE",
"354 411 CURVE SMOOTH",
"419 411 OFFCURVE",
"451 393 OFFCURVE",
"451 337 CURVE SMOOTH",
"451 0 LINE",
"631 0 LINE",
"631 386 LINE SMOOTH",
"631 451 OFFCURVE",
"502 513 OFFCURVE",
"354 513 CURVE SMOOTH",
"208 513 OFFCURVE",
"77 452 OFFCURVE",
"77 386 CURVE SMOOTH",
"77 280 LINE"
);
}
);
width = 708;
},
{
components = (
{
locked = 1;
name = loopleftsmall;
transform = "{1, 0, 0, 1, -2, 0}";
},
{
locked = 1;
name = toploop17A5;
transform = "{1, 0, 0, 1, 15, 0}";
}
);
layerId = "2845A654-27C0-4D24-8E0C-7DAF9BC7668A";
paths = (
{
closed = 1;
nodes = (
"227 280 LINE",
"227 337 LINE SMOOTH",
"227 391 OFFCURVE",
"251 411 OFFCURVE",
"308 411 CURVE SMOOTH",
"362 411 OFFCURVE",
"389 393 OFFCURVE",
"389 337 CURVE SMOOTH",
"389 0 LINE",
"539 0 LINE",
"539 386 LINE SMOOTH",
"539 451 OFFCURVE",
"431 513 OFFCURVE",
"308 513 CURVE SMOOTH",
"186 513 OFFCURVE",
"77 452 OFFCURVE",
"77 386 CURVE SMOOTH",
"77 280 LINE"
);
}
);
width = 636;
},
{
components = (
{
locked = 1;
name = loopleftsmall;
},
{
locked = 1;
name = toploop17A5;
transform = "{1, 0, 0, 1, 28, 0}";
}
);
layerId = "BB318BD9-DEF5-4D27-998D-30B020A0DD4F";
paths = (
{
closed = 1;
nodes = (
"199 280 LINE",
"199 366 LINE SMOOTH",
"199 406 OFFCURVE",
"247 446 OFFCURVE",
"315 446 CURVE SMOOTH",
"381 446 OFFCURVE",
"432 408 OFFCURVE",
"432 366 CURVE SMOOTH",
"432 0 LINE",
"509 0 LINE",
"509 366 LINE SMOOTH",
"509 442 OFFCURVE",
"425 513 OFFCURVE",
"315 513 CURVE SMOOTH",
"208 513 OFFCURVE",
"122 444 OFFCURVE",
"122 366 CURVE SMOOTH",
"122 280 LINE"
);
}
);
width = 590;
},
{
components = (
{
locked = 1;
name = loopleftsmall;
transform = "{1, 0, 0, 1, 2, 0}";
},
{
locked = 1;
name = toploop17A5;
transform = "{1, 0, 0, 1, 27, 0}";
}
);
layerId = "1DC75306-0750-4696-AEC7-032F44743549";
paths = (
{
closed = 1;
nodes = (
"182 281 LINE",
"182 375 LINE SMOOTH",
"182 431 OFFCURVE",
"240 487 OFFCURVE",
"325 487 CURVE SMOOTH",
"402 487 OFFCURVE",
"466 430 OFFCURVE",
"466 375 CURVE SMOOTH",
"466 0 LINE",
"492 0 LINE",
"492 370 LINE SMOOTH",
"492 442 OFFCURVE",
"420 513 OFFCURVE",
"325 513 CURVE SMOOTH",
"227 513 OFFCURVE",
"156 444 OFFCURVE",
"156 370 CURVE SMOOTH",
"156 281 LINE"
);
}
);
width = 617;
}
);
note = uni17A5;
unicode = 17A5;
},
{
glyphname = uni17A6;
lastChange = "2016-11-17 19:08:58 +0000";
layers = (
{
components = (
{
locked = 1;
name = votop;
transform = "{1, 0, 0, 1, 708, 0}";
},
{
locked = 1;
name = loopleftsmall;
}
);
layerId = "88BEB7F0-7448-46FF-842C-45A92B9492CE";
paths = (
{
closed = 1;
nodes = (
"842 -130 LINE SMOOTH",
"842 -205 OFFCURVE",
"812 -250 OFFCURVE",
"697 -250 CURVE SMOOTH",
"621 -250 OFFCURVE",
"562 -233 OFFCURVE",
"562 -165 CURVE SMOOTH",
"562 -100 OFFCURVE",
"488 -24 OFFCURVE",
"354 -24 CURVE SMOOTH",
"220 -24 OFFCURVE",
"146 -106 OFFCURVE",
"146 -171 CURVE SMOOTH",
"146 -269 LINE SMOOTH",
"146 -301 OFFCURVE",
"167 -317 OFFCURVE",
"207 -317 CURVE SMOOTH",
"249 -317 OFFCURVE",
"299 -291 OFFCURVE",
"299 -241 CURVE SMOOTH",
"299 -207 OFFCURVE",
"277 -195 OFFCURVE",
"238 -195 CURVE",
"238 -171 LINE SMOOTH",
"238 -133 OFFCURVE",
"281 -91 OFFCURVE",
"354 -91 CURVE SMOOTH",
"427 -91 OFFCURVE",
"470 -127 OFFCURVE",
"470 -165 CURVE SMOOTH",
"470 -255 OFFCURVE",
"545 -317 OFFCURVE",
"691 -317 CURVE SMOOTH",
"856 -317 OFFCURVE",
"934 -230 OFFCURVE",
"934 -130 CURVE SMOOTH",
"934 359 LINE",
"842 359 LINE"
);
},
{
closed = 1;
nodes = (
"214 288 LINE",
"214 534 LINE SMOOTH",
"214 575 OFFCURVE",
"273 614 OFFCURVE",
"354 614 CURVE SMOOTH",
"432 614 OFFCURVE",
"494 576 OFFCURVE",
"494 534 CURVE SMOOTH",
"494 0 LINE",
"586 0 LINE",
"586 534 LINE SMOOTH",
"586 611 OFFCURVE",
"484 681 OFFCURVE",
"354 681 CURVE SMOOTH",
"227 681 OFFCURVE",
"122 612 OFFCURVE",
"122 534 CURVE SMOOTH",
"122 288 LINE"
);
}
);
width = 1043;
},
{
components = (
{
locked = 1;
name = votop;
transform = "{1, 0, 0, 1, 708, 0}";
},
{
locked = 1;
name = loopleftsmall;
transform = "{1, 0, 0, 1, 2, 0}";
}
);
layerId = "37E1EBAF-DBB8-42B6-8B14-41DF5B276D12";
paths = (
{
closed = 1;
nodes = (
"876 -171 LINE SMOOTH",
"876 -241 OFFCURVE",
"819 -291 OFFCURVE",
"699 -291 CURVE SMOOTH",
"571 -291 OFFCURVE",
"530 -248 OFFCURVE",
"530 -171 CURVE SMOOTH",
"530 -106 OFFCURVE",
"470 -24 OFFCURVE",
"354 -24 CURVE SMOOTH",
"238 -24 OFFCURVE",
"178 -106 OFFCURVE",
"178 -171 CURVE SMOOTH",
"178 -285 LINE SMOOTH",
"178 -307 OFFCURVE",
"196 -317 OFFCURVE",
"210 -317 CURVE SMOOTH",
"227 -317 OFFCURVE",
"242 -300 OFFCURVE",
"242 -279 CURVE SMOOTH",
"242 -258 OFFCURVE",
"227 -241 OFFCURVE",
"204 -241 CURVE",
"204 -171 LINE SMOOTH",
"204 -133 OFFCURVE",
"248 -50 OFFCURVE",
"354 -50 CURVE SMOOTH",
"460 -50 OFFCURVE",
"504 -126 OFFCURVE",
"504 -171 CURVE SMOOTH",
"504 -256 OFFCURVE",
"547 -317 OFFCURVE",
"700 -317 CURVE SMOOTH",
"840 -317 OFFCURVE",
"902 -246 OFFCURVE",
"902 -171 CURVE SMOOTH",
"902 371 LINE",
"876 371 LINE"
);
},
{
closed = 1;
nodes = (
"182 288 LINE",
"182 543 LINE SMOOTH",
"182 602 OFFCURVE",
"255 655 OFFCURVE",
"354 655 CURVE SMOOTH",
"450 655 OFFCURVE",
"526 604 OFFCURVE",
"526 543 CURVE SMOOTH",
"526 0 LINE",
"552 0 LINE",
"552 538 LINE SMOOTH",
"552 617 OFFCURVE",
"473 681 OFFCURVE",
"355 681 CURVE SMOOTH",
"238 681 OFFCURVE",
"156 620 OFFCURVE",
"156 538 CURVE SMOOTH",
"156 288 LINE"
);
}
);
width = 1043;
},
{
components = (
{
locked = 1;
name = votop;
transform = "{1, 0, 0, 1, 708, 0}";
},
{
locked = 1;
name = loopleftsmall;
transform = "{1, 0, 0, 1, -2, 0}";
}
);
layerId = "33F44B55-ADBD-4698-98EB-0F29A0B3A069";
paths = (
{
closed = 1;
nodes = (
"797 -140 LINE SMOOTH",
"797 -175 OFFCURVE",
"771 -215 OFFCURVE",
"701 -215 CURVE SMOOTH",
"631 -215 OFFCURVE",
"605 -175 OFFCURVE",
"605 -140 CURVE SMOOTH",
"605 -85 OFFCURVE",
"525 -24 OFFCURVE",
"354 -24 CURVE SMOOTH",
"183 -24 OFFCURVE",
"103 -106 OFFCURVE",
"103 -171 CURVE SMOOTH",
"103 -269 LINE SMOOTH",
"103 -301 OFFCURVE",
"153 -317 OFFCURVE",
"211 -317 CURVE SMOOTH",
"292 -317 OFFCURVE",
"317 -284 OFFCURVE",
"317 -244 CURVE SMOOTH",
"317 -210 OFFCURVE",
"299 -197 OFFCURVE",
"283 -195 CURVE",
"283 -177 LINE SMOOTH",
"283 -155 OFFCURVE",
"301 -126 OFFCURVE",
"354 -126 CURVE SMOOTH",
"407 -126 OFFCURVE",
"425 -155 OFFCURVE",
"425 -177 CURVE SMOOTH",
"425 -270 OFFCURVE",
"525 -317 OFFCURVE",
"696 -317 CURVE SMOOTH",
"929 -317 OFFCURVE",
"977 -219 OFFCURVE",
"977 -140 CURVE SMOOTH",
"977 343 LINE",
"797 343 LINE"
);
},
{
closed = 1;
nodes = (
"257 290 LINE",
"257 506 LINE SMOOTH",
"257 560 OFFCURVE",
"286 580 OFFCURVE",
"354 580 CURVE SMOOTH",
"419 580 OFFCURVE",
"451 562 OFFCURVE",
"451 506 CURVE SMOOTH",
"451 0 LINE",
"631 0 LINE",
"631 555 LINE SMOOTH",
"631 620 OFFCURVE",
"502 682 OFFCURVE",
"354 682 CURVE SMOOTH",
"208 682 OFFCURVE",
"77 621 OFFCURVE",
"77 555 CURVE SMOOTH",
"77 290 LINE"
);
}
);
width = 1086;
},
{
components = (
{
locked = 1;
name = votop;
transform = "{1, 0, 0, 1, 600, 0}";
},
{
locked = 1;
name = loopleftsmall;
transform = "{1, 0, 0, 1, -2, 0}";
}
);
layerId = "2845A654-27C0-4D24-8E0C-7DAF9BC7668A";
paths = (
{
closed = 1;
nodes = (
"677 -140 LINE SMOOTH",
"677 -175 OFFCURVE",
"656 -215 OFFCURVE",
"597 -215 CURVE SMOOTH",
"539 -215 OFFCURVE",
"517 -175 OFFCURVE",
"517 -140 CURVE SMOOTH",
"517 -85 OFFCURVE",
"451 -24 OFFCURVE",
"308 -24 CURVE SMOOTH",
"166 -24 OFFCURVE",
"99 -106 OFFCURVE",
"99 -171 CURVE SMOOTH",
"99 -269 LINE SMOOTH",
"99 -301 OFFCURVE",
"141 -317 OFFCURVE",
"189 -317 CURVE SMOOTH",
"257 -317 OFFCURVE",
"277 -284 OFFCURVE",
"277 -244 CURVE SMOOTH",
"277 -210 OFFCURVE",
"262 -197 OFFCURVE",
"249 -195 CURVE",
"249 -177 LINE SMOOTH",
"249 -155 OFFCURVE",
"264 -126 OFFCURVE",
"308 -126 CURVE SMOOTH",
"352 -126 OFFCURVE",
"367 -155 OFFCURVE",
"367 -177 CURVE SMOOTH",
"367 -270 OFFCURVE",
"451 -317 OFFCURVE",
"593 -317 CURVE SMOOTH",
"787 -317 OFFCURVE",
"827 -219 OFFCURVE",
"827 -140 CURVE SMOOTH",
"827 343 LINE",
"677 343 LINE"
);
},
{
closed = 1;
nodes = (
"227 289 LINE",
"227 506 LINE SMOOTH",
"227 560 OFFCURVE",
"251 580 OFFCURVE",
"308 580 CURVE SMOOTH",
"362 580 OFFCURVE",
"389 562 OFFCURVE",
"389 506 CURVE SMOOTH",
"389 0 LINE",
"539 0 LINE",
"539 555 LINE SMOOTH",
"539 620 OFFCURVE",
"431 682 OFFCURVE",
"308 682 CURVE SMOOTH",
"186 682 OFFCURVE",
"77 621 OFFCURVE",
"77 555 CURVE SMOOTH",
"77 289 LINE"
);
}
);
width = 921;
},
{
components = (
{
locked = 1;
name = votop;
transform = "{1, 0, 0, 1, 602, 0}";
},
{
locked = 1;
name = loopleftsmall;
}
);
layerId = "BB318BD9-DEF5-4D27-998D-30B020A0DD4F";
paths = (
{
closed = 1;
nodes = (
"722 -130 LINE SMOOTH",
"722 -205 OFFCURVE",
"697 -250 OFFCURVE",
"601 -250 CURVE SMOOTH",
"538 -250 OFFCURVE",
"489 -233 OFFCURVE",
"489 -165 CURVE SMOOTH",
"489 -100 OFFCURVE",
"427 -24 OFFCURVE",
"315 -24 CURVE SMOOTH",
"204 -24 OFFCURVE",
"142 -106 OFFCURVE",
"142 -171 CURVE SMOOTH",
"142 -269 LINE SMOOTH",
"142 -301 OFFCURVE",
"160 -317 OFFCURVE",
"193 -317 CURVE SMOOTH",
"228 -317 OFFCURVE",
"270 -291 OFFCURVE",
"270 -241 CURVE SMOOTH",
"270 -207 OFFCURVE",
"251 -195 OFFCURVE",
"219 -195 CURVE",
"219 -171 LINE SMOOTH",
"219 -133 OFFCURVE",
"255 -91 OFFCURVE",
"315 -91 CURVE SMOOTH",
"376 -91 OFFCURVE",
"412 -127 OFFCURVE",
"412 -165 CURVE SMOOTH",
"412 -255 OFFCURVE",
"475 -317 OFFCURVE",
"596 -317 CURVE SMOOTH",
"734 -317 OFFCURVE",
"799 -230 OFFCURVE",
"799 -130 CURVE SMOOTH",
"799 359 LINE",
"722 359 LINE"
);
},
{
closed = 1;
nodes = (
"199 288 LINE",
"199 534 LINE SMOOTH",
"199 574 OFFCURVE",
"247 614 OFFCURVE",
"315 614 CURVE SMOOTH",
"381 614 OFFCURVE",
"432 576 OFFCURVE",
"432 534 CURVE SMOOTH",
"432 0 LINE",
"509 0 LINE",
"509 534 LINE SMOOTH",
"509 610 OFFCURVE",
"425 681 OFFCURVE",
"315 681 CURVE SMOOTH",
"208 681 OFFCURVE",
"122 612 OFFCURVE",
"122 534 CURVE SMOOTH",
"122 288 LINE"
);
}
);
width = 894;
},
{
components = (
{
locked = 1;
name = votop;
transform = "{1, 0, 0, 1, 598, 0}";
},
{
locked = 1;
name = loopleftsmall;
transform = "{1, 0, 0, 1, 2, 0}";
}
);
layerId = "1DC75306-0750-4696-AEC7-032F44743549";
paths = (
{
closed = 1;
nodes = (
"756 -171 LINE SMOOTH",
"756 -241 OFFCURVE",
"707 -291 OFFCURVE",
"609 -291 CURVE SMOOTH",
"519 -291 OFFCURVE",
"470 -248 OFFCURVE",
"470 -171 CURVE SMOOTH",
"470 -106 OFFCURVE",
"440 -24 OFFCURVE",
"324 -24 CURVE SMOOTH",
"208 -24 OFFCURVE",
"178 -106 OFFCURVE",
"178 -171 CURVE SMOOTH",
"178 -285 LINE SMOOTH",
"178 -307 OFFCURVE",
"196 -317 OFFCURVE",
"210 -317 CURVE SMOOTH",
"227 -317 OFFCURVE",
"242 -300 OFFCURVE",
"242 -279 CURVE SMOOTH",
"242 -258 OFFCURVE",
"227 -241 OFFCURVE",
"204 -241 CURVE",
"204 -171 LINE SMOOTH",
"204 -133 OFFCURVE",
"218 -50 OFFCURVE",
"324 -50 CURVE SMOOTH",
"430 -50 OFFCURVE",
"444 -126 OFFCURVE",
"444 -171 CURVE SMOOTH",
"444 -256 OFFCURVE",
"495 -317 OFFCURVE",
"610 -317 CURVE SMOOTH",
"728 -317 OFFCURVE",
"782 -246 OFFCURVE",
"782 -171 CURVE SMOOTH",
"782 371 LINE",
"756 371 LINE"
);
},
{
closed = 1;
nodes = (
"182 279 LINE",
"182 543 LINE SMOOTH",
"182 599 OFFCURVE",
"240 655 OFFCURVE",
"325 655 CURVE SMOOTH",
"402 655 OFFCURVE",
"466 598 OFFCURVE",
"466 543 CURVE SMOOTH",
"466 0 LINE",
"492 0 LINE",
"492 538 LINE SMOOTH",
"492 610 OFFCURVE",
"420 681 OFFCURVE",
"325 681 CURVE SMOOTH",
"227 681 OFFCURVE",
"156 612 OFFCURVE",
"156 538 CURVE SMOOTH",
"156 279 LINE"
);
}
);
width = 923;
}
);
note = uni17A6;
unicode = 17A6;
},
{
glyphname = uni17A7;
lastChange = "2016-11-17 19:08:58 +0000";
layers = (
{
anchors = (
{
name = abvm;
position = "{354, 760}";
},
{
name = blwm;
position = "{354, -49}";
}
);
components = (
{
locked = 1;
name = khadotoloop;
transform = "{1, 0, 0, 1, 57, 0}";
}
);
guideLines = (
{
angle = 207.1547;
position = "{273, 217}";
}
);
layerId = "88BEB7F0-7448-46FF-842C-45A92B9492CE";
paths = (
{
closed = 1;
nodes = (
"214 513 LINE",
"214 536 LINE SMOOTH",
"214 577 OFFCURVE",
"273 615 OFFCURVE",
"355 615 CURVE SMOOTH",
"432 615 OFFCURVE",
"494 578 OFFCURVE",
"494 536 CURVE SMOOTH",
"494 463 LINE SMOOTH",
"494 428 OFFCURVE",
"448 386 OFFCURVE",
"354 338 CURVE SMOOTH",
"122 219 LINE",
"122 122 LINE SMOOTH",
"122 36 OFFCURVE",
"173 0 OFFCURVE",
"238 0 CURVE SMOOTH",
"305 0 OFFCURVE",
"344 39 OFFCURVE",
"410 87 CURVE SMOOTH",
"463 125 OFFCURVE",
"479 130 OFFCURVE",
"494 130 CURVE",
"494 49 LINE SMOOTH",
"494 31 OFFCURVE",
"486 13 OFFCURVE",
"464 -4 CURVE",
"464 -27 OFFCURVE",
"486 -49 OFFCURVE",
"520 -49 CURVE SMOOTH",
"557 -49 OFFCURVE",
"586 -24 OFFCURVE",
"586 24 CURVE SMOOTH",
"586 279 LINE",
"494 235 LINE",
"494 200 LINE",
"433 195 OFFCURVE",
"384 152 OFFCURVE",
"311 91 CURVE SMOOTH",
"294 77 OFFCURVE",
"277 70 OFFCURVE",
"259 70 CURVE SMOOTH",
"231 70 OFFCURVE",
"214 87 OFFCURVE",
"214 122 CURVE SMOOTH",
"214 187 LINE",
"400 282 LINE SMOOTH",
"524 345 OFFCURVE",
"586 407 OFFCURVE",
"586 463 CURVE SMOOTH",
"586 536 LINE SMOOTH",
"586 612 OFFCURVE",
"484 682 OFFCURVE",
"354 682 CURVE SMOOTH",
"226 682 OFFCURVE",
"122 614 OFFCURVE",
"122 536 CURVE SMOOTH",
"122 513 LINE"
);
}
);
width = 676;
},
{
anchors = (
{
name = abvm;
position = "{330, 760}";
},
{
name = blwm;
position = "{330, -50}";
}
);
components = (
{
locked = 1;
name = khadotoloop;
transform = "{1, 0, 0, 1, 74, 0}";
}
);
layerId = "37E1EBAF-DBB8-42B6-8B14-41DF5B276D12";
paths = (
{
closed = 1;
nodes = (
"156 513 LINE",
"156 549 LINE SMOOTH",
"156 602 OFFCURVE",
"230 656 OFFCURVE",
"330 656 CURVE SMOOTH",
"430 656 OFFCURVE",
"504 604 OFFCURVE",
"504 549 CURVE SMOOTH",
"504 463 LINE SMOOTH",
"504 437 OFFCURVE",
"446 397 OFFCURVE",
"330 338 CURVE SMOOTH",
"130 235 LINE",
"130 100 LINE SMOOTH",
"130 38 OFFCURVE",
"169 0 OFFCURVE",
"217 0 CURVE SMOOTH",
"260 0 OFFCURVE",
"318 40 OFFCURVE",
"367 74 CURVE SMOOTH",
"400 97 OFFCURVE",
"482 154 OFFCURVE",
"504 157 CURVE",
"504 21 LINE SMOOTH",
"504 9 OFFCURVE",
"503 -7 OFFCURVE",
"478 -18 CURVE",
"478 -41 OFFCURVE",
"492 -49 OFFCURVE",
"503 -49 CURVE SMOOTH",
"520 -49 OFFCURVE",
"530 -30 OFFCURVE",
"530 -4 CURVE SMOOTH",
"530 252 LINE",
"504 235 LINE",
"504 183 LINE",
"469 175 OFFCURVE",
"399 127 OFFCURVE",
"336 83 CURVE SMOOTH",
"288 50 OFFCURVE",
"260 26 OFFCURVE",
"224 26 CURVE SMOOTH",
"178 26 OFFCURVE",
"156 65 OFFCURVE",
"156 100 CURVE SMOOTH",
"156 219 LINE",
"376 333 LINE SMOOTH",
"478 386 OFFCURVE",
"530 413 OFFCURVE",
"530 476 CURVE SMOOTH",
"530 556 LINE SMOOTH",
"530 619 OFFCURVE",
"440 682 OFFCURVE",
"330 682 CURVE SMOOTH",
"220 682 OFFCURVE",
"130 620 OFFCURVE",
"130 556 CURVE SMOOTH",
"130 513 LINE"
);
}
);
width = 660;
},
{
anchors = (
{
name = abvm;
position = "{355, 760}";
},
{
name = blwm;
position = "{355, -49}";
}
);
components = (
{
locked = 1;
name = khadotoloop;
transform = "{1, 0, 0, 1, 20, 0}";
}
);
guideLines = (
{
angle = 193.8847;
position = "{367, 53}";
}
);
layerId = "33F44B55-ADBD-4698-98EB-0F29A0B3A069";
paths = (
{
closed = 1;
nodes = (
"259 530 LINE",
"259 532 LINE SMOOTH",
"259 568 OFFCURVE",
"289 580 OFFCURVE",
"354 580 CURVE SMOOTH",
"422 580 OFFCURVE",
"451 566 OFFCURVE",
"451 505 CURVE SMOOTH",
"451 463 LINE SMOOTH",
"451 415 OFFCURVE",
"419 372 OFFCURVE",
"354 338 CURVE SMOOTH",
"79 197 LINE",
"79 122 LINE SMOOTH",
"79 36 OFFCURVE",
"149 0 OFFCURVE",
"222 0 CURVE SMOOTH",
"278 0 OFFCURVE",
"321 22 OFFCURVE",
"367 53 CURVE SMOOTH",
"422 89 OFFCURVE",
"436 98 OFFCURVE",
"451 98 CURVE",
"451 71 LINE SMOOTH",
"451 35 OFFCURVE",
"438 21 OFFCURVE",
"417 10 CURVE",
"417 -13 OFFCURVE",
"448 -49 OFFCURVE",
"513 -49 CURVE SMOOTH",
"592 -49 OFFCURVE",
"629 6 OFFCURVE",
"629 54 CURVE SMOOTH",
"629 279 LINE",
"451 235 LINE",
"451 209 LINE",
"412 203 OFFCURVE",
"389 188 OFFCURVE",
"355 161 CURVE SMOOTH",
"314 129 OFFCURVE",
"297 111 OFFCURVE",
"280 111 CURVE SMOOTH",
"271 111 OFFCURVE",
"257 116 OFFCURVE",
"257 151 CURVE SMOOTH",
"257 165 LINE",
"400 239 LINE SMOOTH",
"555 318 OFFCURVE",
"629 420 OFFCURVE",
"629 463 CURVE SMOOTH",
"629 536 LINE SMOOTH",
"629 621 OFFCURVE",
"524 682 OFFCURVE",
"355 682 CURVE SMOOTH",
"188 682 OFFCURVE",
"79 623 OFFCURVE",
"79 536 CURVE SMOOTH",
"79 529 LINE"
);
}
);
width = 708;
},
{
anchors = (
{
name = abvm;
position = "{309, 760}";
},
{
name = blwm;
position = "{309, -49}";
}
);
components = (
{
locked = 1;
name = khadotoloop;
transform = "{1, 0, 0, 1, 20, 0}";
}
);
layerId = "2845A654-27C0-4D24-8E0C-7DAF9BC7668A";
paths = (
{
closed = 1;
nodes = (
"229 530 LINE",
"229 532 LINE SMOOTH",
"229 568 OFFCURVE",
"254 580 OFFCURVE",
"308 580 CURVE SMOOTH",
"365 580 OFFCURVE",
"389 566 OFFCURVE",
"389 505 CURVE SMOOTH",
"389 463 LINE SMOOTH",
"389 415 OFFCURVE",
"362 372 OFFCURVE",
"308 338 CURVE SMOOTH",
"79 197 LINE",
"79 122 LINE SMOOTH",
"79 36 OFFCURVE",
"139 0 OFFCURVE",
"199 0 CURVE SMOOTH",
"246 0 OFFCURVE",
"281 22 OFFCURVE",
"319 53 CURVE SMOOTH",
"365 89 OFFCURVE",
"377 98 OFFCURVE",
"389 98 CURVE",
"389 71 LINE SMOOTH",
"389 35 OFFCURVE",
"378 21 OFFCURVE",
"361 10 CURVE",
"361 -13 OFFCURVE",
"387 -49 OFFCURVE",
"441 -49 CURVE SMOOTH",
"507 -49 OFFCURVE",
"537 6 OFFCURVE",
"537 54 CURVE SMOOTH",
"537 279 LINE",
"389 235 LINE",
"389 209 LINE",
"357 203 OFFCURVE",
"337 188 OFFCURVE",
"309 161 CURVE SMOOTH",
"275 129 OFFCURVE",
"262 111 OFFCURVE",
"247 111 CURVE SMOOTH",
"239 111 OFFCURVE",
"227 116 OFFCURVE",
"227 151 CURVE SMOOTH",
"227 165 LINE",
"347 239 LINE SMOOTH",
"476 318 OFFCURVE",
"537 420 OFFCURVE",
"537 463 CURVE SMOOTH",
"537 536 LINE SMOOTH",
"537 621 OFFCURVE",
"450 682 OFFCURVE",
"309 682 CURVE SMOOTH",
"170 682 OFFCURVE",
"79 623 OFFCURVE",
"79 536 CURVE SMOOTH",
"79 529 LINE"
);
}
);
width = 635;
},
{
anchors = (
{
name = abvm;
position = "{315, 760}";
},
{
name = blwm;
position = "{315, -49}";
}
);
components = (
{
locked = 1;
name = khadotoloop;
transform = "{1, 0, 0, 1, 57, 0}";
}
);
guideLines = (
{
angle = 207.1547;
position = "{273, 217}";
}
);
layerId = "BB318BD9-DEF5-4D27-998D-30B020A0DD4F";
paths = (
{
closed = 1;
nodes = (
"199 513 LINE",
"199 536 LINE SMOOTH",
"199 577 OFFCURVE",
"248 615 OFFCURVE",
"316 615 CURVE SMOOTH",
"380 615 OFFCURVE",
"432 578 OFFCURVE",
"432 536 CURVE SMOOTH",
"432 463 LINE SMOOTH",
"432 428 OFFCURVE",
"394 386 OFFCURVE",
"315 338 CURVE SMOOTH",
"122 219 LINE",
"122 122 LINE SMOOTH",
"122 36 OFFCURVE",
"166 0 OFFCURVE",
"220 0 CURVE SMOOTH",
"276 0 OFFCURVE",
"307 39 OFFCURVE",
"362 87 CURVE SMOOTH",
"406 125 OFFCURVE",
"420 130 OFFCURVE",
"432 130 CURVE",
"432 49 LINE SMOOTH",
"432 31 OFFCURVE",
"425 13 OFFCURVE",
"407 -4 CURVE",
"407 -27 OFFCURVE",
"425 -49 OFFCURVE",
"454 -49 CURVE SMOOTH",
"485 -49 OFFCURVE",
"509 -24 OFFCURVE",
"509 24 CURVE SMOOTH",
"509 279 LINE",
"432 235 LINE",
"432 200 LINE",
"381 195 OFFCURVE",
"340 152 OFFCURVE",
"280 91 CURVE SMOOTH",
"265 77 OFFCURVE",
"250 70 OFFCURVE",
"235 70 CURVE SMOOTH",
"212 70 OFFCURVE",
"199 87 OFFCURVE",
"199 122 CURVE SMOOTH",
"199 187 LINE",
"354 282 LINE SMOOTH",
"457 345 OFFCURVE",
"509 407 OFFCURVE",
"509 463 CURVE SMOOTH",
"509 536 LINE SMOOTH",
"509 612 OFFCURVE",
"424 682 OFFCURVE",
"315 682 CURVE SMOOTH",
"209 682 OFFCURVE",
"122 614 OFFCURVE",
"122 536 CURVE SMOOTH",
"122 513 LINE"
);
}
);
width = 587;
},
{
anchors = (
{
name = abvm;
position = "{324, 760}";
},
{
name = blwm;
position = "{324, -49}";
}
);
components = (
{
locked = 1;
name = khadotoloop;
transform = "{1, 0, 0, 1, 98, 0}";
}
);
layerId = "1DC75306-0750-4696-AEC7-032F44743549";
paths = (
{
closed = 1;
nodes = (
"180 513 LINE",
"180 549 LINE SMOOTH",
"180 602 OFFCURVE",
"234 656 OFFCURVE",
"324 656 CURVE SMOOTH",
"414 656 OFFCURVE",
"468 604 OFFCURVE",
"468 549 CURVE SMOOTH",
"468 463 LINE SMOOTH",
"468 437 OFFCURVE",
"404 390 OFFCURVE",
"294 322 CURVE SMOOTH",
"154 235 LINE",
"154 119 LINE SMOOTH",
"154 33 OFFCURVE",
"197 0 OFFCURVE",
"238 0 CURVE SMOOTH",
"283 0 OFFCURVE",
"320 40 OFFCURVE",
"368 82 CURVE SMOOTH",
"396 106 OFFCURVE",
"455 155 OFFCURVE",
"468 155 CURVE",
"468 21 LINE SMOOTH",
"468 9 OFFCURVE",
"464 -6 OFFCURVE",
"444 -18 CURVE",
"444 -41 OFFCURVE",
"459 -49 OFFCURVE",
"469 -49 CURVE SMOOTH",
"485 -49 OFFCURVE",
"494 -28 OFFCURVE",
"494 -2 CURVE SMOOTH",
"494 252 LINE",
"468 235 LINE",
"468 181 LINE",
"426 169 OFFCURVE",
"392 140 OFFCURVE",
"337 88 CURVE SMOOTH",
"291 44 OFFCURVE",
"266 26 OFFCURVE",
"240 26 CURVE SMOOTH",
"201 26 OFFCURVE",
"180 66 OFFCURVE",
"180 111 CURVE SMOOTH",
"180 219 LINE",
"336 318 LINE SMOOTH",
"434 380 OFFCURVE",
"494 411 OFFCURVE",
"494 476 CURVE SMOOTH",
"494 556 LINE SMOOTH",
"494 619 OFFCURVE",
"424 682 OFFCURVE",
"324 682 CURVE SMOOTH",
"224 682 OFFCURVE",
"154 620 OFFCURVE",
"154 556 CURVE SMOOTH",
"154 513 LINE"
);
}
);
width = 614;
}
);
note = uni17A7;
unicode = 17A7;
},
